 <svg width="18" height="18" viewBox="0 0 18 18" fill="none" xmlns="http://www.w3.org/2000/svg">
    <path
        d="M8.16406 4.83329H9.83073V6.49996H8.16406V4.83329ZM8.16406 8.16663H9.83073V13.1666H8.16406V8.16663ZM8.9974 0.666626C4.3974 0.666626 0.664062 4.39996 0.664062 8.99996C0.664062 13.6 4.3974 17.3333 8.9974 17.3333C13.5974 17.3333 17.3307 13.6 17.3307 8.99996C17.3307 4.39996 13.5974 0.666626 8.9974 0.666626ZM8.9974 15.6666C5.3224 15.6666 2.33073 12.675 2.33073 8.99996C2.33073 5.32496 5.3224 2.33329 8.9974 2.33329C12.6724 2.33329 15.6641 5.32496 15.6641 8.99996C15.6641 12.675 12.6724 15.6666 8.9974 15.6666Z"
        fill="#757575"
     />
</svg>