<svg width="240" height="64" viewBox="0 0 240 64" fill="none" xmlns="http://www.w3.org/2000/svg">
  <rect width="240" height="64" fill="white"/>
  <line x1="240" y1="0.5" x2="-4.1963e-08" y2="0.499978" stroke="#E0E0E0"/>
  <path d="M58.9765 31.8829V35.1393H57.9414V26.8213H60.8365C61.6954 26.8213 62.3675 27.0536 62.8527 27.5183C63.3415 27.9829 63.5859 28.598 63.5859 29.3635C63.5859 30.1709 63.3469 30.7937 62.8689 31.2316C62.3945 31.6658 61.7134 31.8829 60.8257 31.8829H58.9765ZM58.9765 30.986H60.8365C61.3899 30.986 61.8141 30.8489 62.1088 30.5747C62.4035 30.2966 62.5508 29.8967 62.5508 29.3749C62.5508 28.8798 62.4035 28.4837 62.1088 28.1867C61.8141 27.8896 61.4097 27.7354 60.8958 27.7239H58.9765V30.986ZM64.4108 31.9914C64.4108 31.3859 64.5222 30.8413 64.745 30.3576C64.9715 29.8739 65.2842 29.5006 65.6831 29.2378C66.0857 28.975 66.5439 28.8436 67.0578 28.8436C67.8522 28.8436 68.4937 29.135 68.9825 29.7177C69.4749 30.3004 69.7211 31.0755 69.7211 32.0429V32.1171C69.7211 32.7189 69.6115 33.2597 69.3922 33.7396C69.1766 34.2157 68.8657 34.587 68.4595 34.8536C68.057 35.1202 67.5934 35.2536 67.0686 35.2536C66.278 35.2536 65.6364 34.9621 65.144 34.3795C64.6552 33.7967 64.4108 33.0255 64.4108 32.0658V31.9914ZM65.4135 32.1171C65.4135 32.8027 65.5627 33.353 65.861 33.7682C66.1629 34.1833 66.5655 34.3909 67.0686 34.3909C67.5754 34.3909 67.978 34.1814 68.2762 33.7624C68.5746 33.3397 68.7237 32.7494 68.7237 31.9914C68.7237 31.3135 68.571 30.7651 68.2655 30.3461C67.9636 29.9234 67.561 29.712 67.0578 29.712C66.5655 29.712 66.1683 29.9196 65.8664 30.3347C65.5645 30.7498 65.4135 31.344 65.4135 32.1171ZM76.1366 33.6824L77.2579 28.9579H78.2553L76.5571 35.1393H75.7484L74.3305 30.4547L72.9504 35.1393H72.1417L70.4489 28.9579H71.4409L72.5892 33.5853L73.9477 28.9579H74.751L76.1366 33.6824ZM81.6948 35.2536C80.9041 35.2536 80.2608 34.9793 79.7648 34.4309C79.2688 33.8786 79.0208 33.1416 79.0208 32.2199V32.0257C79.0208 31.4125 79.1305 30.866 79.3497 30.3861C79.5726 29.9024 79.8816 29.5254 80.277 29.255C80.6759 28.9808 81.1072 28.8436 81.5708 28.8436C82.3292 28.8436 82.9186 29.1083 83.3392 29.6377C83.7597 30.1671 83.9699 30.9251 83.9699 31.9115V32.3513H80.0182C80.0326 32.9607 80.1997 33.4539 80.5195 33.831C80.8431 34.2042 81.2528 34.3909 81.7488 34.3909C82.101 34.3909 82.3993 34.3147 82.6437 34.1624C82.8881 34.01 83.102 33.8082 83.2853 33.5568L83.8945 34.0595C83.4057 34.8555 82.6725 35.2536 81.6948 35.2536ZM81.5708 29.712C81.1683 29.712 80.8305 29.8682 80.5573 30.1805C80.2842 30.489 80.1153 30.9231 80.0506 31.483H82.9725V31.403C82.9438 30.866 82.8073 30.4509 82.5628 30.1576C82.3184 29.8606 81.9878 29.712 81.5708 29.712ZM87.9486 29.9063C87.7977 29.8796 87.6341 29.8663 87.458 29.8663C86.8039 29.8663 86.36 30.1614 86.1264 30.7518V35.1393H85.129V28.9579H86.0995L86.1156 29.672C86.4427 29.1198 86.9063 28.8436 87.5065 28.8436C87.7006 28.8436 87.8479 28.8703 87.9486 28.9236V29.9063ZM91.1833 35.2536C90.3926 35.2536 89.7492 34.9793 89.2532 34.4309C88.7573 33.8786 88.5093 33.1416 88.5093 32.2199V32.0257C88.5093 31.4125 88.6189 30.866 88.8382 30.3861C89.0609 29.9024 89.3701 29.5254 89.7654 29.255C90.1644 28.9808 90.5956 28.8436 91.0593 28.8436C91.8176 28.8436 92.4071 29.1083 92.8276 29.6377C93.2481 30.1671 93.4584 30.9251 93.4584 31.9115V32.3513H89.5067C89.521 32.9607 89.6882 33.4539 90.008 33.831C90.3315 34.2042 90.7412 34.3909 91.2372 34.3909C91.5894 34.3909 91.8877 34.3147 92.1321 34.1624C92.3766 34.01 92.5904 33.8082 92.7737 33.5568L93.3829 34.0595C92.8941 34.8555 92.1609 35.2536 91.1833 35.2536ZM91.0593 29.712C90.6568 29.712 90.3189 29.8682 90.0458 30.1805C89.7726 30.489 89.6037 30.9231 89.539 31.483H92.461V31.403C92.4322 30.866 92.2956 30.4509 92.0513 30.1576C91.8069 29.8606 91.4762 29.712 91.0593 29.712ZM94.3748 31.9972C94.3748 31.0488 94.5869 30.2871 95.011 29.712C95.4351 29.1331 95.9904 28.8436 96.6769 28.8436C97.3598 28.8436 97.9007 29.0912 98.2996 29.5863V26.3643H99.297V35.1393H98.3805L98.332 34.4766C97.9331 34.9945 97.3778 35.2536 96.6661 35.2536C95.9904 35.2536 95.4387 34.9602 95.011 34.3737C94.5869 33.7872 94.3748 33.0216 94.3748 32.0772V31.9972ZM95.3722 32.1171C95.3722 32.8179 95.5088 33.3663 95.782 33.7624C96.0551 34.1585 96.4325 34.3566 96.9141 34.3566C97.5467 34.3566 98.0085 34.0557 98.2996 33.4539V30.6147C98.0013 30.0319 97.543 29.7406 96.9249 29.7406C96.4361 29.7406 96.0551 29.9405 95.782 30.3404C95.5088 30.7403 95.3722 31.3325 95.3722 32.1171ZM108.527 32.1171C108.527 33.0617 108.322 33.8215 107.912 34.3966C107.502 34.9679 106.952 35.2536 106.262 35.2536C105.526 35.2536 104.956 34.9773 104.553 34.4251L104.505 35.1393H103.588V26.3643H104.586V29.6377C104.988 29.1083 105.544 28.8436 106.252 28.8436C106.96 28.8436 107.515 29.1274 107.917 29.6949C108.324 30.2624 108.527 31.0393 108.527 32.0257V32.1171ZM107.529 31.9972C107.529 31.2774 107.398 30.7213 107.136 30.329C106.873 29.9367 106.496 29.7406 106.004 29.7406C105.346 29.7406 104.873 30.0643 104.586 30.7118V33.3854C104.891 34.0329 105.367 34.3566 106.014 34.3566C106.492 34.3566 106.864 34.1604 107.13 33.7682C107.396 33.3759 107.529 32.7856 107.529 31.9972ZM111.632 33.5911L112.991 28.9579H114.058L111.713 36.0933C111.35 37.1216 110.773 37.6358 109.982 37.6358L109.794 37.6187L109.422 37.5444V36.6874L109.691 36.7103C110.029 36.7103 110.291 36.6379 110.478 36.4932C110.669 36.3485 110.825 36.0838 110.947 35.6991L111.168 35.0707L109.087 28.9579H110.176L111.632 33.5911Z" fill="#727272"/>
  <path d="M157.036 33.1465C157.036 33.1465 156.908 32.6752 156.908 32.3258V26.8648H159.096V37.3845L152.093 31.5853C151.718 31.2663 151.497 30.9105 151.497 30.9105C151.497 30.9105 151.607 31.3016 151.607 31.6414L151.604 37.1457H149.416V26.666L156.355 32.3499C156.727 32.6672 157.036 33.1465 157.036 33.1465Z" fill="#727272"/>
  <path d="M176.843 26.8535C180.309 26.8535 181.197 28.2208 181.197 30.1859C181.197 31.6109 180.148 33.0038 178.034 33.1705L177.803 33.1817C177.803 33.1817 178.007 33.2186 178.22 33.4238L182.059 37.136H179.092L173.735 31.6958H176.404C178.792 31.6958 178.861 30.436 178.879 30.117C178.924 29.3011 178.663 28.6471 176.838 28.6471H173.788V37.1344H171.514V26.8535H176.843Z" fill="#727272"/>
  <path d="M160.078 32.1437C160.078 27.8351 163.685 26.7051 166.714 26.7051C167.927 26.7051 169.003 26.8125 170.131 27.0529L170.135 29.236C169.484 29.0373 168.178 28.5981 166.712 28.5981C163.84 28.5981 162.444 29.7137 162.444 32.1421C162.444 34.1313 163.947 35.3991 166.712 35.3991C168.178 35.3991 169.646 35.0513 170.356 34.7884L170.353 36.9075C169.223 37.1463 167.927 37.2938 166.714 37.2938C163.478 37.2954 160.078 35.7213 160.078 32.1437Z" fill="#727272"/>
  <path d="M135.462 27.1191L137.596 29.1292C137.538 29.1548 137.471 29.1869 137.392 29.2269C137.27 29.2911 137.121 29.376 136.945 29.4978C136.594 29.7415 136.134 30.1262 135.549 30.7593L131.38 35.1704C130.665 35.9254 129.939 36.5233 129.262 36.8407L127.129 34.8306C127.187 34.8034 127.254 34.7729 127.332 34.7313C127.456 34.6687 127.603 34.5822 127.78 34.4604C128.131 34.2183 128.591 33.8336 129.176 33.2005L133.345 28.7958C134.06 28.0408 134.786 27.4349 135.462 27.1191Z" fill="#727272"/>
  <path d="M127.205 37.7856C128.149 37.7856 129.014 37.5981 129.603 37.2936C129.872 37.1525 130.255 36.9105 130.585 36.6556C130.914 36.3991 131.379 36 131.775 35.5801L135.948 31.1801C137 30.0709 137.633 29.7295 138.016 29.5949L140.158 31.6225C139.71 32.1002 134.382 37.776 134.382 37.776C134.019 38.1687 133.635 38.547 133.376 38.7858C133.126 39.0167 132.698 39.3597 132.477 39.5216C131.223 40.44 129.55 41.1854 127.296 41.1854C122.189 41.1854 118.059 37.0275 118.059 32.2412C118.059 26.3025 122.697 22.8579 126.924 22.8579C128.219 22.8195 129.258 23.0375 130.079 23.3164C130.838 23.5744 131.412 23.887 131.827 24.1002C131.337 24.4159 130.861 24.8439 130.075 25.6838L129.22 26.6023C129.022 26.5269 128.147 26.2224 127.025 26.2561C124.315 26.3362 121.349 28.5354 121.457 32.1387C121.556 35.5063 124.336 37.7856 127.205 37.7856Z" fill="#727272"/>
  <path d="M135.096 26.7015C134.827 26.8409 134.442 27.0829 134.112 27.3394C133.783 27.5959 133.318 27.995 132.923 28.4133L128.75 32.8133C127.697 33.9225 127.064 34.2639 126.681 34.3985L124.541 32.3725C124.988 31.8948 130.316 26.2206 130.316 26.2206C130.68 25.8295 131.063 25.4512 131.323 25.2108C131.573 24.98 132.001 24.6385 132.222 24.4766C133.474 23.5582 135.151 22.8145 137.404 22.8145C142.511 22.8145 146.64 26.9707 146.64 31.757C146.64 37.6973 142.001 41.1402 137.774 41.1402C136.479 41.1787 135.441 40.9607 134.618 40.6818C133.857 40.4238 133.282 40.1096 132.866 39.898C133.386 39.5486 133.831 39.1623 134.622 38.3192L135.478 37.3991C135.675 37.4728 136.55 37.779 137.672 37.7453C140.382 37.6652 143.349 35.466 143.242 31.8611C143.143 28.4903 140.362 26.211 137.494 26.211C136.548 26.2094 135.684 26.3953 135.096 26.7015Z" fill="#727272"/>
  </svg>
  