<svg width="240" height="40" viewBox="0 0 240 40" fill="none" xmlns="http://www.w3.org/2000/svg">
<path d="M58.9765 19.8829V23.1393H57.9414V14.8213H60.8365C61.6954 14.8213 62.3675 15.0536 62.8527 15.5183C63.3415 15.9829 63.5859 16.598 63.5859 17.3635C63.5859 18.1709 63.3469 18.7937 62.8689 19.2316C62.3945 19.6658 61.7134 19.8829 60.8257 19.8829H58.9765ZM58.9765 18.986H60.8365C61.3899 18.986 61.8141 18.8489 62.1088 18.5747C62.4035 18.2966 62.5508 17.8967 62.5508 17.3749C62.5508 16.8798 62.4035 16.4837 62.1088 16.1867C61.8141 15.8896 61.4097 15.7354 60.8958 15.7239H58.9765V18.986ZM64.4108 19.9914C64.4108 19.3859 64.5222 18.8413 64.745 18.3576C64.9715 17.8739 65.2842 17.5006 65.6831 17.2378C66.0857 16.975 66.5439 16.8436 67.0578 16.8436C67.8522 16.8436 68.4937 17.135 68.9825 17.7177C69.4749 18.3004 69.7211 19.0755 69.7211 20.0429V20.1171C69.7211 20.7189 69.6115 21.2597 69.3922 21.7396C69.1766 22.2157 68.8657 22.587 68.4595 22.8536C68.057 23.1202 67.5934 23.2536 67.0686 23.2536C66.278 23.2536 65.6364 22.9621 65.144 22.3795C64.6552 21.7967 64.4108 21.0255 64.4108 20.0658V19.9914ZM65.4135 20.1171C65.4135 20.8027 65.5627 21.353 65.861 21.7682C66.1629 22.1833 66.5655 22.3909 67.0686 22.3909C67.5754 22.3909 67.978 22.1814 68.2762 21.7624C68.5746 21.3397 68.7237 20.7494 68.7237 19.9914C68.7237 19.3135 68.571 18.7651 68.2655 18.3461C67.9636 17.9234 67.561 17.712 67.0578 17.712C66.5655 17.712 66.1683 17.9196 65.8664 18.3347C65.5645 18.7498 65.4135 19.344 65.4135 20.1171ZM76.1366 21.6824L77.2579 16.9579H78.2553L76.5571 23.1393H75.7484L74.3305 18.4547L72.9504 23.1393H72.1417L70.4489 16.9579H71.4409L72.5892 21.5853L73.9477 16.9579H74.751L76.1366 21.6824ZM81.6948 23.2536C80.9041 23.2536 80.2608 22.9793 79.7648 22.4309C79.2688 21.8786 79.0208 21.1416 79.0208 20.2199V20.0257C79.0208 19.4125 79.1305 18.866 79.3497 18.3861C79.5726 17.9024 79.8816 17.5254 80.277 17.255C80.6759 16.9808 81.1072 16.8436 81.5708 16.8436C82.3292 16.8436 82.9186 17.1083 83.3392 17.6377C83.7597 18.1671 83.9699 18.9251 83.9699 19.9115V20.3513H80.0182C80.0326 20.9607 80.1997 21.4539 80.5195 21.831C80.8431 22.2042 81.2528 22.3909 81.7488 22.3909C82.101 22.3909 82.3993 22.3147 82.6437 22.1624C82.8881 22.01 83.102 21.8082 83.2853 21.5568L83.8945 22.0595C83.4057 22.8555 82.6725 23.2536 81.6948 23.2536ZM81.5708 17.712C81.1683 17.712 80.8305 17.8682 80.5573 18.1805C80.2842 18.489 80.1153 18.9231 80.0506 19.483H82.9725V19.403C82.9438 18.866 82.8073 18.4509 82.5628 18.1576C82.3184 17.8606 81.9878 17.712 81.5708 17.712ZM87.9486 17.9063C87.7977 17.8796 87.6341 17.8663 87.458 17.8663C86.8039 17.8663 86.36 18.1614 86.1264 18.7518V23.1393H85.129V16.9579H86.0995L86.1156 17.672C86.4427 17.1198 86.9063 16.8436 87.5065 16.8436C87.7006 16.8436 87.8479 16.8703 87.9486 16.9236V17.9063ZM91.1833 23.2536C90.3926 23.2536 89.7492 22.9793 89.2532 22.4309C88.7573 21.8786 88.5093 21.1416 88.5093 20.2199V20.0257C88.5093 19.4125 88.6189 18.866 88.8382 18.3861C89.0609 17.9024 89.3701 17.5254 89.7654 17.255C90.1644 16.9808 90.5956 16.8436 91.0593 16.8436C91.8176 16.8436 92.4071 17.1083 92.8276 17.6377C93.2481 18.1671 93.4584 18.9251 93.4584 19.9115V20.3513H89.5067C89.521 20.9607 89.6882 21.4539 90.008 21.831C90.3315 22.2042 90.7412 22.3909 91.2372 22.3909C91.5894 22.3909 91.8877 22.3147 92.1321 22.1624C92.3766 22.01 92.5904 21.8082 92.7737 21.5568L93.3829 22.0595C92.8941 22.8555 92.1609 23.2536 91.1833 23.2536ZM91.0593 17.712C90.6568 17.712 90.3189 17.8682 90.0458 18.1805C89.7726 18.489 89.6037 18.9231 89.539 19.483H92.461V19.403C92.4322 18.866 92.2956 18.4509 92.0513 18.1576C91.8069 17.8606 91.4762 17.712 91.0593 17.712ZM94.3748 19.9972C94.3748 19.0488 94.5869 18.2871 95.011 17.712C95.4351 17.1331 95.9904 16.8436 96.6769 16.8436C97.3598 16.8436 97.9007 17.0912 98.2996 17.5863V14.3643H99.297V23.1393H98.3805L98.332 22.4766C97.9331 22.9945 97.3778 23.2536 96.6661 23.2536C95.9904 23.2536 95.4387 22.9602 95.011 22.3737C94.5869 21.7872 94.3748 21.0216 94.3748 20.0772V19.9972ZM95.3722 20.1171C95.3722 20.8179 95.5088 21.3663 95.782 21.7624C96.0551 22.1585 96.4325 22.3566 96.9141 22.3566C97.5467 22.3566 98.0085 22.0557 98.2996 21.4539V18.6147C98.0013 18.0319 97.543 17.7406 96.9249 17.7406C96.4361 17.7406 96.0551 17.9405 95.782 18.3404C95.5088 18.7403 95.3722 19.3325 95.3722 20.1171ZM108.527 20.1171C108.527 21.0617 108.322 21.8215 107.912 22.3966C107.502 22.9679 106.952 23.2536 106.262 23.2536C105.526 23.2536 104.956 22.9773 104.553 22.4251L104.505 23.1393H103.588V14.3643H104.586V17.6377C104.988 17.1083 105.544 16.8436 106.252 16.8436C106.96 16.8436 107.515 17.1274 107.917 17.6949C108.324 18.2624 108.527 19.0393 108.527 20.0257V20.1171ZM107.529 19.9972C107.529 19.2774 107.398 18.7213 107.136 18.329C106.873 17.9367 106.496 17.7406 106.004 17.7406C105.346 17.7406 104.873 18.0643 104.586 18.7118V21.3854C104.891 22.0329 105.367 22.3566 106.014 22.3566C106.492 22.3566 106.864 22.1604 107.13 21.7682C107.396 21.3759 107.529 20.7856 107.529 19.9972ZM111.632 21.5911L112.991 16.9579H114.058L111.713 24.0933C111.35 25.1216 110.773 25.6358 109.982 25.6358L109.794 25.6187L109.422 25.5444V24.6874L109.691 24.7103C110.029 24.7103 110.291 24.6379 110.478 24.4932C110.669 24.3485 110.825 24.0838 110.947 23.6991L111.168 23.0707L109.087 16.9579H110.176L111.632 21.5911Z" fill="black" fill-opacity="0.38"/>
<path d="M157.036 21.1465C157.036 21.1465 156.908 20.6752 156.908 20.3258V14.8648H159.096V25.3845L152.093 19.5853C151.718 19.2663 151.497 18.9105 151.497 18.9105C151.497 18.9105 151.607 19.3016 151.607 19.6414L151.604 25.1457H149.416V14.666L156.355 20.3499C156.727 20.6672 157.036 21.1465 157.036 21.1465Z" fill="black" fill-opacity="0.38"/>
<path d="M176.843 14.8535C180.309 14.8535 181.197 16.2208 181.197 18.1859C181.197 19.6109 180.148 21.0038 178.034 21.1705L177.803 21.1817C177.803 21.1817 178.007 21.2186 178.22 21.4238L182.059 25.136H179.092L173.735 19.6958H176.404C178.792 19.6958 178.861 18.436 178.879 18.117C178.924 17.3011 178.663 16.6471 176.838 16.6471H173.788V25.1344H171.514V14.8535H176.843Z" fill="black" fill-opacity="0.38"/>
<path d="M160.078 20.1437C160.078 15.8351 163.685 14.7051 166.714 14.7051C167.927 14.7051 169.003 14.8125 170.131 15.0529L170.135 17.236C169.484 17.0373 168.178 16.5981 166.712 16.5981C163.84 16.5981 162.444 17.7137 162.444 20.1421C162.444 22.1313 163.947 23.3991 166.712 23.3991C168.178 23.3991 169.646 23.0513 170.356 22.7884L170.353 24.9075C169.223 25.1463 167.927 25.2938 166.714 25.2938C163.478 25.2954 160.078 23.7213 160.078 20.1437Z" fill="black" fill-opacity="0.38"/>
<path d="M135.462 15.1191L137.596 17.1292C137.538 17.1548 137.471 17.1869 137.392 17.2269C137.27 17.2911 137.121 17.376 136.945 17.4978C136.594 17.7415 136.134 18.1262 135.549 18.7593L131.38 23.1704C130.665 23.9254 129.939 24.5233 129.262 24.8407L127.129 22.8306C127.187 22.8034 127.254 22.7729 127.332 22.7313C127.456 22.6687 127.603 22.5822 127.78 22.4604C128.131 22.2183 128.591 21.8336 129.176 21.2005L133.345 16.7958C134.06 16.0408 134.786 15.4349 135.462 15.1191Z" fill="black" fill-opacity="0.38"/>
<path d="M127.205 25.7856C128.149 25.7856 129.014 25.5981 129.603 25.2936C129.872 25.1525 130.255 24.9105 130.585 24.6556C130.914 24.3991 131.379 24 131.775 23.5801L135.948 19.1801C137 18.0709 137.633 17.7295 138.016 17.5949L140.158 19.6225C139.71 20.1002 134.382 25.776 134.382 25.776C134.019 26.1687 133.635 26.547 133.376 26.7858C133.126 27.0167 132.698 27.3597 132.477 27.5216C131.223 28.44 129.55 29.1854 127.296 29.1854C122.189 29.1854 118.059 25.0275 118.059 20.2412C118.059 14.3025 122.697 10.8579 126.924 10.8579C128.219 10.8195 129.258 11.0375 130.079 11.3164C130.838 11.5744 131.412 11.887 131.827 12.1002C131.337 12.4159 130.861 12.8439 130.075 13.6838L129.22 14.6023C129.022 14.5269 128.147 14.2224 127.025 14.2561C124.315 14.3362 121.349 16.5354 121.457 20.1387C121.556 23.5063 124.336 25.7856 127.205 25.7856Z" fill="black" fill-opacity="0.38"/>
<path d="M135.096 14.7015C134.827 14.8409 134.442 15.0829 134.112 15.3394C133.783 15.5959 133.318 15.995 132.923 16.4133L128.75 20.8133C127.697 21.9225 127.064 22.2639 126.681 22.3985L124.541 20.3725C124.988 19.8948 130.316 14.2206 130.316 14.2206C130.68 13.8295 131.063 13.4512 131.323 13.2108C131.573 12.98 132.001 12.6385 132.222 12.4766C133.474 11.5582 135.151 10.8145 137.404 10.8145C142.511 10.8145 146.64 14.9707 146.64 19.757C146.64 25.6973 142.001 29.1402 137.774 29.1402C136.479 29.1787 135.441 28.9607 134.618 28.6818C133.857 28.4238 133.282 28.1096 132.866 27.898C133.386 27.5486 133.831 27.1623 134.622 26.3192L135.478 25.3991C135.675 25.4728 136.55 25.779 137.672 25.7453C140.382 25.6652 143.349 23.466 143.242 19.8611C143.143 16.4903 140.362 14.211 137.494 14.211C136.548 14.2094 135.684 14.3953 135.096 14.7015Z" fill="black" fill-opacity="0.38"/>
</svg>
