<svg width="142" height="122" viewBox="0 0 142 122" fill="none" xmlns="http://www.w3.org/2000/svg">
<g clip-path="url(#clip0_2321_74171)">
<path d="M10.0345 87.5064L0.0664062 81.7699V60.4531L10.0345 66.1931V87.5064Z" fill="#E0E0E0"/>
<path d="M10.0352 66.1935L24.2772 57.9961V79.3094L10.0352 87.5068V66.1935Z" fill="#EEEEEE"/>
<path d="M24.2765 57.9938L10.0345 66.1913L0.0664062 60.4513L14.3085 52.2539L24.2765 57.9938Z" fill="#F5F5F5"/>
<path d="M11.4605 67.0111L22.8521 60.4531L23.1151 60.6034V68.5002L11.72 75.0582L11.457 74.9079L11.4605 67.0111Z" fill="#E0E0E0"/>
<path d="M11.7227 67.163L23.1177 60.6016V68.4984L11.7227 75.0563V67.163Z" fill="#F5F5F5"/>
<path d="M16.1863 65.9276L18.1252 64.8125C18.3741 64.6657 18.5775 64.7321 18.5775 64.9593C18.5594 65.0985 18.5092 65.2315 18.4307 65.348C18.3522 65.4645 18.2476 65.5612 18.1252 65.6305L16.1863 66.7456C15.9338 66.8924 15.7305 66.826 15.7305 66.5988C15.7486 66.4592 15.7993 66.3258 15.8785 66.2093C15.9576 66.0927 16.063 65.9963 16.1863 65.9276Z" fill="#E0E0E0"/>
<path d="M11.1992 76.9993L22.5908 70.4414V78.3382L22.8537 78.4885L11.4587 85.0464L11.1992 84.8961V76.9993Z" fill="#E0E0E0"/>
<path d="M11.457 77.1517L22.8521 70.5938V78.4905L11.457 85.0485V77.1517Z" fill="#F5F5F5"/>
<path d="M15.9266 75.9202L17.883 74.8086C18.1354 74.6618 18.3388 74.7282 18.3388 74.9554C18.3206 75.095 18.2699 75.2284 18.1908 75.3449C18.1116 75.4615 18.0062 75.5579 17.883 75.6266L15.9441 76.7417C15.6916 76.8885 15.4883 76.8221 15.4883 76.5949C15.504 76.4563 15.5518 76.3232 15.6279 76.2062C15.7039 76.0891 15.8062 75.9912 15.9266 75.9202Z" fill="#E0E0E0"/>
<path d="M10.0345 64.9595L0.0664062 59.2195V37.9062L10.0345 43.6427V64.9595Z" fill="#E0E0E0"/>
<path d="M10.0352 43.6466L24.2772 35.4492V56.766L10.0352 64.9634V43.6466Z" fill="#EEEEEE"/>
<path d="M24.2765 35.4474L10.0345 43.6448L0.0664062 37.9084L14.3085 29.7109L24.2765 35.4474Z" fill="#F5F5F5"/>
<path d="M11.457 44.4642L22.8521 37.9062L23.1151 38.0566V45.9534L11.72 52.5113L11.457 52.3575V44.4642Z" fill="#E0E0E0"/>
<path d="M16.1863 43.3821L18.1217 42.2669C18.3741 42.1236 18.5775 42.19 18.5775 42.4173C18.5588 42.5567 18.5079 42.6898 18.4288 42.8063C18.3497 42.9228 18.2446 43.0193 18.1217 43.0884L16.1863 44.2036C15.9338 44.3469 15.7305 44.284 15.7305 44.0567C15.7489 43.9168 15.7997 43.783 15.8788 43.666C15.9579 43.5489 16.0631 43.4517 16.1863 43.3821Z" fill="#E0E0E0"/>
<path d="M11.1992 54.4564L22.5908 47.8984V55.7917L22.8537 55.942L11.4587 62.5L11.1992 62.3497V54.4564Z" fill="#E0E0E0"/>
<path d="M11.457 54.6087L22.8521 48.0508V55.9441L11.457 62.502V54.6087Z" fill="#F5F5F5"/>
<path d="M15.9246 53.3743L17.881 52.2591C18.1299 52.1158 18.3368 52.1822 18.3368 52.4094C18.3171 52.5485 18.2657 52.6813 18.1868 52.7976C18.1078 52.9139 18.0032 53.0107 17.881 53.0806L15.9246 54.1853C15.6721 54.3286 15.4688 54.2622 15.4688 54.0384C15.4887 53.9004 15.5402 53.7687 15.6192 53.6535C15.6982 53.5384 15.8027 53.4428 15.9246 53.3743Z" fill="#E0E0E0"/>
<path d="M11.457 44.4642L22.8521 37.9062V45.7995L11.457 52.3575V44.4642Z" fill="#E0E0E0"/>
<path d="M28.55 41.8088L22.3125 38.2188V45.1752L28.55 48.7618V41.8088Z" fill="#E0E0E0"/>
<path d="M15.7305 53.4854V43.645L18.1743 42.2328L18.5775 42.827L25.6985 38.7266V47.7455L15.7305 53.4854Z" fill="#EEEEEE"/>
<path d="M15.7305 53.4831L16.4422 44.8732L26.4103 39.1367L25.6985 47.7431L15.7305 53.4831Z" fill="#F5F5F5"/>
<path d="M17.1572 48.3669L11.7227 45.2383V52.1947L17.1572 55.3199V48.3669Z" fill="#EEEEEE"/>
<path d="M17.1562 47.7454L28.5513 41.1875V49.0808L17.1562 55.6387V47.7454Z" fill="#F5F5F5"/>
<path d="M21.6238 46.511L23.5592 45.3958C23.8116 45.2525 24.015 45.3189 24.015 45.5462C23.996 45.6855 23.945 45.8186 23.8659 45.935C23.7869 46.0514 23.6819 46.148 23.5592 46.2173L21.6238 47.3325C21.3713 47.4758 21.168 47.4094 21.168 47.1856C21.1864 47.0457 21.2372 46.9119 21.3163 46.7949C21.3954 46.6778 21.5006 46.5806 21.6238 46.511Z" fill="#E0E0E0"/>
<path d="M17.1554 47.7441L16.7773 47.5273V55.4206L17.1554 55.6374V47.7441Z" fill="#E0E0E0"/>
<path d="M16.7773 47.5302L28.1689 40.9688L28.5511 41.189L17.156 47.7469L16.7773 47.5302Z" fill="#EEEEEE"/>
<path d="M127.8 74.5923L117.828 68.8524V47.5391L127.8 53.2755V74.5923Z" fill="#E0E0E0"/>
<path d="M127.801 53.2755L142.043 45.0781V66.3949L127.801 74.5923V53.2755Z" fill="#EEEEEE"/>
<path d="M142.042 45.0759L127.8 53.2733L117.828 47.5369L132.074 39.3359L142.042 45.0759Z" fill="#F5F5F5"/>
<path d="M129.223 54.097L140.618 47.5391L140.881 47.6894L140.877 55.5827L129.486 62.1406L129.223 61.9903V54.097Z" fill="#E0E0E0"/>
<path d="M129.488 54.2454L140.883 47.6875L140.88 55.5808L129.488 62.1387V54.2454Z" fill="#F5F5F5"/>
<path d="M133.952 53.015L135.887 51.8999C136.14 51.7566 136.343 51.823 136.343 52.0467C136.325 52.1867 136.274 52.3204 136.195 52.4375C136.116 52.5546 136.01 52.6518 135.887 52.7214L133.952 53.8365C133.699 53.9799 133.496 53.9134 133.496 53.6897C133.515 53.5498 133.565 53.416 133.644 53.2989C133.723 53.1819 133.829 53.0847 133.952 53.015Z" fill="#E0E0E0"/>
<path d="M128.961 64.0888L140.356 57.5273V65.4241L140.619 65.5745L129.224 72.1324L128.961 71.9821V64.0888Z" fill="#E0E0E0"/>
<path d="M129.223 64.2376L140.618 57.6797V65.573L129.223 72.1309V64.2376Z" fill="#F5F5F5"/>
<path d="M133.69 63.0033L135.629 61.8882C135.878 61.7449 136.081 61.8113 136.081 62.035C136.063 62.1745 136.012 62.3078 135.934 62.4248C135.856 62.5418 135.751 62.6392 135.629 62.7097L133.69 63.8248C133.438 63.9681 133.234 63.9017 133.234 63.6745C133.253 63.5352 133.304 63.4021 133.383 63.2857C133.462 63.1692 133.567 63.0726 133.69 63.0033Z" fill="#E0E0E0"/>
<path d="M32.8242 44.8267V98.9332L88.369 66.9615L88.3655 17.7734L47.0663 41.5477L45.6393 37.4472L32.8242 44.8267Z" fill="#B3B3B5"/>
<path opacity="0.7" d="M32.8242 44.8267V98.9332L88.369 66.9615L88.3655 17.7734L47.0663 41.5477L45.6393 37.4472L32.8242 44.8267Z" fill="#1E1E1E"/>
<path d="M32.8242 98.9332L35.6712 49.7451L91.216 17.7734L88.369 66.9615L32.8242 98.9332Z" fill="#E0E0E0"/>
<path d="M32.8242 98.9316L37.0947 50.565L92.6395 18.5898L88.369 66.9599L32.8242 98.9316Z" fill="#B3B3B5"/>
<path opacity="0.7" d="M32.8242 98.9316L37.0947 50.565L92.6395 18.5898L88.369 66.9599L32.8242 98.9316Z" fill="#1E1E1E"/>
<path d="M41.3711 49.7446V103.855L96.9159 71.8794V22.6914L55.6132 46.4657L54.1897 42.3652L41.3711 49.7446Z" fill="#B3B3B5"/>
<path opacity="0.5" d="M41.3711 49.7446V103.855L96.9159 71.8794V22.6914L55.6132 46.4657L54.1897 42.3652L41.3711 49.7446Z" fill="#1E1E1E"/>
<path d="M41.3711 103.855L44.2181 54.6631L99.7629 22.6914L96.9159 71.8794L41.3711 103.855Z" fill="#E0E0E0"/>
<path d="M41.3711 103.853L45.6416 55.483L101.186 23.5078L96.9159 71.8778L41.3711 103.853Z" fill="#B3B3B5"/>
<path opacity="0.5" d="M41.3711 103.853L45.6416 55.483L101.186 23.5078L96.9159 71.8778L41.3711 103.853Z" fill="#1E1E1E"/>
<path d="M88.3524 121.073C78.3809 115.333 69.1316 109.093 64.9102 101.773L77.7427 94.3867L88.3524 121.073Z" fill="#E0E0E0"/>
<path d="M51.3359 55.4868V109.593L106.881 77.6216V28.4336L65.578 52.2079L64.1545 48.1074L51.3359 55.4868Z" fill="#B3B3B5"/>
<path opacity="0.2" d="M51.3359 55.4868V109.593L106.881 77.6216V28.4336L65.578 52.2079L64.1545 48.1074L51.3359 55.4868Z" fill="#1E1E1E"/>
<path d="M67.3371 71.4834C67.1968 71.4834 67.1758 71.3226 67.1758 71.2282V25.085C67.187 24.906 67.2398 24.732 67.3298 24.5767C67.4198 24.4215 67.5447 24.2891 67.6947 24.1901L107.784 1.11843C107.839 1.08429 107.902 1.06501 107.967 1.0625C108.107 1.0625 108.128 1.2233 108.128 1.31769V47.461C108.117 47.6405 108.064 47.8151 107.974 47.9709C107.884 48.1268 107.759 48.2598 107.609 48.3594L67.5194 71.431C67.464 71.4635 67.4013 71.4815 67.3371 71.4834Z" fill="white"/>
<path d="M107.945 1.22113C107.948 1.24669 107.948 1.27248 107.945 1.29804V47.4413C107.934 47.5901 107.889 47.7345 107.815 47.8639C107.74 47.9933 107.637 48.1045 107.514 48.1894L67.4246 71.261L67.3545 71.2925C67.3498 71.2671 67.3498 71.241 67.3545 71.2156V25.0723C67.3666 24.9241 67.4115 24.7804 67.4861 24.6516C67.5607 24.5228 67.663 24.4122 67.7858 24.3277L107.875 1.25609C107.897 1.24067 107.923 1.22996 107.949 1.22463M107.97 0.875056C107.875 0.87789 107.781 0.905611 107.7 0.955458L67.6105 24.0271C67.4342 24.1425 67.2876 24.2975 67.1822 24.4796C67.0769 24.6617 67.0158 24.8659 67.0039 25.0758V71.2191C67.0039 71.4917 67.1406 71.649 67.3545 71.649C67.4501 71.6465 67.5432 71.6188 67.6245 71.5686L107.714 48.497C107.891 48.3824 108.038 48.2276 108.144 48.0453C108.249 47.863 108.31 47.6584 108.321 47.4483V1.30503C108.321 1.03236 108.184 0.87156 107.97 0.875056Z" fill="#B3B3B5"/>
<path opacity="0.4" d="M107.945 1.22113C107.948 1.24669 107.948 1.27248 107.945 1.29804V47.4413C107.934 47.5901 107.889 47.7345 107.815 47.8639C107.74 47.9933 107.637 48.1045 107.514 48.1894L67.4246 71.261L67.3545 71.2925C67.3498 71.2671 67.3498 71.241 67.3545 71.2156V25.0723C67.3666 24.9241 67.4115 24.7804 67.4861 24.6516C67.5607 24.5228 67.663 24.4122 67.7858 24.3277L107.875 1.25609C107.897 1.24067 107.923 1.22996 107.949 1.22463M107.97 0.875056C107.875 0.87789 107.781 0.905611 107.7 0.955458L67.6105 24.0271C67.4342 24.1425 67.2876 24.2975 67.1822 24.4796C67.0769 24.6617 67.0158 24.8659 67.0039 25.0758V71.2191C67.0039 71.4917 67.1406 71.649 67.3545 71.649C67.4501 71.6465 67.5432 71.6188 67.6245 71.5686L107.714 48.497C107.891 48.3824 108.038 48.2276 108.144 48.0453C108.249 47.863 108.31 47.6584 108.321 47.4483V1.30503C108.321 1.03236 108.184 0.87156 107.97 0.875056Z" fill="white"/>
<path d="M71.2773 26.8341L85.5194 18.6367V35.0316L71.2773 43.229V26.8341Z" fill="#B3B3B5"/>
<path opacity="0.4" d="M71.2773 26.8341L85.5194 18.6367V35.0316L71.2773 43.229V26.8341Z" fill="white"/>
<path d="M83.3825 22.7227V27.6516L82.9337 27.8998V26.3931C82.9337 25.5612 82.257 25.278 81.4155 25.7604L75.3814 29.2386C74.5435 29.7211 73.8633 30.7872 73.8633 31.6192V33.1259L73.418 33.3915V28.4731L83.3825 22.7227Z" fill="white"/>
<path d="M80.6426 35.2736C79.9133 35.6931 79.3207 35.2526 79.3207 34.2843V26.3945L77.487 27.3873V35.34C77.487 36.3048 76.8945 37.4375 76.1652 37.8464L74.8398 38.6085V39.1329L81.9609 35.0324V34.5116L80.6426 35.2736Z" fill="white"/>
<path d="M88.3555 17.8276C88.3555 18.282 88.7657 18.4114 89.2671 18.1247L103.123 10.137C103.369 9.99809 103.58 9.80428 103.738 9.57079C103.896 9.33729 103.998 9.07046 104.035 8.79118C104.035 8.34024 103.625 8.2074 103.123 8.49754L89.2776 16.4677C89.0277 16.6064 88.814 16.8017 88.6538 17.038C88.4936 17.2742 88.3914 17.5447 88.3555 17.8276Z" fill="#8C8C8C"/>
<path d="M88.3555 22.7242C88.3555 23.1786 88.7657 23.3114 89.2671 23.0213L103.113 15.0511C103.359 14.9122 103.569 14.7183 103.727 14.4849C103.885 14.2514 103.987 13.9845 104.025 13.7052C104.025 13.2543 103.614 13.1215 103.113 13.4116L89.2671 21.3818C89.0217 21.5204 88.8117 21.7137 88.6535 21.9465C88.4954 22.1794 88.3934 22.4455 88.3555 22.7242Z" fill="#8C8C8C"/>
<path d="M88.3555 27.6537C88.3555 28.1081 88.7657 28.241 89.2671 27.9508L103.113 19.9806C103.358 19.842 103.568 19.6488 103.726 19.4159C103.885 19.1831 103.987 18.9169 104.025 18.6383C104.025 18.1838 103.614 18.051 103.113 18.3411L89.2671 26.3113C89.0217 26.4499 88.8117 26.6432 88.6535 26.876C88.4954 27.1089 88.3934 27.375 88.3555 27.6537Z" fill="#8C8C8C"/>
<path d="M88.3555 32.5717C88.3555 33.0261 88.7657 33.1589 89.2671 32.8688L103.113 24.8986C103.358 24.76 103.568 24.5667 103.726 24.3339C103.885 24.101 103.987 23.8349 104.025 23.5562C104.025 23.1018 103.614 22.969 103.113 23.2591L89.2671 31.2293C89.0217 31.3679 88.8117 31.5612 88.6535 31.794C88.4954 32.0269 88.3934 32.293 88.3555 32.5717Z" fill="#8C8C8C"/>
<path d="M71.2773 47.3303C71.2773 47.7848 71.6841 47.9176 72.189 47.6275L103.124 29.7994C103.37 29.6612 103.58 29.4681 103.738 29.2351C103.896 29.0022 103.998 28.7358 104.036 28.457C104.036 28.0026 103.625 27.8733 103.124 28.1599L72.189 45.988C71.943 46.1259 71.7326 46.319 71.5744 46.552C71.4162 46.785 71.3145 47.0514 71.2773 47.3303Z" fill="#8C8C8C"/>
<path d="M71.2773 52.2486C71.2773 52.703 71.6841 52.8358 72.189 52.5457L103.124 34.7386C103.37 34.5997 103.58 34.4058 103.738 34.1724C103.896 33.9389 103.998 33.672 104.036 33.3927C104.036 32.9418 103.625 32.809 103.124 33.0991L72.189 50.9062C71.943 51.0442 71.7326 51.2373 71.5744 51.4702C71.4162 51.7032 71.3145 51.9697 71.2773 52.2486Z" fill="#8C8C8C"/>
<path d="M71.2773 57.17C71.2773 57.621 71.6841 57.7538 72.189 57.4637L103.124 39.6566C103.37 39.5176 103.58 39.3238 103.738 39.0903C103.896 38.8568 103.998 38.59 104.036 38.3107C104.036 37.8598 103.625 37.7269 103.124 38.0171L72.189 55.8242C71.9426 55.9625 71.7319 56.1561 71.5737 56.3897C71.4154 56.6233 71.314 56.8905 71.2773 57.17Z" fill="#8C8C8C"/>
<path d="M51.3359 109.591L61.304 66.1432L116.849 34.168L106.881 77.6195L51.3359 109.591Z" fill="#B3B3B5"/>
<path d="M64.9258 69.5439V101.771L77.7443 94.3913V62.168L64.9258 69.5439Z" fill="#B3B3B5"/>
<path opacity="0.2" d="M64.9258 69.5439V101.771L77.7443 94.3913V62.168L64.9258 69.5439Z" fill="#1E1E1E"/>
<path d="M88.3792 120.863C87.2888 120.052 76.7773 112.044 71.4339 100.588C65.7469 88.4091 65.7539 74.2026 65.7539 68.8576V68.6898L103.859 46.7578C103.859 52.1517 103.859 66.3792 109.571 78.6002C114.791 89.7864 124.9 97.6937 126.502 98.9032L88.3792 120.863Z" fill="white"/>
<path d="M103.682 47.0688C103.682 52.6899 103.79 66.6447 109.411 78.6839C114.456 89.4856 124.049 97.2531 126.184 98.8926L88.3878 120.65C86.9117 119.542 76.7964 111.666 71.5932 100.525C65.9132 88.381 65.9132 74.2024 65.9132 68.8645V68.7981L103.668 47.0653M104.018 46.4605L65.5626 68.5988C65.5626 73.6291 65.4574 88.2447 71.2602 100.672C76.9717 112.868 88.3528 121.069 88.3528 121.069L126.819 98.9275C126.819 98.9275 115.424 90.7266 109.73 78.5301C103.924 66.1029 104.032 51.4873 104.032 46.457L104.018 46.4605Z" fill="#B3B3B5"/>
<path opacity="0.4" d="M103.682 47.0688C103.682 52.6899 103.79 66.6447 109.411 78.6839C114.456 89.4856 124.049 97.2531 126.184 98.8926L88.3878 120.65C86.9117 119.542 76.7964 111.666 71.5932 100.525C65.9132 88.381 65.9132 74.2024 65.9132 68.8645V68.7981L103.668 47.0653M104.018 46.4605L65.5626 68.5988C65.5626 73.6291 65.4574 88.2447 71.2602 100.672C76.9717 112.868 88.3528 121.069 88.3528 121.069L126.819 98.9275C126.819 98.9275 115.424 90.7266 109.73 78.5301C103.924 66.1029 104.032 51.4873 104.032 46.457L104.018 46.4605Z" fill="white"/>
<path d="M99.6836 53.8897L87.5242 60.8812C87.2808 61.0147 87.0733 61.2049 86.9195 61.4356C86.7657 61.6663 86.67 61.9306 86.6406 62.206C86.6582 62.65 87.0824 62.7758 87.5838 62.4857L99.7467 55.4943C99.9872 55.362 100.193 55.1743 100.346 54.9469C100.499 54.7195 100.595 54.4589 100.627 54.1869C100.606 53.7255 100.188 53.5996 99.6836 53.8897Z" fill="#8C8C8C"/>
<path d="M99.9415 58.6592L87.7821 65.6507C87.5416 65.7796 87.3377 65.9671 87.1894 66.1957C87.041 66.4242 86.953 66.6865 86.9336 66.958C86.9722 67.388 87.4139 67.5034 87.9153 67.2132L100.078 60.2218C100.318 60.0934 100.52 59.9063 100.667 59.6782C100.813 59.45 100.899 59.1884 100.916 58.9179C100.881 58.4845 100.446 58.3796 99.9415 58.6592Z" fill="#8C8C8C"/>
<path d="M100.429 63.2987L88.2659 70.2901C87.7645 70.5803 87.3999 71.157 87.4595 71.573C87.5191 71.989 87.9784 72.0974 88.4833 71.8072L100.646 64.8158C101.148 64.5257 101.505 63.9524 101.442 63.5364C101.379 63.1204 100.93 63.0086 100.429 63.2987Z" fill="#8C8C8C"/>
<path d="M101.159 67.7973L88.9957 74.7887C88.4943 75.0788 88.1472 75.6451 88.2313 76.0506C88.3155 76.4561 88.7923 76.547 89.2832 76.2569L101.443 69.2655C101.947 68.9753 102.284 68.4125 102.2 68.007C102.116 67.6015 101.678 67.5071 101.159 67.7973Z" fill="#8C8C8C"/>
<path d="M102.149 72.1455L89.9863 79.1369C89.4849 79.4271 89.1588 79.9794 89.285 80.3674C89.4113 80.7555 89.8916 80.8428 90.393 80.5527L102.556 73.5613C103.061 73.2712 103.376 72.7223 103.257 72.3308C103.138 71.9393 102.651 71.8554 102.149 72.1455Z" fill="#8C8C8C"/>
<path d="M103.43 76.3365L73.7883 93.399C73.287 93.6892 72.9819 94.2275 73.1187 94.6016C73.2554 94.9756 73.7778 95.0455 74.2792 94.7554L103.92 77.6928C104.425 77.4027 104.716 76.8679 104.58 76.4903C104.443 76.1128 103.913 76.0464 103.43 76.3365Z" fill="#8C8C8C"/>
<path d="M104.992 80.3407L75.3543 97.4032C74.8494 97.6934 74.5724 98.2177 74.7407 98.5743C74.909 98.9309 75.4419 98.9868 75.9538 98.6966L105.595 81.6341C106.1 81.344 106.37 80.8196 106.202 80.4631C106.033 80.1065 105.497 80.0541 104.992 80.3407Z" fill="#8C8C8C"/>
<path d="M106.936 84.1541L77.2949 101.217C76.79 101.507 76.5411 102.017 76.7409 102.356C76.9408 102.695 77.5123 102.73 78.0172 102.44L107.637 85.3776C108.139 85.0909 108.381 84.584 108.181 84.245C107.981 83.9059 107.427 83.8639 106.936 84.1541Z" fill="#8C8C8C"/>
<path d="M109.205 87.761L79.567 104.82C79.0621 105.11 78.8378 105.61 79.0657 105.928C79.2936 106.246 79.8931 106.278 80.398 105.984L110.036 88.9216C110.541 88.6315 110.758 88.1386 110.53 87.817C110.302 87.4954 109.71 87.4709 109.205 87.761Z" fill="#8C8C8C"/>
<path d="M111.793 91.1914L82.1517 108.25C81.6504 108.541 81.4505 109.027 81.703 109.331C81.9554 109.635 82.576 109.649 83.0809 109.359L112.722 92.2891C113.223 91.9989 113.423 91.52 113.164 91.2159C112.904 90.9118 112.298 90.8908 111.793 91.1914Z" fill="#8C8C8C"/>
<path d="M114.652 94.4563L85.0212 111.515C84.5163 111.806 84.32 112.281 84.6145 112.564C84.909 112.847 85.5331 112.854 86.0345 112.564L115.676 95.5016C116.181 95.2114 116.356 94.743 116.075 94.4528C115.795 94.1627 115.164 94.1697 114.652 94.4563Z" fill="#8C8C8C"/>
<path d="M117.805 97.5759L88.1639 114.635C87.6626 114.925 87.4978 115.39 87.8133 115.666C88.1289 115.942 88.774 115.932 89.2789 115.642L118.896 98.5792C119.397 98.289 119.555 97.8346 119.246 97.5549C118.938 97.2753 118.296 97.2857 117.805 97.5759Z" fill="#8C8C8C"/>
<path d="M83.1154 63.4258L69.1328 71.4659C69.2871 76.5172 69.8656 83.8022 71.9833 91.1397L85.9695 83.0996C83.8482 75.7621 83.2697 68.4736 83.1154 63.4258Z" fill="#B3B3B5"/>
<path opacity="0.4" d="M83.1154 63.4258L69.1328 71.4659C69.2871 76.5172 69.8656 83.8022 71.9833 91.1397L85.9695 83.0996C83.8482 75.7621 83.2697 68.4736 83.1154 63.4258Z" fill="white"/>
<path d="M74.8339 70.3548C74.8527 70.0287 74.8018 69.7024 74.6846 69.3974C74.5673 69.0925 74.3863 68.8159 74.1537 68.5859L69.1328 71.4734C69.1749 72.8087 69.245 74.3014 69.3677 75.9094C70.0208 75.9843 70.6815 75.8626 71.2646 75.5599C73.2385 74.658 74.8339 72.3193 74.8339 70.3548Z" fill="#B3B3B5"/>
<path opacity="0.8" d="M74.8339 70.3548C74.8527 70.0287 74.8018 69.7024 74.6846 69.3974C74.5673 69.0925 74.3863 68.8159 74.1537 68.5859L69.1328 71.4734C69.1749 72.8087 69.245 74.3014 69.3677 75.9094C70.0208 75.9843 70.6815 75.8626 71.2646 75.5599C73.2385 74.658 74.8339 72.3193 74.8339 70.3548Z" fill="white"/>
<path d="M84.7797 78.2754C83.8471 77.1043 81.9502 73.4863 81.1403 71.9097C81.1085 71.8474 81.0586 71.796 80.9972 71.7622C80.9358 71.7285 80.8656 71.7138 80.7958 71.7202C80.7259 71.7266 80.6596 71.7538 80.6054 71.7981C80.5512 71.8425 80.5116 71.9021 80.4916 71.9691C79.6154 74.9553 79.1068 78.0367 78.977 81.1453C77.8092 80.2211 76.8054 79.108 76.0073 77.8524C75.9732 77.8037 75.926 77.7658 75.871 77.743C75.8161 77.7203 75.7558 77.7137 75.6972 77.724C75.6386 77.7342 75.5842 77.761 75.5404 77.8011C75.4965 77.8412 75.4651 77.893 75.4498 77.9503C73.9211 83.8195 74.6889 89.5944 74.6889 89.5944L85.9683 83.0994C85.4985 81.4774 85.1093 79.8624 84.7797 78.2754Z" fill="#B3B3B5"/>
<path opacity="0.8" d="M84.7797 78.2754C83.8471 77.1043 81.9502 73.4863 81.1403 71.9097C81.1085 71.8474 81.0586 71.796 80.9972 71.7622C80.9358 71.7285 80.8656 71.7138 80.7958 71.7202C80.7259 71.7266 80.6596 71.7538 80.6054 71.7981C80.5512 71.8425 80.5116 71.9021 80.4916 71.9691C79.6154 74.9553 79.1068 78.0367 78.977 81.1453C77.8092 80.2211 76.8054 79.108 76.0073 77.8524C75.9732 77.8037 75.926 77.7658 75.871 77.743C75.8161 77.7203 75.7558 77.7137 75.6972 77.724C75.6386 77.7342 75.5842 77.761 75.5404 77.8011C75.4965 77.8412 75.4651 77.893 75.4498 77.9503C73.9211 83.8195 74.6889 89.5944 74.6889 89.5944L85.9683 83.0994C85.4985 81.4774 85.1093 79.8624 84.7797 78.2754Z" fill="white"/>
</g>
<defs>
<clipPath id="clip0_2321_74171">
<rect width="142" height="122" fill="white"/>
</clipPath>
</defs>
</svg>
