<svg
                                        width="100"
                                        height="100"
                                        viewBox="0 0 100 100"
                                        fill="none"
                                        xmlns="http://www.w3.org/2000/svg"
                                    >
                                        <path
                                            d="M97.6562 26.5625H81.25V17.1875H97.6562C97.8635 17.1875 98.0622 17.1052 98.2087 16.9587C98.3552 16.8122 98.4375 16.6135 98.4375 16.4062V9.375C98.4375 6.8886 97.4498 4.50403 95.6916 2.74587C93.9335 0.98772 91.5489 0 89.0625 0L26.5625 0C24.0761 0 21.6915 0.98772 19.9334 2.74587C18.1752 4.50403 17.1875 6.8886 17.1875 9.375V26.5625H10.1562C9.94905 26.5625 9.75034 26.6448 9.60382 26.7913C9.45731 26.9378 9.375 27.1365 9.375 27.3438V39.8438H2.34375C2.13655 39.8438 1.93784 39.9261 1.79132 40.0726C1.64481 40.2191 1.5625 40.4178 1.5625 40.625V93.8984C1.56867 95.5148 2.2135 97.0631 3.35643 98.2061C4.49936 99.349 6.04773 99.9938 7.66406 100H92.1875C93.8451 100 95.4348 99.3415 96.6069 98.1694C97.779 96.9973 98.4375 95.4076 98.4375 93.75V27.3438C98.4375 27.1365 98.3552 26.9378 98.2087 26.7913C98.0622 26.6448 97.8635 26.5625 97.6562 26.5625ZM96.875 9.375V15.625H81.25V9.375C81.25 7.303 82.0731 5.31586 83.5382 3.85073C85.0034 2.3856 86.9905 1.5625 89.0625 1.5625C91.1345 1.5625 93.1216 2.3856 94.5868 3.85073C96.0519 5.31586 96.875 7.303 96.875 9.375ZM26.5625 1.5625C86.5703 1.5625 83.9375 1.5625 83.8594 1.5625C82.2206 2.66329 80.969 4.25104 80.2813 6.10156C79.5 8.26562 79.6875 5.9375 79.6875 47.6172H30.1016L24.875 40.1484C24.5469 39.6875 24.7422 39.8047 18.75 39.8047V9.375C18.75 7.303 19.5731 5.31586 21.0382 3.85073C22.5034 2.3856 24.4905 1.5625 26.5625 1.5625ZM10.9375 28.125H17.1875V39.8438H10.9375V28.125ZM7.66406 98.4375C7.0677 98.4385 6.47699 98.3218 5.92582 98.0941C5.37465 97.8663 4.87386 97.532 4.45217 97.1103C4.03047 96.6886 3.69616 96.1878 3.46842 95.6367C3.24067 95.0855 3.12397 94.4948 3.125 93.8984V41.4062H23.8047L29.0312 48.875C29.3984 49.4063 25.9453 49.2188 85.9219 49.2188V93.75C85.9181 94.6344 86.1021 95.5096 86.4617 96.3177C86.8213 97.1257 87.3482 97.8482 88.0078 98.4375H7.66406ZM96.875 93.75C96.875 99.6953 87.5 100.367 87.5 93.2656V48.4375C87.5 48.2303 87.4177 48.0316 87.2712 47.8851C87.1247 47.7386 86.926 47.6562 86.7188 47.6562H81.25V28.125H96.875V93.75Z"
                                            fill="#BDBDBD"
                                        />
                                        <path
                                            d="M44.5313 54.6875C40.8229 54.6875 37.1977 55.7872 34.1143 57.8474C31.0309 59.9077 28.6277 62.8361 27.2085 66.2622C25.7894 69.6883 25.4181 73.4583 26.1415 77.0954C26.865 80.7326 28.6508 84.0735 31.273 86.6958C33.8952 89.318 37.2362 91.1038 40.8733 91.8272C44.5105 92.5507 48.2805 92.1794 51.7066 90.7602C55.1327 89.3411 58.061 86.9379 60.1213 83.8544C62.1816 80.771 63.2813 77.1459 63.2813 73.4375C63.2813 68.4647 61.3058 63.6956 57.7895 60.1792C54.2732 56.6629 49.5041 54.6875 44.5313 54.6875ZM44.5313 90.625C41.1319 90.625 37.8089 89.617 34.9824 87.7284C32.1559 85.8398 29.953 83.1555 28.6521 80.0149C27.3512 76.8743 27.0108 73.4184 27.674 70.0844C28.3372 66.7503 29.9741 63.6878 32.3779 61.2841C34.7816 58.8804 37.8441 57.2434 41.1781 56.5803C44.5122 55.9171 47.968 56.2574 51.1086 57.5583C54.2492 58.8592 56.9336 61.0622 58.8221 63.8886C60.7107 66.7151 61.7188 70.0381 61.7188 73.4375C61.7188 77.9959 59.9079 82.3676 56.6847 85.5909C53.4614 88.8142 49.0897 90.625 44.5313 90.625Z"
                                            fill="#BDBDBD"
                                        />
                                        <path
                                            d="M44.1406 82.8125C43.9089 82.8125 43.6823 82.8812 43.4896 83.01C43.2969 83.1388 43.1467 83.3218 43.058 83.5359C42.9693 83.7501 42.9461 83.9857 42.9913 84.213C43.0365 84.4403 43.1481 84.6491 43.312 84.813C43.4759 84.9769 43.6847 85.0885 43.912 85.1337C44.1393 85.1789 44.3749 85.1557 44.5891 85.067C44.8032 84.9783 44.9862 84.8281 45.115 84.6354C45.2438 84.4427 45.3125 84.2161 45.3125 83.9844C45.3125 83.6736 45.189 83.3755 44.9693 83.1557C44.7495 82.936 44.4514 82.8125 44.1406 82.8125ZM44.1406 83.9844C44.9199 83.9844 44.9316 83.9844 44.1406 83.9844Z"
                                            fill="#BDBDBD"
                                        />
                                        <path
                                            d="M48.0375 62.8365C42.9346 59.8115 37.5 63.3545 37.5 68.3466C37.5 68.4927 37.5582 68.6329 37.6619 68.7362C37.7656 68.8396 37.9062 68.8976 38.0529 68.8976C38.1995 68.8976 38.3401 68.8396 38.4438 68.7362C38.5475 68.6329 38.6057 68.4927 38.6057 68.3466C38.6057 64.2196 43.106 61.2331 47.4514 63.8173C50.2599 65.4703 50.8073 71.3606 46.4121 73.3552C45.5518 73.7647 44.8277 74.4119 44.3259 75.2197C43.8241 76.0276 43.5657 76.9621 43.5814 77.9121V79.9177C43.5814 80.0639 43.6397 80.204 43.7434 80.3074C43.847 80.4107 43.9877 80.4687 44.1343 80.4687C44.2809 80.4687 44.4215 80.4107 44.5252 80.3074C44.6289 80.204 44.6871 80.0639 44.6871 79.9177V77.9121C44.6834 77.1789 44.8895 76.4598 45.2811 75.8391C45.6728 75.2184 46.2339 74.7219 46.8986 74.4077C47.7522 74.0225 48.5143 73.4615 49.1347 72.7615C49.755 72.0616 50.2195 71.2386 50.4977 70.3468C51.3767 67.4595 50.1162 64.0983 48.0375 62.8365Z"
                                            fill="#BDBDBD"
                                        />
                                        <path
                                            d="M28.125 14.0625H70.3125C70.5197 14.0625 70.7184 13.9802 70.8649 13.8337C71.0114 13.6872 71.0938 13.4885 71.0938 13.2812C71.0938 13.074 71.0114 12.8753 70.8649 12.7288C70.7184 12.5823 70.5197 12.5 70.3125 12.5H28.125C27.9178 12.5 27.7191 12.5823 27.5726 12.7288C27.4261 12.8753 27.3438 13.074 27.3438 13.2812C27.3438 13.4885 27.4261 13.6872 27.5726 13.8337C27.7191 13.9802 27.9178 14.0625 28.125 14.0625Z"
                                            fill="#BDBDBD"
                                        />
                                        <path
                                            d="M28.125 23.4375H70.3125C70.5197 23.4375 70.7184 23.3552 70.8649 23.2087C71.0114 23.0622 71.0938 22.8635 71.0938 22.6562C71.0938 22.449 71.0114 22.2503 70.8649 22.1038C70.7184 21.9573 70.5197 21.875 70.3125 21.875H28.125C27.9178 21.875 27.7191 21.9573 27.5726 22.1038C27.4261 22.2503 27.3438 22.449 27.3438 22.6562C27.3438 22.8635 27.4261 23.0622 27.5726 23.2087C27.7191 23.3552 27.9178 23.4375 28.125 23.4375Z"
                                            fill="#BDBDBD"
                                        />
                                        <path
                                            d="M28.125 32.8125H70.3125C70.5197 32.8125 70.7184 32.7302 70.8649 32.5837C71.0114 32.4372 71.0938 32.2385 71.0938 32.0312C71.0938 31.824 71.0114 31.6253 70.8649 31.4788C70.7184 31.3323 70.5197 31.25 70.3125 31.25H28.125C27.9178 31.25 27.7191 31.3323 27.5726 31.4788C27.4261 31.6253 27.3438 31.824 27.3438 32.0312C27.3438 32.2385 27.4261 32.4372 27.5726 32.5837C27.7191 32.7302 27.9178 32.8125 28.125 32.8125Z"
                                            fill="#BDBDBD"
                                        />
                                    </svg>