<svg width="24" height="24" viewBox="0 0 24 24" fill="none" xmlns="http://www.w3.org/2000/svg">
<g clip-path="url(#clip0_2027_160342)">
<path d="M15.3955 0.976562H5.68022C4.76735 0.976562 4.02734 1.71317 4.02734 2.62168V21.379C4.02734 22.2876 4.76743 23.0241 5.68022 23.0241H18.8159C19.7288 23.0241 20.4688 22.2875 20.4688 21.379V6.02611L15.3955 0.976562Z" fill="#008AFE"/>
<path d="M17.6993 10.5625H6.70703V11.3574H17.6993V10.5625Z" fill="white"/>
<path d="M17.6993 12.5273H6.70703V13.3222H17.6993V12.5273Z" fill="white"/>
<path d="M17.6993 14.7383H6.70703V15.5331H17.6993V14.7383Z" fill="white"/>
<path d="M12.4381 16.7969H6.70703V17.5917H12.4381V16.7969Z" fill="white"/>
<path d="M17.0512 6.02603H20.4717L15.3984 0.976562V4.38098C15.3984 5.28949 16.1384 6.02603 17.0512 6.02603Z" fill="#55C2F9"/>
</g>
<defs>
<clipPath id="clip0_2027_160342">
<rect width="16.5" height="22" fill="white" transform="translate(4 1)"/>
</clipPath>
</defs>
</svg>
