<svg width="122" height="116" viewBox="0 0 122 116" fill="none" xmlns="http://www.w3.org/2000/svg">
<g clip-path="url(#clip0_2311_73896)">
<path d="M48.1702 99.5169L75.9224 115.581C76.2897 115.768 76.6959 115.866 77.1081 115.866C77.5202 115.866 77.9265 115.768 78.2937 115.581L121.573 90.5235C122.23 90.146 122.23 89.5315 121.573 89.1458L93.8212 73.0821C93.454 72.8946 93.0477 72.7969 92.6356 72.7969C92.2235 72.7969 91.8172 72.8946 91.4499 73.0821L48.1702 98.1447C47.5162 98.525 47.5162 99.1394 48.1702 99.5169Z" fill="#E0E0E0"/>
<path d="M74.3976 67.5046L69.5945 64.7217C69.434 64.6402 69.2566 64.5977 69.0766 64.5977C68.8966 64.5977 68.7192 64.6402 68.5586 64.7217L8.2758 99.6347C8.21308 99.6559 8.15856 99.6962 8.11994 99.7501C8.08132 99.804 8.06055 99.8687 8.06055 99.935C8.06055 100.001 8.08132 100.066 8.11994 100.12C8.15856 100.174 8.21308 100.214 8.2758 100.235L13.1228 103.065C13.2837 103.147 13.4616 103.19 13.6422 103.19C13.8227 103.19 14.0007 103.147 14.1615 103.065L24.3611 97.1439C24.505 97.254 24.6555 97.3552 24.8118 97.447L32.6236 101.968C33.6935 102.524 34.8808 102.814 36.0858 102.814C37.2907 102.814 38.478 102.524 39.5479 101.968L54.6248 93.2396C55.7431 92.592 56.3861 91.6249 56.3861 90.5889C56.3861 89.5529 55.7431 88.5858 54.6248 87.9383L47.4202 83.7612L74.3976 68.1081C74.4613 68.0876 74.5169 68.0473 74.5564 67.9931C74.5958 67.9388 74.6171 67.8735 74.6171 67.8064C74.6171 67.7392 74.5958 67.6739 74.5564 67.6196C74.5169 67.5654 74.4613 67.5251 74.3976 67.5046Z" fill="#E0E0E0"/>
<path d="M37.8094 101.963L19.5946 112.491C19.5244 112.514 19.4634 112.559 19.4201 112.619C19.3768 112.679 19.3535 112.752 19.3535 112.826C19.3535 112.9 19.3768 112.972 19.4201 113.032C19.4634 113.092 19.5244 113.137 19.5946 113.16L23.8783 115.64C24.0581 115.731 24.2567 115.779 24.4581 115.779C24.6595 115.779 24.8581 115.731 25.0379 115.64L43.2527 105.112C43.3228 105.089 43.3839 105.044 43.4272 104.984C43.4704 104.924 43.4937 104.851 43.4937 104.777C43.4937 104.703 43.4704 104.631 43.4272 104.571C43.3839 104.511 43.3228 104.466 43.2527 104.443L38.9689 101.963C38.7892 101.872 38.5906 101.824 38.3892 101.824C38.1878 101.824 37.9892 101.872 37.8094 101.963Z" fill="#E0E0E0"/>
<path d="M54.065 87.8609L46.2532 83.3366C44.6512 82.4109 41.9502 82.1987 40.2081 82.8655L35.5699 84.6537C33.517 85.5031 31.5784 86.6075 29.7997 87.9408L25.1038 91.6661C24.4251 92.2034 24.0926 92.8536 24.0898 93.4901C24.0898 93.6692 24.0898 94.3883 24.0898 94.5702C24.0898 95.2921 24.5267 95.9892 25.373 96.4796L33.1849 101.001C34.7868 101.93 37.3862 101.93 38.9909 101.001L54.065 92.275C54.8701 91.8066 55.2685 91.1976 55.2658 90.586C55.2658 90.4124 55.2658 89.718 55.2658 89.5417C55.2658 88.9328 54.8674 88.3238 54.065 87.8609Z" fill="#E6E6E6"/>
<path d="M24.0898 94.5696C24.0898 95.2915 24.5267 95.9886 25.373 96.4791L33.1849 101.001C34.0767 101.478 35.0758 101.718 36.0865 101.698V100.574L24.0898 93.6328V94.5696Z" fill="#E0E0E0"/>
<path opacity="0.1" d="M24.0898 94.5696C24.0898 95.2915 24.5267 95.9886 25.373 96.4791L33.1849 101.001C34.0767 101.478 35.0758 101.718 36.0865 101.698V100.574L24.0898 93.6328V94.5696Z" fill="#474747"/>
<path d="M40.2214 82.8655L35.5832 84.6537C33.5302 85.5031 31.5917 86.6075 29.8129 87.9408L25.1033 91.6661C23.647 92.815 23.7679 94.4986 25.378 95.4271L33.1899 99.9514C34.7918 100.88 37.3912 100.88 38.9959 99.9514L54.07 91.2224C55.6747 90.2939 55.6747 88.7895 54.07 87.8609L46.2582 83.3366C44.6507 82.4109 41.9497 82.1987 40.2214 82.8655Z" fill="#F0F0F0"/>
<path opacity="0.1" d="M46.2532 83.3366C44.6512 82.4109 41.9502 82.1987 40.2081 82.8655L35.5699 84.6537C33.517 85.5031 31.5784 86.6075 29.7997 87.9408L25.1038 91.6661C24.4251 92.2034 24.0926 92.8536 24.0898 93.4901C24.0898 93.6692 24.0898 94.3883 24.0898 94.5702C24.0898 95.2921 24.5267 95.9892 25.373 96.4796L29.7255 98.998V97.951L50.6084 85.8605L46.2532 83.3366Z" fill="#474747"/>
<path d="M38.934 88.0932C38.934 85.7842 39.6566 78.5101 41.1707 76.7963L36.3319 76.2617C33.9551 78.7829 31.1111 84.8033 29.3828 88.275C29.3828 88.275 30.8034 88.8564 32.5537 89.5811C34.304 90.3057 36.7413 90.3057 37.9943 89.5811C38.2741 89.4431 38.5101 89.2299 38.6761 88.9652C38.842 88.7005 38.9313 88.3948 38.934 88.0822V88.0932Z" fill="#E0E0E0"/>
<path opacity="0.1" d="M38.934 88.0932C38.934 85.7842 39.6566 78.5101 41.1707 76.7963L36.3319 76.2617C33.9551 78.7829 31.1111 84.8033 29.3828 88.275C29.3828 88.275 30.8034 88.8564 32.5537 89.5811C34.304 90.3057 36.7413 90.3057 37.9943 89.5811C38.2741 89.4431 38.5101 89.2299 38.6761 88.9652C38.842 88.7005 38.9313 88.3948 38.934 88.0822V88.0932Z" fill="#474747"/>
<path d="M38.0329 76.9723C38.9699 77.3608 40.2778 77.3608 40.9482 76.9723C41.6187 76.5838 41.6214 75.8261 40.9482 75.2805L39.731 74.2969C38.5106 74.791 37.3662 75.4561 36.332 76.2725L38.0329 76.9723Z" fill="#E0E0E0"/>
<path d="M11.5781 92.934C11.9678 93.1237 12.3967 93.2184 12.8298 93.2102C13.2629 93.2021 13.688 93.0914 14.0703 92.8871L72.6193 58.9964C72.9949 58.7521 73.3079 58.4224 73.5327 58.0342C73.7576 57.6459 73.888 57.21 73.9135 56.7618V2.50356C73.8974 2.06964 73.7798 1.64558 73.5703 1.26558C73.3607 0.885575 73.0651 0.560245 72.7072 0.315811C72.3175 0.126069 71.8886 0.031406 71.4555 0.0395464C71.0224 0.0476869 70.5973 0.1584 70.215 0.362652L11.6688 34.2534C11.2943 34.4975 10.9826 34.827 10.7591 35.2148C10.5356 35.6026 10.4067 36.0379 10.3828 36.4852V90.7462C10.3964 91.1795 10.5117 91.6034 10.7194 91.9835C10.9271 92.3636 11.2213 92.6893 11.5781 92.934Z" fill="#8C8C8C"/>
<path d="M14.072 92.889L72.621 58.9983C72.9969 58.7543 73.3101 58.4247 73.535 58.0364C73.7599 57.6481 73.8901 57.212 73.9152 56.7637V2.5027C73.9152 1.67609 73.3382 1.34821 72.6292 1.75875L14.083 35.6495C13.7085 35.8936 13.3968 36.2231 13.1733 36.6109C12.9499 36.9987 12.8209 37.434 12.797 37.8813V92.1423C12.786 92.9662 13.3631 93.2996 14.072 92.889Z" fill="#727272"/>
<path d="M12.7852 87.7522V92.1387C12.7852 92.9653 13.3622 93.296 14.0711 92.8854L72.6201 58.9947C72.996 58.7507 73.3092 58.4211 73.5341 58.0328C73.759 57.6445 73.8893 57.2085 73.9143 56.7601V52.3516L12.7852 87.7522Z" fill="#EBEBEB"/>
<path d="M14.4863 83.6764V38.4667C14.4999 38.1906 14.5788 37.9217 14.7164 37.6822C14.8539 37.4426 15.0463 37.2393 15.2777 37.089L71.4142 4.57595C71.8511 4.32521 72.2055 4.52911 72.2055 5.03334V50.2541C72.191 50.5299 72.1118 50.7985 71.9743 51.0379C71.8368 51.2773 71.6449 51.4807 71.4142 51.6317L15.2777 84.1338C14.838 84.3873 14.4863 84.1806 14.4863 83.6764Z" fill="white"/>
<path d="M10.7522 35.2227L13.1648 36.6003C12.9363 36.9881 12.8061 37.4261 12.7856 37.8761V92.1398C12.7856 92.892 13.2939 93.3108 14.0715 92.8865C13.6892 93.0908 13.2641 93.2015 12.831 93.2096C12.3979 93.2178 11.969 93.1231 11.5793 92.9333C11.2256 92.7223 10.93 92.426 10.7194 92.0714C10.5087 91.7168 10.3897 91.3151 10.373 90.9027V36.4956C10.3906 36.0461 10.521 35.6082 10.7522 35.2227Z" fill="#BDBDBD"/>
<path d="M42.6378 72.9219L45.5449 71.2467C45.806 71.0979 46.0176 71.2053 46.0176 71.4864C46.006 71.645 45.9574 71.7987 45.8758 71.9351C45.7942 72.0714 45.6818 72.1867 45.5477 72.2717L42.6378 73.9469C42.3768 74.0957 42.168 73.991 42.168 73.7072C42.1791 73.5485 42.2275 73.3946 42.3092 73.2582C42.3908 73.1217 42.5034 73.0065 42.6378 72.9219Z" fill="#B3B3B5"/>
<path d="M16.8522 43.1395C16.6972 43.0335 16.5693 42.8925 16.4786 42.7279C16.3879 42.5632 16.337 42.3796 16.3301 42.1916V39.1277C16.34 38.9346 16.3948 38.7466 16.4903 38.5786C16.5857 38.4107 16.719 38.2675 16.8796 38.1605L69.2654 7.8242C69.4267 7.72292 69.6124 7.66762 69.8026 7.66423C69.9928 7.66084 70.1804 7.7095 70.3451 7.80498C70.5098 7.90046 70.6455 8.03915 70.7375 8.20614C70.8295 8.37312 70.8744 8.5621 70.8674 8.75276V11.8167C70.8584 12.0099 70.8039 12.1983 70.7084 12.3664C70.6128 12.5345 70.479 12.6775 70.3178 12.7838L17.932 43.1202C17.7661 43.2079 17.5819 43.2554 17.3944 43.2588C17.2068 43.2621 17.0211 43.2212 16.8522 43.1395Z" fill="#E0E0E0"/>
<path opacity="0.15" d="M17.5362 39.1843C17.4367 39.3514 17.381 39.5409 17.3741 39.7354V41.4244L16.3272 40.8182V39.1292C16.3258 39.1072 16.3258 39.0851 16.3272 39.0631C16.3305 39.0159 16.337 38.9689 16.3464 38.9225C16.3769 38.8017 16.424 38.6858 16.4866 38.5781L17.5362 39.1843Z" fill="#474747"/>
<path d="M70.8682 8.74934V10.4384L34.6556 31.412L18.911 40.5322L17.375 41.4195V39.7304C17.3849 39.5374 17.4397 39.3493 17.5352 39.1814C17.6306 39.0134 17.764 38.8702 17.9246 38.7633L70.3131 8.42696C70.6181 8.25062 70.8682 8.3939 70.8682 8.74934Z" fill="#F0F0F0"/>
<path d="M69.3424 9.81131C69.5402 9.69559 69.7023 9.78927 69.7023 10.0207C69.6951 10.1459 69.6588 10.2676 69.5963 10.3762C69.5338 10.4848 69.4468 10.5773 69.3424 10.6462C69.1445 10.7592 68.9824 10.6682 68.9824 10.4368C68.9892 10.3115 69.0254 10.1896 69.0879 10.0809C69.1505 9.97228 69.2376 9.87991 69.3424 9.81131Z" fill="white"/>
<path d="M68.0455 10.5613C68.2461 10.4456 68.4055 10.5393 68.4055 10.7707C68.3989 10.896 68.3628 11.018 68.3003 11.1267C68.2377 11.2354 68.1504 11.3277 68.0455 11.3962C67.8477 11.5092 67.6855 11.4182 67.6855 11.1868C67.6924 11.0615 67.7285 10.9396 67.791 10.8309C67.8536 10.7223 67.9407 10.6299 68.0455 10.5613Z" fill="white"/>
<path d="M66.7506 11.2996C66.9484 11.1839 67.1105 11.2776 67.1105 11.509C67.1033 11.6342 67.067 11.7559 67.0045 11.8645C66.942 11.9731 66.855 12.0655 66.7506 12.1345C66.55 12.2474 66.3906 12.1565 66.3906 11.9251C66.397 11.7997 66.433 11.6776 66.4955 11.5689C66.5581 11.4602 66.6455 11.3679 66.7506 11.2996Z" fill="white"/>
<path d="M17.932 80.8564C17.7993 80.9358 17.6494 80.9821 17.4951 80.9914C17.2744 81.0183 17.0506 80.979 16.8522 80.8784C16.6972 80.7724 16.5693 80.6315 16.4786 80.4668C16.3879 80.3022 16.337 80.1185 16.3301 79.9306V40.8047L17.377 41.4109V80.5368C17.377 80.7902 17.5061 80.9363 17.6875 80.9363C17.7741 80.9294 17.8579 80.902 17.932 80.8564Z" fill="#E0E0E0"/>
<path d="M17.6844 80.864C17.5332 80.864 17.4453 80.74 17.4453 80.5333V41.4625L34.6902 31.4772L70.7983 10.5586V49.5522C70.7891 49.7344 70.737 49.9117 70.6462 50.0698C70.5555 50.2278 70.4287 50.3621 70.2763 50.4615L17.8959 80.7978C17.8324 80.8381 17.7595 80.8609 17.6844 80.864Z" fill="#FAFAFA"/>
<path d="M70.7308 10.6772V49.5496C70.7204 49.7191 70.6711 49.8838 70.5867 50.031C70.5023 50.1783 70.3852 50.3039 70.2444 50.3983L17.8614 80.7318C17.8079 80.7664 17.7463 80.7863 17.6827 80.7897C17.5289 80.7897 17.5124 80.6079 17.5124 80.5142V41.4985L18.9769 40.6499L34.7215 31.5324L70.717 10.6772M70.8544 10.4375L34.6556 31.4112L18.911 40.5314L17.375 41.4186V80.5445C17.375 80.798 17.5014 80.944 17.6855 80.944C17.7732 80.9404 17.8585 80.9138 17.9328 80.8669L70.3131 50.5305C70.4742 50.4241 70.6079 50.281 70.7034 50.1129C70.7988 49.9449 70.8534 49.7566 70.8627 49.5634V10.4375H70.8544Z" fill="#E0E0E0"/>
<path d="M68.888 26.6082L19.3516 55.2886V47.7362L68.888 19.0586V26.6082Z" fill="#F0F0F0"/>
<path d="M64.2611 43.6126L55.0177 48.9635C54.7814 49.1013 54.5918 48.9635 54.5918 48.6411V38.6833C54.5925 38.5216 54.6315 38.3623 54.7055 38.2186C54.7796 38.0749 54.8866 37.9509 55.0177 37.8567L64.2611 32.5141C64.4974 32.3763 64.687 32.5141 64.687 32.8365V42.7943C64.6855 42.9547 64.646 43.1125 64.572 43.2547C64.498 43.397 64.3915 43.5196 64.2611 43.6126Z" fill="#E0E0E0"/>
<path opacity="0.05" d="M64.2611 43.6126L55.0177 48.9635C54.7814 49.1013 54.5918 48.9635 54.5918 48.6411V38.6833C54.5925 38.5216 54.6315 38.3623 54.7055 38.2186C54.7796 38.0749 54.8866 37.9509 55.0177 37.8567L64.2611 32.5141C64.4974 32.3763 64.687 32.5141 64.687 32.8365V42.7943C64.6855 42.9547 64.646 43.1125 64.572 43.2547C64.498 43.397 64.3915 43.5196 64.2611 43.6126Z" fill="#474747"/>
<path d="M55.3066 47.6903V44.6236L57.8923 39.2507L60.8736 41.8462L60.1674 40.4355L61.7501 37.6719L63.973 39.5235V42.6756L55.3066 47.6903Z" fill="#FAFAFA"/>
<path d="M60.642 37.227C60.6461 37.4659 60.5952 37.7026 60.4932 37.9186C60.3912 38.1346 60.2409 38.3241 60.054 38.4724C59.7298 38.6598 59.4688 38.4063 59.4688 37.9048C59.4688 37.4033 59.7298 36.8467 60.054 36.6594C60.3783 36.472 60.642 36.7255 60.642 37.227Z" fill="#FAFAFA"/>
<path d="M49.3049 52.2733L40.0587 57.6241C39.8252 57.7619 39.6328 57.6241 39.6328 57.3018V47.3439C39.6337 47.1822 39.6728 47.0231 39.7468 46.8794C39.8209 46.7357 39.9277 46.6117 40.0587 46.5173L49.3049 41.1665C49.5384 41.0287 49.7308 41.1665 49.7308 41.4888V51.4439C49.7298 51.606 49.6908 51.7656 49.6168 51.9097C49.5428 52.0538 49.4359 52.1783 49.3049 52.2733Z" fill="#E0E0E0"/>
<path d="M40.3516 56.3505V53.2838L42.9372 47.9108L45.9158 50.5064L45.2123 49.0929L46.7923 46.332L49.0152 48.1836V51.3357L40.3516 56.3505Z" fill="#FAFAFA"/>
<path d="M45.6833 45.8859C45.6833 46.3874 45.4223 46.9439 45.098 47.1313C44.7738 47.3187 44.51 47.0679 44.51 46.5802C44.5057 46.3413 44.5566 46.1045 44.6586 45.8885C44.7606 45.6724 44.911 45.483 45.098 45.3348C45.4223 45.1337 45.6833 45.3872 45.6833 45.8859Z" fill="#FAFAFA"/>
<path d="M34.3471 60.9317L25.1036 66.2826C24.8673 66.4176 24.6777 66.2826 24.6777 65.9602V56.0024C24.678 55.8406 24.7168 55.6812 24.7909 55.5374C24.8649 55.3936 24.9722 55.2697 25.1036 55.1758L34.3471 49.8332C34.5834 49.6982 34.773 49.8332 34.773 50.1583V60.1134C34.771 60.2737 34.7314 60.4314 34.6574 60.5735C34.5834 60.7157 34.4771 60.8384 34.3471 60.9317Z" fill="#F0F0F0"/>
<path d="M25.3926 65.0106V61.9412L27.981 56.571L30.9595 59.1665L30.2533 57.753L31.836 54.9922L34.0562 56.841V59.9959L25.3926 65.0106Z" fill="#FAFAFA"/>
<path d="M30.728 54.5579C30.7323 54.7969 30.6814 55.0337 30.5794 55.2497C30.4774 55.4657 30.327 55.6552 30.14 55.8033C29.8157 55.9907 29.5547 55.7372 29.5547 55.2385C29.5547 54.7398 29.8295 54.1804 30.14 53.9931C30.4505 53.8057 30.728 54.0454 30.728 54.5579Z" fill="#FAFAFA"/>
<path d="M48.5883 55.2419L40.7765 59.7634C40.6061 59.8626 40.4688 59.7634 40.4688 59.5292V59.4686C40.4702 59.3526 40.4989 59.2385 40.5523 59.1356C40.6058 59.0328 40.6825 58.9439 40.7765 58.8762L48.5883 54.3547C48.7587 54.2555 48.8961 54.3547 48.8961 54.5889V54.6495C48.8946 54.7655 48.866 54.8795 48.8125 54.9824C48.7591 55.0853 48.6823 55.1742 48.5883 55.2419Z" fill="#E0E0E0"/>
<path d="M33.6301 63.902L25.8292 68.4236C25.6589 68.5227 25.5215 68.4236 25.5215 68.1894V68.1287C25.523 68.0127 25.5516 67.8987 25.605 67.7958C25.6585 67.6929 25.7353 67.604 25.8292 67.5363L33.6411 63.0148C33.8142 62.9156 33.9516 63.0148 33.9516 63.249V63.3096C33.9488 63.4269 33.9181 63.5418 33.8622 63.6448C33.8063 63.7478 33.7267 63.836 33.6301 63.902Z" fill="#E0E0E0"/>
<path d="M63.5462 46.5817L55.7343 51.1032C55.5612 51.2024 55.4238 51.1032 55.4238 50.869V50.8084C55.4254 50.6921 55.4544 50.5779 55.5083 50.4749C55.5623 50.372 55.6397 50.2833 55.7343 50.216L63.5462 45.6945C63.7165 45.5953 63.8539 45.6945 63.8539 45.9287V45.9893C63.8524 46.1053 63.8238 46.2194 63.7704 46.3223C63.7169 46.4251 63.6401 46.514 63.5462 46.5817Z" fill="#E0E0E0"/>
<path d="M39.6342 61.9169C39.6063 61.917 39.5788 61.9097 39.5547 61.8957C39.5305 61.8816 39.5106 61.8613 39.4968 61.837C39.4766 61.8002 39.4712 61.7571 39.482 61.7165C39.4928 61.6759 39.5188 61.6411 39.5545 61.6193L49.6525 55.7752C49.689 55.7542 49.7323 55.7484 49.7729 55.7593C49.8136 55.7701 49.8483 55.7966 49.8696 55.8331C49.8906 55.8696 49.8963 55.913 49.8855 55.9538C49.8747 55.9946 49.8482 56.0294 49.8119 56.0507L39.7139 61.8976C39.6894 61.9107 39.662 61.9174 39.6342 61.9169Z" fill="#E0E0E0"/>
<path d="M39.6342 63.1703C39.6063 63.1705 39.5788 63.1632 39.5547 63.1491C39.5305 63.1351 39.5106 63.1148 39.4968 63.0904C39.4766 63.0537 39.4712 63.0105 39.482 62.9699C39.4928 62.9294 39.5188 62.8945 39.5545 62.8727L49.6525 57.0369C49.689 57.0159 49.7323 57.0101 49.7729 57.021C49.8136 57.0318 49.8483 57.0584 49.8696 57.0948C49.8906 57.1314 49.8963 57.1748 49.8855 57.2155C49.8747 57.2563 49.8482 57.2912 49.8119 57.3125L39.7139 63.1565C39.6893 63.1689 39.6616 63.1737 39.6342 63.1703Z" fill="#E0E0E0"/>
<path d="M39.6332 64.4247C39.6053 64.4249 39.5778 64.4175 39.5537 64.4035C39.5295 64.3894 39.5096 64.3692 39.4958 64.3448C39.4749 64.3082 39.4691 64.2648 39.48 64.224C39.4908 64.1832 39.5172 64.1484 39.5535 64.1271L49.6515 58.283C49.688 58.262 49.7313 58.2562 49.7719 58.2671C49.8126 58.2779 49.8474 58.3044 49.8686 58.3409C49.8896 58.3774 49.8953 58.4209 49.8845 58.4616C49.8737 58.5024 49.8472 58.5373 49.8109 58.5586L39.7129 64.4026C39.6892 64.4179 39.6614 64.4255 39.6332 64.4247Z" fill="#E0E0E0"/>
<path d="M39.6332 65.6794C39.6054 65.679 39.5782 65.6714 39.5541 65.6574C39.5301 65.6434 39.51 65.6235 39.4958 65.5995C39.4749 65.5629 39.4691 65.5195 39.48 65.4787C39.4908 65.4379 39.5172 65.4031 39.5535 65.3818L49.6515 59.5349C49.6877 59.5178 49.7289 59.5148 49.7671 59.5267C49.8053 59.5386 49.8376 59.5645 49.8577 59.5992C49.8777 59.6338 49.8841 59.6748 49.8754 59.714C49.8667 59.7531 49.8437 59.7876 49.8109 59.8105L39.7129 65.6546C39.6889 65.6695 39.6615 65.6781 39.6332 65.6794Z" fill="#E0E0E0"/>
<path d="M54.5924 53.2606C54.5645 53.2605 54.5372 53.2531 54.5131 53.239C54.489 53.225 54.469 53.2049 54.455 53.1807C54.4339 53.1437 54.4281 53.0999 54.4389 53.0587C54.4497 53.0174 54.4762 52.9821 54.5127 52.9603L64.608 47.119C64.6444 47.0979 64.6877 47.0922 64.7284 47.103C64.769 47.1139 64.8038 47.1404 64.825 47.1768C64.8358 47.1948 64.8428 47.2148 64.8458 47.2356C64.8487 47.2564 64.8474 47.2776 64.842 47.2979C64.8367 47.3182 64.8273 47.3372 64.8144 47.3538C64.8016 47.3704 64.7856 47.3842 64.7673 47.3945L54.6803 53.2386C54.6537 53.254 54.6232 53.2616 54.5924 53.2606Z" fill="#E0E0E0"/>
<path d="M54.5922 54.5102C54.5642 54.5106 54.5367 54.5035 54.5125 54.4894C54.4882 54.4753 54.4683 54.4549 54.4548 54.4303C54.4338 54.3937 54.4281 54.3503 54.4389 54.3095C54.4498 54.2687 54.4762 54.2339 54.5125 54.2126L64.6078 48.3685C64.6258 48.3559 64.6463 48.3472 64.668 48.3429C64.6896 48.3386 64.7119 48.3389 64.7334 48.3436C64.7549 48.3484 64.7752 48.3576 64.793 48.3707C64.8108 48.3837 64.8256 48.4004 64.8367 48.4195C64.8478 48.4386 64.8547 48.4598 64.8572 48.4818C64.8597 48.5037 64.8576 48.526 64.851 48.5471C64.8445 48.5682 64.8337 48.5877 64.8192 48.6044C64.8048 48.6211 64.787 48.6346 64.7671 48.644L54.6801 54.4909C54.6532 54.5055 54.6228 54.5122 54.5922 54.5102Z" fill="#E0E0E0"/>
<path d="M54.5922 55.7641C54.5642 55.7646 54.5367 55.7574 54.5125 55.7433C54.4882 55.7292 54.4683 55.7088 54.4548 55.6842C54.4338 55.6476 54.4281 55.6042 54.4389 55.5634C54.4498 55.5226 54.4762 55.4878 54.5125 55.4665L64.6078 49.6224C64.6258 49.6098 64.6463 49.6011 64.668 49.5968C64.6896 49.5925 64.7119 49.5928 64.7334 49.5975C64.7549 49.6023 64.7752 49.6115 64.793 49.6246C64.8108 49.6377 64.8256 49.6543 64.8367 49.6734C64.8478 49.6925 64.8547 49.7137 64.8572 49.7357C64.8597 49.7576 64.8576 49.7799 64.851 49.801C64.8445 49.8221 64.8337 49.8416 64.8192 49.8583C64.8048 49.875 64.787 49.8885 64.7671 49.898L54.6801 55.742C54.6541 55.759 54.6232 55.7667 54.5922 55.7641Z" fill="#E0E0E0"/>
<path d="M54.5932 57.018C54.5653 57.0185 54.5377 57.0113 54.5135 56.9972C54.4893 56.9831 54.4693 56.9627 54.4559 56.9381C54.4451 56.9201 54.438 56.9001 54.4351 56.8793C54.4322 56.8585 54.4335 56.8373 54.4389 56.817C54.4442 56.7967 54.4536 56.7777 54.4664 56.7611C54.4793 56.7445 54.4953 56.7307 54.5136 56.7204L64.6088 50.8763C64.6269 50.8637 64.6474 50.855 64.669 50.8507C64.6906 50.8464 64.7129 50.8467 64.7344 50.8515C64.7559 50.8562 64.7762 50.8655 64.794 50.8785C64.8118 50.8916 64.8267 50.9082 64.8377 50.9273C64.8488 50.9464 64.8558 50.9676 64.8582 50.9896C64.8607 51.0115 64.8586 51.0338 64.8521 51.0549C64.8455 51.076 64.8347 51.0955 64.8203 51.1122C64.8058 51.1289 64.7881 51.1424 64.7682 51.1519L54.6812 56.996C54.6551 57.0129 54.6242 57.0206 54.5932 57.018Z" fill="#E0E0E0"/>
<path d="M24.6772 70.5766C24.6492 70.5771 24.6217 70.5699 24.5975 70.5558C24.5733 70.5417 24.5533 70.5213 24.5398 70.4967C24.5291 70.4787 24.522 70.4587 24.5191 70.4379C24.5162 70.4171 24.5175 70.3959 24.5228 70.3756C24.5282 70.3553 24.5376 70.3363 24.5504 70.3197C24.5633 70.3031 24.5793 70.2893 24.5975 70.279L34.6928 64.4349C34.7109 64.4223 34.7314 64.4136 34.753 64.4093C34.7746 64.405 34.7969 64.4053 34.8184 64.41C34.8399 64.4148 34.8602 64.4241 34.878 64.4371C34.8958 64.4502 34.9107 64.4668 34.9217 64.4859C34.9328 64.505 34.9398 64.5262 34.9422 64.5482C34.9447 64.5701 34.9426 64.5924 34.936 64.6135C34.9295 64.6346 34.9187 64.6541 34.9042 64.6708C34.8898 64.6875 34.8721 64.701 34.8521 64.7105L24.7569 70.5545C24.7332 70.5698 24.7054 70.5774 24.6772 70.5766Z" fill="#E0E0E0"/>
<path d="M24.6772 71.8305C24.6492 71.831 24.6217 71.8238 24.5975 71.8097C24.5733 71.7956 24.5533 71.7752 24.5398 71.7506C24.5291 71.7326 24.522 71.7126 24.5191 71.6918C24.5162 71.671 24.5175 71.6498 24.5228 71.6295C24.5282 71.6092 24.5376 71.5902 24.5504 71.5736C24.5633 71.557 24.5793 71.5432 24.5975 71.5329L34.6928 65.6888C34.7109 65.6762 34.7314 65.6675 34.753 65.6632C34.7746 65.6589 34.7969 65.6592 34.8184 65.664C34.8399 65.6687 34.8602 65.678 34.878 65.691C34.8958 65.7041 34.9107 65.7207 34.9217 65.7398C34.9328 65.7589 34.9398 65.7801 34.9422 65.8021C34.9447 65.824 34.9426 65.8463 34.936 65.8674C34.9295 65.8885 34.9187 65.908 34.9042 65.9247C34.8898 65.9414 34.8721 65.9549 34.8521 65.9644L24.7569 71.8084C24.7332 71.8237 24.7054 71.8313 24.6772 71.8305Z" fill="#E0E0E0"/>
<path d="M24.6772 73.0859C24.6492 73.0864 24.6217 73.0792 24.5975 73.0651C24.5733 73.0511 24.5533 73.0306 24.5398 73.006C24.5291 72.988 24.522 72.968 24.5191 72.9472C24.5162 72.9264 24.5175 72.9053 24.5228 72.885C24.5282 72.8647 24.5376 72.8457 24.5504 72.8291C24.5633 72.8125 24.5793 72.7986 24.5975 72.7884L34.6928 66.9415C34.7297 66.9214 34.773 66.9165 34.8135 66.9278C34.854 66.9391 34.8886 66.9658 34.9098 67.0021C34.9308 67.0387 34.9365 67.0821 34.9257 67.1229C34.9149 67.1637 34.8885 67.1985 34.8521 67.2198L24.7569 73.0639C24.7327 73.0779 24.7052 73.0855 24.6772 73.0859Z" fill="#E0E0E0"/>
<path d="M24.6778 74.3395C24.6429 74.3393 24.6091 74.3276 24.5815 74.3062C24.5539 74.2848 24.534 74.2549 24.525 74.2212C24.5159 74.1874 24.5182 74.1515 24.5314 74.1192C24.5446 74.0868 24.5681 74.0597 24.5981 74.0419L34.6934 68.1951C34.7295 68.1779 34.7707 68.175 34.8089 68.1869C34.8471 68.1988 34.8794 68.2246 34.8995 68.2593C34.9196 68.294 34.9259 68.335 34.9172 68.3741C34.9086 68.4133 34.8855 68.4477 34.8527 68.4706L24.7575 74.3175C24.7332 74.3315 24.7058 74.3391 24.6778 74.3395Z" fill="#E0E0E0"/>
<path d="M68.8886 16.6068L62.7969 20.1336V17.855L68.8886 14.3281V16.6068Z" fill="#E0E0E0"/>
<path d="M62.5136 20.2982L56.4219 23.825V21.5464L62.5136 18.0195V20.2982Z" fill="#E0E0E0"/>
<path d="M56.1386 23.9869L50.0469 27.5137V25.2378L56.1386 21.7109V23.9869Z" fill="#E0E0E0"/>
<path d="M25.4461 41.7591L19.3516 45.286V43.0073L25.4461 39.4805V41.7591Z" fill="#E0E0E0"/>
<path d="M48.7207 96.9006C48.7483 97.2801 48.8647 97.6478 49.0604 97.9738C49.2561 98.2998 49.5257 98.575 49.8473 98.777L76.2257 114.044C76.5751 114.221 76.9609 114.313 77.3522 114.313C77.7435 114.313 78.1294 114.221 78.4788 114.044L119.613 90.2299C119.952 90.0491 120.237 89.7788 120.435 89.4483C120.633 89.1177 120.738 88.7393 120.738 88.3535C120.738 87.9678 120.633 87.5893 120.435 87.2588C120.237 86.9282 119.952 86.658 119.613 86.4771L93.2342 71.2098C92.8855 71.0308 92.4994 70.9375 92.1076 70.9375C91.7159 70.9375 91.3298 71.0308 90.9811 71.2098L49.8473 95.0242C49.5257 95.2262 49.2561 95.5014 49.0604 95.8274C48.8647 96.1534 48.7483 96.5211 48.7207 96.9006Z" fill="#727272"/>
<path d="M49.8467 96.3275L76.2251 111.595C76.5738 111.774 76.9599 111.867 77.3517 111.867C77.7434 111.867 78.1295 111.774 78.4782 111.595L119.612 87.7832C120.236 87.4222 120.236 86.8381 119.612 86.4771L93.2336 71.2098C92.8849 71.0308 92.4988 70.9375 92.1071 70.9375C91.7153 70.9375 91.3292 71.0308 90.9805 71.2098L49.8467 95.0242C49.223 95.3852 49.223 95.9693 49.8467 96.3275Z" fill="#8C8C8C"/>
<path d="M77.3417 111.867V114.311C76.9489 114.317 76.5612 114.222 76.2151 114.036L49.8368 98.7682C49.5062 98.5942 49.2278 98.3353 49.0298 98.0179C48.8318 97.7006 48.7214 97.3362 48.71 96.962C48.6985 96.5878 48.7864 96.2173 48.9646 95.8884C49.1427 95.5595 49.4049 95.2839 49.7241 95.0898C49.2185 95.4508 49.257 95.9826 49.8368 96.3215L76.2151 111.589C76.561 111.776 76.9487 111.872 77.3417 111.867Z" fill="#BDBDBD"/>
<path d="M47.6632 95.0571C47.0806 94.7182 47.1136 94.1478 47.1136 93.4287V61.1333C47.1346 60.7413 47.2476 60.3598 47.4433 60.0199C47.6391 59.6799 47.9121 59.3911 48.2402 59.177L89.374 35.3625C89.9977 35.0016 90.9017 34.9988 91.4293 35.4204C91.9569 35.842 92.1107 36.2305 92.1107 36.9496V69.2533C92.0893 69.6452 91.9762 70.0265 91.7805 70.3663C91.5847 70.7062 91.3119 70.9951 90.9842 71.2096L49.8504 95.024C49.514 95.2013 49.1407 95.2967 48.7607 95.3024C48.3807 95.3081 48.0047 95.2241 47.6632 95.0571Z" fill="#727272"/>
<path d="M92.108 36.9516C92.108 36.2325 91.6024 35.9404 90.9814 36.2986L49.8449 60.1158C49.5123 60.3236 49.2387 60.6141 49.0508 60.9589L47.4434 60.0221C47.6331 59.6769 47.9073 59.3858 48.2402 59.1762L89.374 35.3645C89.995 35.0036 90.9045 34.9953 91.4266 35.4224C91.9486 35.8495 92.108 36.2325 92.108 36.9516Z" fill="#8C8C8C"/>
<path d="M49.713 95.0958C49.39 95.2418 49.039 95.3147 48.6847 95.3095C48.3305 95.3043 47.9817 95.2209 47.6632 95.0654C47.0806 94.7293 47.1136 94.1589 47.1136 93.4398V61.1334C47.1286 60.7435 47.2431 60.3641 47.4461 60.0312L49.0535 60.9653C48.8521 61.2988 48.7378 61.6779 48.7211 62.0674V94.3766C48.7183 95.0434 49.1552 95.3355 49.713 95.0958Z" fill="#BDBDBD"/>
<path d="M50.4513 61.4169L90.0354 38.5062C90.4091 38.2913 90.7113 38.4648 90.7113 38.8974V68.9307C90.699 69.1659 90.6313 69.3949 90.5138 69.5989C90.3963 69.8029 90.2324 69.9761 90.0354 70.1045L50.4513 93.0234C50.0776 93.2411 49.7754 93.0648 49.7754 92.6322V62.5989C49.7871 62.3624 49.8545 62.132 49.972 61.9266C50.0894 61.7212 50.2537 61.5465 50.4513 61.4169Z" fill="#474747"/>
<path d="M50.4513 61.4146C50.2548 61.5434 50.0912 61.7167 49.9738 61.9206C49.8564 62.1245 49.7884 62.3532 49.7754 62.5883V92.1063L88.9088 69.4574C89.1058 69.3291 89.2698 69.1558 89.3872 68.9518C89.5047 68.7478 89.5724 68.5189 89.5848 68.2836V38.7656L50.4513 61.4146Z" fill="white"/>
<path d="M53.3269 95.2188L91.1277 73.3331C91.2922 73.2502 91.4738 73.207 91.658 73.207C91.8422 73.207 92.0238 73.2502 92.1883 73.3331L93.5622 74.1073C93.6269 74.1288 93.6831 74.1702 93.723 74.2256C93.7629 74.281 93.7843 74.3476 93.7843 74.4159C93.7843 74.4842 93.7629 74.5508 93.723 74.6062C93.6831 74.6616 93.6269 74.703 93.5622 74.7245L55.7587 96.6047C55.5941 96.6876 55.4125 96.7308 55.2284 96.7308C55.0442 96.7308 54.8626 96.6876 54.698 96.6047L53.3242 95.8332C53.2606 95.8108 53.2055 95.7691 53.1667 95.7138C53.1278 95.6586 53.1071 95.5926 53.1074 95.525C53.1077 95.4574 53.129 95.3916 53.1684 95.3367C53.2077 95.2818 53.2631 95.2406 53.3269 95.2188Z" fill="#BDBDBD"/>
<path d="M57.0394 97.4141L94.8374 75.5284C94.9846 75.4453 95.149 75.3974 95.3177 75.3883C95.4864 75.3792 95.6549 75.4093 95.8101 75.4761L105.647 81.1714C105.892 81.3119 105.85 81.5626 105.556 81.7225L67.7996 103.6C67.6529 103.683 67.4892 103.731 67.321 103.741C67.1528 103.75 66.9847 103.721 66.8296 103.655L56.9377 97.9845C56.7042 97.8329 56.7454 97.5822 57.0394 97.4141Z" fill="#BDBDBD"/>
<path d="M89.7919 84.7219L90.9762 84.0358C91.0257 84.0083 91.0312 83.9642 90.9762 83.9367L89.8524 83.2809C89.8258 83.268 89.7967 83.2613 89.7672 83.2613C89.7377 83.2613 89.7086 83.268 89.682 83.2809L88.4978 83.967C88.4483 83.9973 88.4428 84.0414 88.4978 84.0662L89.6326 84.7219C89.6573 84.7343 89.6846 84.7407 89.7123 84.7407C89.7399 84.7407 89.7672 84.7343 89.7919 84.7219ZM88.0636 82.3523L86.8793 83.0357C86.8299 83.066 86.8271 83.1101 86.8793 83.1349L88.0114 83.7906C88.0376 83.8049 88.0668 83.8123 88.0966 83.8123C88.1263 83.8123 88.1556 83.8049 88.1818 83.7906L89.366 83.1045C89.4155 83.077 89.421 83.0329 89.366 83.0054L88.234 82.3496C88.2073 82.3369 88.178 82.3305 88.1485 82.331C88.1189 82.3315 88.0899 82.3388 88.0636 82.3523ZM84.2415 84.5566L82.2384 85.7166C82.1862 85.7442 82.1834 85.791 82.2384 85.8158L83.3705 86.4716C83.3975 86.4843 83.4271 86.491 83.457 86.491C83.4869 86.491 83.5165 86.4843 83.5436 86.4716L85.5467 85.3116C85.5961 85.2813 85.6016 85.2372 85.5467 85.2124L84.4146 84.5566C84.3874 84.5431 84.3573 84.5368 84.327 84.5383C84.2967 84.5397 84.2673 84.5489 84.2415 84.5649V84.5566ZM86.3353 83.3443L85.151 84.0386C85.1015 84.0662 85.096 84.1102 85.151 84.1378L86.2831 84.7936C86.3101 84.8065 86.3397 84.8133 86.3696 84.8133C86.3996 84.8133 86.4292 84.8065 86.4562 84.7936L87.6405 84.1075C87.6899 84.0772 87.6954 84.0331 87.6405 84.0083L86.5084 83.3525C86.4819 83.3378 86.4521 83.3301 86.4218 83.3301C86.3916 83.3301 86.3618 83.3378 86.3353 83.3525V83.3443ZM81.6916 86.0335L80.5101 86.7251C80.4606 86.7554 80.4551 86.7995 80.5101 86.8243L81.6449 87.48C81.671 87.4943 81.7003 87.5017 81.7301 87.5017C81.7598 87.5017 81.7891 87.4943 81.8152 87.48L82.983 86.794C83.0325 86.7664 83.038 86.7223 82.983 86.6948L81.851 86.039C81.8257 86.028 81.7985 86.0226 81.771 86.023C81.7435 86.0235 81.7164 86.0299 81.6916 86.0417V86.0335ZM79.9605 87.0419L78.779 87.728C78.7268 87.7556 78.724 87.7997 78.779 87.8272L79.911 88.483C79.9381 88.4958 79.9677 88.5024 79.9976 88.5024C80.0275 88.5024 80.0571 88.4958 80.0842 88.483L81.2657 87.7969C81.3179 87.7666 81.3206 87.7225 81.2657 87.6977L80.1336 87.0419C80.1068 87.0284 80.0771 87.0213 80.0471 87.0213C80.017 87.0213 79.9874 87.0284 79.9605 87.0419ZM84.4009 89.7174L85.5824 89.0313C85.6346 89.0037 85.6373 88.9569 85.5824 88.9321L84.4503 88.2763C84.4232 88.2636 84.3937 88.2569 84.3638 88.2569C84.3338 88.2569 84.3043 88.2636 84.2772 88.2763L83.0957 88.9624C83.0435 88.9927 83.0407 89.0368 83.0957 89.0616L84.2278 89.7174C84.2548 89.7301 84.2844 89.7368 84.3143 89.7368C84.3442 89.7368 84.3738 89.7301 84.4009 89.7174ZM82.6698 90.7176L83.8541 90.0342C83.9035 90.0039 83.909 89.9598 83.8541 89.9323L82.7302 89.2738C82.7041 89.2595 82.6748 89.2521 82.6451 89.2521C82.6153 89.2521 82.586 89.2595 82.5599 89.2738L81.3756 89.9571C81.3261 89.9874 81.3206 90.0315 81.3756 90.059L82.5104 90.7121C82.5347 90.7253 82.5618 90.7327 82.5895 90.7336C82.6171 90.7346 82.6446 90.7291 82.6698 90.7176ZM80.9415 91.7205L82.123 91.0344C82.1752 91.0069 82.1779 90.96 82.123 90.9352L80.9909 90.2795C80.9638 90.2667 80.9343 90.2601 80.9044 90.2601C80.8744 90.2601 80.8449 90.2667 80.8178 90.2795L79.6363 90.9655C79.5841 90.9931 79.5813 91.0399 79.6363 91.0647L80.7683 91.7205C80.7954 91.7333 80.825 91.7399 80.8549 91.7399C80.8848 91.7399 80.9144 91.7333 80.9415 91.7205ZM79.2104 92.7207L80.3946 92.0374C80.4441 92.0071 80.4496 91.963 80.3946 91.9354L79.2626 91.2824C79.2364 91.2682 79.2071 91.2607 79.1774 91.2607C79.1476 91.2607 79.1184 91.2682 79.0922 91.2824L77.9079 91.9657C77.8585 91.996 77.853 92.0401 77.9079 92.0649L79.04 92.7207C79.0663 92.7345 79.0955 92.7416 79.1252 92.7416C79.1548 92.7416 79.1841 92.7345 79.2104 92.7207ZM88.0636 85.7221L89.2451 85.0388C89.2974 85.0085 89.3001 84.9644 89.2451 84.9396L88.1131 84.2838C88.0864 84.2696 88.0567 84.2622 88.0265 84.2622C87.9963 84.2622 87.9666 84.2696 87.94 84.2838L86.7584 84.9699C86.7062 84.9975 86.7035 85.0416 86.7584 85.0691L87.8905 85.7249C87.9176 85.738 87.9473 85.7446 87.9774 85.7441C88.0074 85.7437 88.037 85.7361 88.0636 85.7221ZM86.1402 88.7144L88.7808 87.188C88.8302 87.1577 88.8357 87.1136 88.7808 87.0888L86.033 85.4962C86.0064 85.482 85.9767 85.4745 85.9465 85.4745C85.9163 85.4745 85.8866 85.482 85.8599 85.4962L84.486 86.287C84.4366 86.3145 84.4311 86.3614 84.486 86.3862L85.9396 87.2293C85.9863 87.2541 85.9808 87.2982 85.9396 87.3285L84.8405 87.9622C84.791 87.9898 84.7856 88.0339 84.8405 88.0614L85.9753 88.7172C85.9991 88.729 86.0251 88.7356 86.0517 88.7366C86.0782 88.7375 86.1046 88.7328 86.1292 88.7227L86.1402 88.7144ZM78.2432 88.0449L77.0479 88.7227C76.9984 88.753 76.9929 88.7971 77.0479 88.8219L78.1827 89.4777C78.2089 89.4919 78.2381 89.4993 78.2679 89.4993C78.2976 89.4993 78.3269 89.4919 78.3531 89.4777L79.5373 88.7916C79.5868 88.764 79.5923 88.7199 79.5373 88.6924L78.4025 88.0366C78.3755 88.0243 78.346 88.0187 78.3164 88.0201C78.2867 88.0216 78.2579 88.03 78.2322 88.0449H78.2432ZM76.5121 89.0451L75.3305 89.7312C75.2783 89.7587 75.2756 89.8028 75.3305 89.8303L76.4626 90.4861C76.4897 90.4989 76.5193 90.5055 76.5492 90.5055C76.5791 90.5055 76.6087 90.4989 76.6357 90.4861L77.8173 89.8C77.8695 89.7697 77.8722 89.7256 77.8173 89.7008L76.6632 89.0396C76.6376 89.028 76.6096 89.0225 76.5815 89.0234C76.5534 89.0244 76.5259 89.0318 76.5011 89.0451H76.5121ZM66.9307 99.7441C66.957 99.7576 66.9862 99.7647 67.0159 99.7647C67.0455 99.7647 67.0747 99.7576 67.101 99.7441L68.2853 99.0607C68.3348 99.0304 68.3403 98.9864 68.2853 98.9616L67.1533 98.3058C67.1266 98.2915 67.0969 98.2841 67.0667 98.2841C67.0365 98.2841 67.0068 98.2915 66.9801 98.3058L65.7959 98.9891C65.7464 99.0194 65.7409 99.0635 65.7959 99.0911L66.9307 99.7441ZM62.6634 97.0631L61.4792 97.7464C61.4297 97.7768 61.4242 97.8208 61.4792 97.8456L62.6112 98.5014C62.6374 98.5156 62.6667 98.5231 62.6964 98.5231C62.7262 98.5231 62.7554 98.5156 62.7816 98.5014L63.9659 97.8181C64.0153 97.7878 64.0208 97.7437 63.9659 97.7161L62.8338 97.0631C62.8079 97.0485 62.7789 97.0404 62.7493 97.0394C62.7196 97.0384 62.6902 97.0447 62.6634 97.0576V97.0631ZM64.8616 99.069C64.8883 99.0832 64.918 99.0907 64.9482 99.0907C64.9784 99.0907 65.0081 99.0832 65.0347 99.069L66.2218 98.3664C66.2712 98.3388 66.2767 98.2948 66.2218 98.2672L65.0897 97.6114C65.0633 97.5979 65.0341 97.5908 65.0045 97.5908C64.9749 97.5908 64.9457 97.5979 64.9193 97.6114L63.7488 98.3085C63.6993 98.3388 63.6938 98.3829 63.7488 98.4077L64.8616 99.069ZM69.6345 100.146L70.8187 99.4603C70.8682 99.4327 70.8737 99.3886 70.8187 99.3611L69.6867 98.7053C69.6597 98.6923 69.6301 98.6856 69.6001 98.6856C69.5702 98.6856 69.5406 98.6923 69.5136 98.7053L68.3293 99.3914C68.2798 99.4217 68.2743 99.4658 68.3293 99.4906L69.4614 100.146C69.4878 100.159 69.5167 100.164 69.5458 100.164C69.5749 100.163 69.6034 100.155 69.629 100.141L69.6345 100.146ZM67.733 101.155C67.7599 101.168 67.7895 101.175 67.8196 101.175C67.8496 101.175 67.8793 101.168 67.9061 101.155L69.0904 100.471C69.1399 100.441 69.1426 100.397 69.0904 100.372L67.9583 99.7165C67.9322 99.7023 67.9029 99.6948 67.8732 99.6948C67.8434 99.6948 67.8141 99.7023 67.788 99.7165L66.6037 100.403C66.5542 100.43 66.5487 100.474 66.6037 100.502L67.733 101.155ZM64.4 96.0602L63.1992 96.7407C63.1498 96.7683 63.1443 96.8151 63.1992 96.8399L64.3313 97.4957C64.3583 97.5087 64.3879 97.5154 64.4179 97.5154C64.4478 97.5154 64.4774 97.5087 64.5044 97.4957L65.6887 96.8096C65.7382 96.7821 65.7437 96.7352 65.6887 96.7104L64.5731 96.0492C64.5451 96.0357 64.5142 96.0292 64.4831 96.0302C64.4521 96.0312 64.4217 96.0395 64.3945 96.0547L64.4 96.0602ZM73.0472 91.0537L71.8656 91.7398C71.8134 91.7674 71.8107 91.8114 71.8656 91.839L72.9977 92.4948C73.0246 92.5083 73.0542 92.5154 73.0843 92.5154C73.1143 92.5154 73.144 92.5083 73.1708 92.4948L74.3523 91.8114C74.4046 91.7811 74.4073 91.737 74.3523 91.7122L73.2203 91.0565C73.1937 91.04 73.1633 91.0306 73.132 91.0291C73.1008 91.0277 73.0697 91.0343 73.0417 91.0482L73.0472 91.0537ZM66.1228 95.06L64.9413 95.7433C64.8891 95.7736 64.8864 95.8177 64.9413 95.8453L66.0734 96.4983C66.0995 96.5125 66.1288 96.52 66.1586 96.52C66.1883 96.52 66.2176 96.5125 66.2437 96.4983L67.428 95.8149C67.4775 95.7846 67.483 95.7406 67.428 95.713L66.296 95.06C66.2693 95.0458 66.2396 95.0383 66.2094 95.0383C66.1792 95.0383 66.1495 95.0458 66.1228 95.06ZM74.7728 90.0508L73.5885 90.7368C73.539 90.7672 73.5335 90.8112 73.5885 90.836L74.7205 91.4918C74.7472 91.506 74.7769 91.5135 74.8071 91.5135C74.8373 91.5135 74.867 91.506 74.8937 91.4918L76.0779 90.8057C76.1274 90.7782 76.1329 90.7341 76.0779 90.7065L74.9431 90.0508C74.917 90.037 74.8881 90.0293 74.8586 90.0284C74.8291 90.0274 74.7997 90.0332 74.7728 90.0453V90.0508ZM71.3133 92.0539L70.1291 92.74C70.0796 92.7703 70.0741 92.8144 70.1291 92.8392L71.2611 93.495C71.288 93.5085 71.3176 93.5156 71.3477 93.5156C71.3778 93.5156 71.4074 93.5085 71.4342 93.495L72.6185 92.8089C72.668 92.7813 72.6735 92.7345 72.6185 92.7097L71.4864 92.0539C71.46 92.0397 71.4306 92.0318 71.4005 92.0308C71.3705 92.0299 71.3407 92.0359 71.3133 92.0484V92.0539ZM69.5823 93.0569L68.4007 93.7429C68.3485 93.7705 68.3458 93.8146 68.4007 93.8421L69.5328 94.4979C69.5596 94.5115 69.5893 94.5185 69.6194 94.5185C69.6494 94.5185 69.6791 94.5115 69.7059 94.4979L70.8874 93.8146C70.9397 93.7843 70.9424 93.7402 70.8874 93.7154L69.7554 93.0596C69.7294 93.0441 69.7 93.0352 69.6698 93.0338C69.6397 93.0323 69.6096 93.0384 69.5823 93.0513V93.0569ZM67.8539 94.057L66.6696 94.7431C66.6202 94.7734 66.6147 94.8175 66.6696 94.8423L67.8017 95.4981C67.8287 95.511 67.8583 95.5178 67.8883 95.5178C67.9182 95.5178 67.9478 95.511 67.9748 95.4981L69.1591 94.812C69.2086 94.7845 69.2141 94.7376 69.1591 94.7128L68.027 94.057C68.0006 94.0428 67.9711 94.0349 67.9411 94.034C67.9111 94.033 67.8813 94.039 67.8539 94.0515V94.057ZM75.751 94.7293L76.9352 94.0433C76.9847 94.0157 76.9902 93.9716 76.9352 93.9441L75.8032 93.2883C75.7768 93.2748 75.7476 93.2677 75.718 93.2677C75.6884 93.2677 75.6592 93.2748 75.6328 93.2883L74.465 93.9744C74.4155 94.0047 74.4101 94.0488 74.465 94.0736L75.5971 94.7293C75.6216 94.7396 75.6481 94.7444 75.6746 94.7435C75.7012 94.7425 75.7272 94.7358 75.751 94.7238V94.7293ZM91.8885 80.1425L90.7042 80.8286C90.6547 80.8562 90.6492 80.903 90.7042 80.9278L91.8363 81.5836C91.8633 81.5966 91.8929 81.6033 91.9228 81.6033C91.9528 81.6033 91.9824 81.5966 92.0094 81.5836L93.1937 80.8975C93.2431 80.8672 93.2486 80.8231 93.1937 80.7983L92.0506 80.1315C92.0248 80.1207 91.9969 80.1156 91.9689 80.1166C91.941 80.1175 91.9135 80.1245 91.8885 80.137V80.1425ZM89.7947 81.3549L88.6104 82.041C88.561 82.0685 88.5555 82.1126 88.6104 82.1402L89.7425 82.7959C89.7695 82.8089 89.7991 82.8156 89.829 82.8156C89.859 82.8156 89.8886 82.8089 89.9156 82.7959L91.0889 82.1099C91.1383 82.0796 91.1438 82.0355 91.0889 82.0107L89.9568 81.3549C89.9318 81.3424 89.9043 81.3354 89.8764 81.3344C89.8484 81.3335 89.8205 81.3386 89.7947 81.3494V81.3549ZM93.6168 79.1506L92.4353 79.8339C92.3831 79.8643 92.3803 79.9083 92.4353 79.9359L93.5673 80.5889C93.594 80.6032 93.6237 80.6106 93.6539 80.6106C93.6841 80.6106 93.7138 80.6032 93.7405 80.5889L94.922 79.9056C94.9742 79.8753 94.977 79.8312 94.922 79.8036L93.7899 79.1506C93.7644 79.1342 93.7353 79.1244 93.7051 79.122C93.6749 79.1196 93.6446 79.1247 93.6168 79.1368V79.1506ZM84.0574 88.0559L85.2389 87.3726C85.2911 87.3423 85.2939 87.2982 85.2389 87.2706L84.1069 86.6149C84.0805 86.6013 84.0513 86.5943 84.0217 86.5943C83.9921 86.5943 83.9629 86.6013 83.9365 86.6149L82.7522 87.2982C82.7028 87.3285 82.6973 87.3726 82.7522 87.3974L83.8843 88.0531C83.9118 88.0657 83.942 88.0713 83.9722 88.0694C84.0024 88.0674 84.0317 88.0581 84.0574 88.0421V88.0559ZM95.5183 78.1367C95.4917 78.1237 95.4626 78.117 95.4331 78.117C95.4036 78.117 95.3744 78.1237 95.3479 78.1367L94.1636 78.8227C94.1142 78.8503 94.1087 78.8971 94.1636 78.9219L95.2984 79.5777C95.325 79.5906 95.3541 79.5973 95.3836 79.5973C95.4131 79.5973 95.4422 79.5906 95.4688 79.5777L96.6531 78.8916C96.7025 78.8641 96.708 78.8172 96.6531 78.7924L95.5183 78.1367ZM77.4875 93.7236L78.6718 93.0376C78.724 93.0073 78.7268 92.9632 78.6718 92.9384L77.5397 92.2826C77.5127 92.2698 77.4831 92.2632 77.4532 92.2632C77.4233 92.2632 77.3937 92.2698 77.3666 92.2826L76.1851 92.9687C76.1329 92.9962 76.1301 93.0431 76.1851 93.0679L77.3172 93.7236C77.3437 93.7366 77.3728 93.7433 77.4024 93.7433C77.4319 93.7433 77.461 93.7366 77.4875 93.7236ZM98.7001 81.4431L99.8844 80.757C99.9339 80.7267 99.9394 80.6826 99.8844 80.6578L98.7524 80.002C98.7257 79.9878 98.696 79.9804 98.6658 79.9804C98.6356 79.9804 98.6059 79.9878 98.5792 80.002L97.395 80.6881C97.3455 80.7157 97.3428 80.7598 97.395 80.7873L98.527 81.4431C98.5529 81.4551 98.581 81.4614 98.6095 81.4614C98.6379 81.4614 98.6661 81.4551 98.6919 81.4431H98.7001ZM95.3534 81.5064L96.5377 80.8204C96.5871 80.7928 96.5926 80.7487 96.5377 80.7212L95.4056 80.0654C95.3787 80.0518 95.3491 80.0448 95.319 80.0448C95.289 80.0448 95.2593 80.0518 95.2325 80.0654L94.0482 80.7487C93.9987 80.779 93.9932 80.8231 94.0482 80.8479L95.1803 81.5037C95.2059 81.5179 95.2345 81.5255 95.2637 81.526C95.293 81.5265 95.3219 81.5198 95.3479 81.5064H95.3534ZM97.1449 79.0652C97.1184 79.0523 97.0893 79.0456 97.0597 79.0456C97.0302 79.0456 97.0011 79.0523 96.9746 79.0652L95.7903 79.7513C95.7408 79.7788 95.7353 79.8257 95.7903 79.8505L96.9224 80.5063C96.9494 80.519 96.979 80.5257 97.0089 80.5257C97.0388 80.5257 97.0684 80.519 97.0955 80.5063L98.277 79.8202C98.3292 79.7899 98.3319 79.7458 98.277 79.721L97.1449 79.0652ZM97.5104 78.853L100.258 80.4456C100.285 80.4599 100.314 80.4673 100.345 80.4673C100.375 80.4673 100.405 80.4599 100.431 80.4456L101.616 79.7596C101.665 79.732 101.67 79.6879 101.616 79.6604L98.8678 78.0705C98.8411 78.0563 98.8114 78.0489 98.7812 78.0489C98.751 78.0489 98.7213 78.0563 98.6946 78.0705L97.5104 78.7539C97.4609 78.7842 97.4554 78.8282 97.5021 78.853H97.5104ZM93.5124 81.0739L92.3309 81.7599C92.2787 81.7875 92.2759 81.8316 92.3309 81.8591L93.4629 82.5149C93.49 82.5277 93.5196 82.5343 93.5495 82.5343C93.5794 82.5343 93.609 82.5277 93.636 82.5149L94.7983 81.8343C94.8506 81.804 94.8533 81.7599 94.7983 81.7351L93.6663 81.0794C93.6413 81.0667 93.6138 81.0596 93.5858 81.0586C93.5578 81.0577 93.5299 81.0629 93.5042 81.0739H93.5124ZM80.4963 88.6097L79.312 89.2958C79.2598 89.3261 79.2571 89.3702 79.312 89.395L80.4441 90.0508C80.4708 90.065 80.5005 90.0724 80.5307 90.0724C80.5609 90.0724 80.5906 90.065 80.6172 90.0508L81.7987 89.3647C81.851 89.3371 81.8537 89.2931 81.7987 89.2655L80.6667 88.6097C80.6391 88.5955 80.6084 88.588 80.5774 88.588C80.5463 88.588 80.5157 88.5955 80.4881 88.6097H80.4963ZM96.7987 82.4488C96.8253 82.463 96.8551 82.4704 96.8853 82.4704C96.9154 82.4704 96.9452 82.463 96.9718 82.4488L98.1561 81.7627C98.2056 81.7351 98.211 81.6911 98.1561 81.6635L97.024 81.0077C96.9975 80.9948 96.9683 80.9881 96.9388 80.9881C96.9093 80.9881 96.8802 80.9948 96.8537 81.0077L95.6694 81.6938C95.6199 81.7241 95.6144 81.7682 95.6694 81.793L96.7987 82.4488ZM82.2356 87.6095L81.0514 88.2956C81.0019 88.3232 80.9964 88.3673 81.0514 88.3948L82.1834 89.0506C82.21 89.0635 82.2391 89.0702 82.2686 89.0702C82.2981 89.0702 82.3272 89.0635 82.3538 89.0506L83.5381 88.3645C83.5875 88.3342 83.593 88.2901 83.5381 88.2653L82.406 87.6095C82.3761 87.5948 82.343 87.588 82.3098 87.5899C82.2765 87.5919 82.2444 87.6024 82.2164 87.6206L82.2356 87.6095ZM68.6783 98.7356C68.7051 98.7492 68.7347 98.7562 68.7648 98.7562C68.7949 98.7562 68.8245 98.7492 68.8514 98.7356L70.0356 98.0495C70.0851 98.022 70.0906 97.9779 70.0356 97.9503L68.9036 97.2946C68.877 97.2816 68.8479 97.2749 68.8184 97.2749C68.7889 97.2749 68.7598 97.2816 68.7332 97.2946L67.5489 97.9807C67.4995 98.011 67.494 98.055 67.5489 98.0798L68.6783 98.7356ZM66.6669 96.6223L65.4854 97.3083C65.4332 97.3359 65.4304 97.3827 65.4854 97.4075L66.6174 98.0633C66.6445 98.0761 66.6741 98.0827 66.704 98.0827C66.7339 98.0827 66.7635 98.0761 66.7905 98.0633L67.9721 97.3772C68.0243 97.3469 68.027 97.3028 67.9721 97.278L66.84 96.6223C66.8104 96.6064 66.7774 96.598 66.7438 96.598C66.7103 96.598 66.6772 96.6064 66.6477 96.6223H66.6669ZM70.5797 97.7244L71.764 97.0411C71.8134 97.0108 71.8189 96.9667 71.764 96.9419L70.6182 96.2889C70.5915 96.2746 70.5618 96.2672 70.5316 96.2672C70.5014 96.2672 70.4717 96.2746 70.4451 96.2889L69.2663 96.9887C69.2168 97.0163 69.2113 97.0604 69.2663 97.0879L70.3983 97.7437C70.4249 97.7534 70.4532 97.7569 70.4813 97.7541C70.5094 97.7512 70.5364 97.742 70.5605 97.7272L70.5797 97.7244ZM72.3108 96.7242L73.4951 96.0381C73.5445 96.0106 73.55 95.9665 73.4951 95.9389L72.363 95.2832C72.3364 95.2702 72.3073 95.2635 72.2778 95.2635C72.2483 95.2635 72.2192 95.2702 72.1926 95.2832L71.0083 95.9692C70.9589 95.9996 70.9534 96.0436 71.0083 96.0684L72.1404 96.7242C72.164 96.7354 72.1896 96.7414 72.2157 96.7419C72.2417 96.7423 72.2676 96.7373 72.2915 96.727L72.3108 96.7242ZM74.0391 95.724L75.2234 95.0379C75.2728 95.0076 75.2783 94.9635 75.2234 94.9388L74.0913 94.283C74.0647 94.2687 74.035 94.2613 74.0048 94.2613C73.9746 94.2613 73.9449 94.2687 73.9182 94.283L72.7339 94.9691C72.6845 94.9966 72.6817 95.0407 72.7339 95.0683L73.866 95.724C73.8901 95.7349 73.9162 95.7408 73.9427 95.7413C73.9691 95.7417 73.9954 95.7368 74.0199 95.7268L74.0391 95.724ZM68.3787 95.6111L67.1945 96.2944C67.145 96.3247 67.1395 96.3688 67.1945 96.3963L68.3293 97.0493C68.3554 97.0636 68.3847 97.071 68.4145 97.071C68.4442 97.071 68.4735 97.0636 68.4996 97.0493L69.6839 96.366C69.7334 96.3357 69.7389 96.2916 69.6839 96.2641L68.5491 95.6111C68.523 95.5968 68.4937 95.5894 68.4639 95.5894C68.4342 95.5894 68.4049 95.5968 68.3787 95.6111ZM70.1071 94.6081L68.9255 95.2942C68.8733 95.3217 68.8706 95.3686 68.9255 95.3934L70.0576 96.0492C70.0847 96.0619 70.1142 96.0686 70.1442 96.0686C70.1741 96.0686 70.2037 96.0619 70.2307 96.0492L71.4123 95.3631C71.4645 95.3355 71.4672 95.2887 71.4123 95.2639L70.2802 94.6081C70.2523 94.597 70.2223 94.5923 70.1924 94.5942C70.1625 94.5961 70.1333 94.6046 70.1071 94.6191V94.6081ZM77.0259 90.6018L75.8444 91.2879C75.7922 91.3182 75.7894 91.3623 75.8444 91.3871L76.9765 92.0429C77.0031 92.0571 77.0328 92.0646 77.063 92.0646C77.0932 92.0646 77.1229 92.0571 77.1496 92.0429L78.3311 91.3568C78.3833 91.3292 78.386 91.2852 78.3311 91.2576L77.2128 90.6073C77.1834 90.5932 77.1512 90.5863 77.1187 90.5873C77.0862 90.5883 77.0543 90.597 77.0259 90.6129V90.6018ZM75.2893 91.6158L74.1133 92.3046C74.0638 92.3322 74.0583 92.3763 74.1133 92.4038L75.2454 93.0596C75.2717 93.0731 75.3009 93.0802 75.3305 93.0802C75.3602 93.0802 75.3894 93.0731 75.4157 93.0596L76.6 92.3763C76.6495 92.346 76.655 92.3019 76.6 92.2771L75.4679 91.6213C75.4411 91.6053 75.4106 91.5963 75.3793 91.5954C75.3481 91.5944 75.3171 91.6014 75.2893 91.6158ZM78.7487 89.6127L77.5645 90.2988C77.515 90.3263 77.5095 90.3704 77.5645 90.3979L78.6965 91.0537C78.7231 91.0666 78.7522 91.0733 78.7817 91.0733C78.8112 91.0733 78.8404 91.0666 78.8669 91.0537L80.0512 90.3676C80.1006 90.3373 80.1061 90.2932 80.0512 90.2684L78.9191 89.6127C78.8939 89.6003 78.8662 89.5938 78.8381 89.5938C78.81 89.5938 78.7822 89.6003 78.757 89.6127H78.7487ZM71.8299 93.6189L70.6456 94.3023C70.5962 94.3326 70.5907 94.3767 70.6456 94.4042L71.7805 95.0572C71.8066 95.0715 71.8359 95.0789 71.8656 95.0789C71.8954 95.0789 71.9247 95.0715 71.9508 95.0572L73.1351 94.3739C73.1846 94.3436 73.1901 94.2995 73.1351 94.2747L72.0003 93.6189C71.9752 93.6061 71.9474 93.5994 71.9192 93.5994C71.891 93.5994 71.8633 93.6061 71.8382 93.6189H71.8299ZM73.5583 92.616L72.3767 93.3021C72.3245 93.3324 72.3218 93.3765 72.3767 93.4013L73.5088 94.057C73.5359 94.0698 73.5654 94.0764 73.5953 94.0764C73.6253 94.0764 73.6548 94.0698 73.6819 94.057L74.8634 93.371C74.9156 93.3434 74.9184 93.2966 74.8634 93.2718L73.7314 92.616C73.7054 92.6045 73.6773 92.5985 73.6489 92.5985C73.6205 92.5985 73.5925 92.6045 73.5665 92.616H73.5583ZM71.3601 99.1407L72.5443 98.4546C72.5938 98.4243 72.5993 98.3802 72.5443 98.3554L71.4123 97.6996C71.3861 97.6854 71.3568 97.6779 71.3271 97.6779C71.2973 97.6779 71.268 97.6854 71.2419 97.6996L70.0686 98.3912C70.0192 98.4187 70.0137 98.4628 70.0686 98.4904L71.2007 99.1462C71.2262 99.1562 71.2535 99.1609 71.2809 99.16C71.3084 99.159 71.3353 99.1524 71.3601 99.1407ZM62.2375 98.7081L61.1055 98.0523C61.0789 98.0394 61.0498 98.0327 61.0203 98.0327C60.9908 98.0327 60.9616 98.0394 60.9351 98.0523L59.7508 98.7384C59.7014 98.7659 59.6959 98.81 59.7508 98.8376L60.8829 99.4933C60.9099 99.5063 60.9395 99.513 60.9694 99.513C60.9994 99.513 61.029 99.5063 61.056 99.4933L62.2403 98.8073C62.2787 98.7769 62.2842 98.7329 62.2375 98.7081ZM64.4934 99.2757L63.3614 98.6199C63.3345 98.6063 63.3049 98.5993 63.2748 98.5993C63.2447 98.5993 63.2151 98.6063 63.1883 98.6199L61.3692 99.6752C61.317 99.7027 61.3143 99.7468 61.3692 99.7744L62.5013 100.43C62.5284 100.443 62.5579 100.45 62.5879 100.45C62.6178 100.45 62.6473 100.443 62.6744 100.43L64.4934 99.3749C64.5346 99.3445 64.5374 99.3005 64.4934 99.2757ZM60.5477 97.4131L59.4156 96.7573C59.389 96.7444 59.3599 96.7376 59.3304 96.7376C59.3009 96.7376 59.2718 96.7444 59.2452 96.7573L57.7862 97.6004C57.7367 97.6307 57.734 97.6748 57.7862 97.6996L58.9182 98.3554C58.9444 98.3696 58.9737 98.3771 59.0034 98.3771C59.0332 98.3771 59.0625 98.3696 59.0886 98.3554L60.5477 97.5122C60.5889 97.4847 60.5944 97.4379 60.5477 97.4131ZM61.666 96.7655C61.6921 96.7798 61.7214 96.7872 61.7512 96.7872C61.7809 96.7872 61.8102 96.7798 61.8364 96.7655L63.0206 96.0795C63.0701 96.0519 63.0756 96.0078 63.0206 95.9803L61.8886 95.3245C61.8617 95.3109 61.8321 95.3039 61.802 95.3039C61.7719 95.3039 61.7423 95.3109 61.7155 95.3245L60.5312 96.0078C60.4817 96.0381 60.4762 96.0822 60.5312 96.107L61.666 96.7655ZM66.5652 99.948L65.4332 99.2922C65.4066 99.2793 65.3775 99.2726 65.348 99.2726C65.3185 99.2726 65.2893 99.2793 65.2628 99.2922L62.9849 100.609C62.9355 100.64 62.93 100.684 62.9849 100.711L64.117 101.367C64.1434 101.381 64.1725 101.388 64.2022 101.388C64.2318 101.388 64.261 101.381 64.2874 101.367L66.5652 100.05C66.6064 100.02 66.6119 99.9728 66.5652 99.948ZM67.3648 101.359L66.2218 100.703C66.1947 100.69 66.1652 100.683 66.1352 100.683C66.1053 100.683 66.0757 100.69 66.0487 100.703L64.5924 101.546C64.5429 101.576 64.5374 101.62 64.5924 101.648L65.7244 102.301C65.7511 102.315 65.7808 102.323 65.811 102.323C65.8412 102.323 65.8709 102.315 65.8975 102.301L67.3538 101.458C67.4033 101.43 67.4088 101.397 67.3648 101.359ZM74.5255 89.3206C74.5525 89.3336 74.5821 89.3403 74.612 89.3403C74.642 89.3403 74.6715 89.3336 74.6986 89.3206L75.8801 88.6345C75.9323 88.607 75.9351 88.5601 75.8801 88.5353L74.748 87.8796C74.7215 87.8666 74.6924 87.8599 74.6628 87.8599C74.6333 87.8599 74.6042 87.8666 74.5777 87.8796L73.3934 88.5656C73.3439 88.5959 73.3384 88.64 73.3934 88.6648L74.5255 89.3206ZM71.066 91.3237C71.0931 91.3365 71.1227 91.3431 71.1526 91.3431C71.1825 91.3431 71.2121 91.3365 71.2392 91.3237L72.4207 90.6377C72.4729 90.6101 72.4756 90.5633 72.4207 90.5385L71.2886 89.8827C71.2621 89.8698 71.2329 89.8631 71.2034 89.8631C71.1739 89.8631 71.1448 89.8698 71.1183 89.8827L69.934 90.5688C69.8818 90.5963 69.879 90.6432 69.934 90.668L71.066 91.3237ZM63.3943 95.7654C63.4214 95.7781 63.451 95.7848 63.4809 95.7848C63.5108 95.7848 63.5404 95.7781 63.5674 95.7654L64.749 95.0793C64.8012 95.0517 64.8039 95.0049 64.749 94.9801L63.6169 94.3243C63.5904 94.3114 63.5612 94.3047 63.5317 94.3047C63.5022 94.3047 63.4731 94.3114 63.4465 94.3243L62.2623 95.0104C62.2128 95.0379 62.2073 95.0848 62.2623 95.1096L63.3943 95.7654ZM72.7971 90.3208C72.8233 90.335 72.8526 90.3425 72.8823 90.3425C72.9121 90.3425 72.9413 90.335 72.9675 90.3208L74.1518 89.6375C74.2012 89.6072 74.2067 89.5631 74.1518 89.5383L73.0197 88.8825C72.993 88.8683 72.9633 88.8608 72.9331 88.8608C72.9029 88.8608 72.8732 88.8683 72.8466 88.8825L71.6623 89.5658C71.6128 89.5961 71.6073 89.6402 71.6623 89.6678L72.7971 90.3208ZM69.3377 92.3239C69.3639 92.3382 69.3931 92.3456 69.4229 92.3456C69.4526 92.3456 69.4819 92.3382 69.5081 92.3239L70.6923 91.6406C70.7418 91.6103 70.7473 91.5662 70.6923 91.5387L69.5603 90.8856C69.5336 90.8714 69.5039 90.864 69.4737 90.864C69.4435 90.864 69.4138 90.8714 69.3872 90.8856L68.2029 91.569C68.1534 91.5993 68.1479 91.6434 68.2029 91.6682L69.3377 92.3239ZM68.2139 101.43C68.1872 101.416 68.1575 101.409 68.1273 101.409C68.0971 101.409 68.0674 101.416 68.0408 101.43L66.2218 102.499C66.1696 102.53 66.1668 102.574 66.2218 102.599L67.3538 103.254C67.3805 103.269 67.4102 103.276 67.4404 103.276C67.4706 103.276 67.5003 103.269 67.5269 103.254L69.346 102.202C69.3982 102.172 69.4009 102.127 69.346 102.1L68.2139 101.43ZM66.8537 93.7622C66.8808 93.775 66.9104 93.7816 66.9403 93.7816C66.9702 93.7816 66.9998 93.775 67.0269 93.7622L68.2111 93.0761C68.2606 93.0486 68.2633 93.0017 68.2111 92.9769L67.0873 92.3046C67.0608 92.2917 67.0316 92.285 67.0021 92.285C66.9726 92.285 66.9435 92.2917 66.9169 92.3046L65.7327 92.9907C65.6832 93.0183 65.6777 93.0651 65.7327 93.0899L66.8537 93.7622ZM65.1227 94.7624C65.1488 94.7766 65.1781 94.7841 65.2078 94.7841C65.2376 94.7841 65.2669 94.7766 65.293 94.7624L66.4773 94.0791C66.5268 94.0488 66.5323 94.0047 66.4773 93.9799L65.3452 93.3241C65.3186 93.3099 65.2889 93.3024 65.2587 93.3024C65.2285 93.3024 65.1988 93.3099 65.1721 93.3241L63.9878 94.0074C63.9384 94.0378 63.9329 94.0818 63.9878 94.1094L65.1227 94.7624ZM100.258 82.8759C100.231 82.8629 100.202 82.8562 100.172 82.8562C100.142 82.8562 100.112 82.8629 100.085 82.8759L97.1724 84.5621C97.1229 84.5924 97.1174 84.6365 97.1724 84.6613L98.3045 85.3171C98.3311 85.3313 98.3608 85.3388 98.391 85.3388C98.4212 85.3388 98.4509 85.3313 98.4776 85.3171L101.39 83.6308C101.44 83.6033 101.445 83.5564 101.39 83.5316L100.258 82.8759ZM96.4333 85.0801C96.4066 85.0659 96.3769 85.0585 96.3467 85.0585C96.3165 85.0585 96.2868 85.0659 96.2601 85.0801L95.0786 85.7635C95.0264 85.7938 95.0237 85.8378 95.0786 85.8626L96.2107 86.5184C96.2373 86.5326 96.267 86.5401 96.2972 86.5401C96.3274 86.5401 96.3571 86.5326 96.3838 86.5184L97.5653 85.8323C97.6175 85.8048 97.6203 85.7607 97.5653 85.7331L96.4333 85.0801ZM73.0774 98.1267L74.2617 97.4406C74.3111 97.4131 74.3166 97.369 74.2617 97.3414L73.1296 96.6856C73.1026 96.6727 73.073 96.666 73.0431 96.666C73.0131 96.666 72.9835 96.6727 72.9565 96.6856L71.7722 97.3717C71.7228 97.402 71.7173 97.4461 71.7722 97.4709L72.9043 98.1267C72.9314 98.1457 72.9632 98.1568 72.9962 98.1587C73.0291 98.1607 73.062 98.1534 73.0911 98.1377L73.0774 98.1267ZM92.9656 87.0805C92.9387 87.0669 92.9091 87.0599 92.879 87.0599C92.849 87.0599 92.8193 87.0669 92.7925 87.0805L91.611 87.7638C91.5587 87.7941 91.556 87.8382 91.611 87.863L92.743 88.5188C92.7697 88.533 92.7994 88.5405 92.8296 88.5405C92.8598 88.5405 92.8895 88.533 92.9161 88.5188L94.0977 87.8327C94.1499 87.8052 94.1526 87.7611 94.0977 87.7335L92.9656 87.0805ZM101.978 81.8646C101.952 81.8504 101.923 81.843 101.893 81.843C101.863 81.843 101.834 81.8504 101.808 81.8646L100.624 82.548C100.574 82.5783 100.569 82.6224 100.624 82.6499L101.756 83.3029C101.782 83.3172 101.812 83.3246 101.842 83.3246C101.872 83.3246 101.902 83.3172 101.929 83.3029L103.11 82.6196C103.162 82.5893 103.165 82.5452 103.11 82.5177L101.978 81.8646ZM104.841 81.5175L102.094 79.9249C102.067 79.9121 102.037 79.9055 102.007 79.9055C101.977 79.9055 101.948 79.9121 101.921 79.9249L100.739 80.611C100.687 80.6413 100.684 80.6854 100.739 80.7102L103.487 82.3027C103.513 82.3157 103.542 82.3224 103.572 82.3224C103.601 82.3224 103.631 82.3157 103.657 82.3027L104.841 81.6167C104.891 81.6001 104.896 81.5588 104.852 81.5285L104.841 81.5175ZM86.5029 90.825C86.4762 90.8108 86.4465 90.8033 86.4163 90.8033C86.3861 90.8033 86.3564 90.8108 86.3298 90.825L84.8735 91.6682C84.824 91.6957 84.8185 91.7425 84.8735 91.7673L86.0055 92.4231C86.0326 92.4361 86.0621 92.4428 86.0921 92.4428C86.1221 92.4428 86.1516 92.4361 86.1787 92.4231L87.635 91.58C87.6844 91.5497 87.6899 91.5056 87.635 91.478L86.5029 90.825ZM90.8718 88.2929C90.845 88.2793 90.8153 88.2722 90.7853 88.2722C90.7552 88.2722 90.7255 88.2793 90.6987 88.2929L88.8797 89.3454C88.8275 89.3757 88.8247 89.4198 88.8797 89.4446L90.0118 90.1004C90.0384 90.1146 90.0681 90.122 90.0983 90.122C90.1285 90.122 90.1582 90.1146 90.1849 90.1004L92.0039 89.0451C92.0561 89.0175 92.0588 88.9734 92.0039 88.9459L90.8718 88.2929ZM82.4967 93.1423C82.4697 93.1293 82.4401 93.1226 82.4101 93.1226C82.3802 93.1226 82.3506 93.1293 82.3236 93.1423L72.5828 98.7825C72.5333 98.8128 72.5278 98.8568 72.5828 98.8816L73.7149 99.5374C73.7415 99.5517 73.7712 99.5591 73.8014 99.5591C73.8316 99.5591 73.8613 99.5517 73.888 99.5374L83.6287 93.8972C83.6782 93.8697 83.6837 93.8256 83.6287 93.798L82.4967 93.1423ZM72.2201 99.1103C72.1935 99.0961 72.1637 99.0887 72.1335 99.0887C72.1034 99.0887 72.0736 99.0961 72.047 99.1103L70.5907 99.9535C70.5412 99.9838 70.5357 100.028 70.5907 100.053L71.7228 100.708C71.7496 100.722 71.7792 100.729 71.8093 100.729C71.8394 100.729 71.869 100.722 71.8959 100.708L73.3522 99.8653C73.4016 99.835 73.4071 99.7909 73.3522 99.7661L72.2201 99.1103ZM84.5108 91.9933C84.4839 91.9797 84.4543 91.9727 84.4242 91.9727C84.3942 91.9727 84.3645 91.9797 84.3377 91.9933L82.8814 92.8364C82.8319 92.864 82.8264 92.9081 82.8814 92.9356L84.0134 93.5914C84.0405 93.6044 84.07 93.6111 84.1 93.6111C84.1299 93.6111 84.1595 93.6044 84.1865 93.5914L85.6428 92.7455C85.6923 92.7179 85.6978 92.6739 85.6428 92.6463L84.5108 91.9933ZM70.2225 100.259C70.1958 100.245 70.1661 100.238 70.1359 100.238C70.1057 100.238 70.076 100.245 70.0494 100.259L68.5931 101.102C68.5436 101.13 68.5381 101.177 68.5931 101.202L69.7251 101.857C69.7522 101.87 69.7817 101.877 69.8117 101.877C69.8417 101.877 69.8712 101.87 69.8983 101.857L71.3546 101.014C71.404 100.984 71.4095 100.94 71.3546 100.915L70.2225 100.259ZM88.5197 89.665C88.4936 89.6508 88.4643 89.6433 88.4346 89.6433C88.4048 89.6433 88.3755 89.6508 88.3494 89.665L86.8931 90.5082C86.8436 90.5357 86.8381 90.5826 86.8931 90.6073L88.0251 91.2631C88.0522 91.2759 88.0818 91.2825 88.1117 91.2825C88.1416 91.2825 88.1712 91.2759 88.1983 91.2631L89.6546 90.42C89.704 90.3897 89.7095 90.3456 89.6546 90.3208L88.5197 89.665ZM94.7132 86.0831C94.6861 86.0701 94.6566 86.0634 94.6266 86.0634C94.5967 86.0634 94.5671 86.0701 94.5401 86.0831L93.3503 86.794C93.3008 86.8215 93.2953 86.8656 93.3503 86.8931L94.4824 87.5489C94.5089 87.5618 94.538 87.5685 94.5675 87.5685C94.597 87.5685 94.6262 87.5618 94.6527 87.5489L95.837 86.8628C95.8865 86.8325 95.8919 86.7884 95.837 86.7636L94.7132 86.0831ZM98.5875 83.3718L99.769 82.6857C99.8212 82.6582 99.824 82.6113 99.769 82.5865L98.6452 81.939C98.6181 81.9263 98.5886 81.9196 98.5586 81.9196C98.5287 81.9196 98.4992 81.9263 98.4721 81.939L97.2906 82.6251C97.2383 82.6554 97.2356 82.6995 97.2906 82.7243L98.4226 83.3801C98.4478 83.3908 98.4749 83.3964 98.5023 83.3964C98.5297 83.3964 98.5568 83.3908 98.582 83.3801L98.5875 83.3718ZM91.5285 83.7135L92.7101 83.0274C92.7623 82.9971 92.765 82.953 92.7101 82.9282L91.578 82.2724C91.5513 82.2582 91.5216 82.2508 91.4914 82.2508C91.4612 82.2508 91.4315 82.2582 91.4049 82.2724L90.2233 82.9585C90.1711 82.9861 90.1684 83.0302 90.2233 83.0577L91.3554 83.7135C91.3812 83.7267 91.4094 83.7343 91.4383 83.7358C91.4672 83.7372 91.4961 83.7324 91.523 83.7217L91.5285 83.7135ZM86.9343 90.1169L90.4019 88.1248C90.4514 88.0945 90.4569 88.0504 90.4019 88.0228L89.2699 87.3671C89.2435 87.3535 89.2143 87.3465 89.1847 87.3465C89.1551 87.3465 89.1259 87.3535 89.0995 87.3671L85.6401 89.3702C85.5879 89.3978 85.5851 89.4418 85.6401 89.4694L86.7722 90.1252C86.7968 90.1362 86.8235 90.1419 86.8505 90.1419C86.8775 90.1419 86.9041 90.1362 86.9288 90.1252L86.9343 90.1169ZM96.6833 84.3775C96.7099 84.3917 96.7397 84.3992 96.7698 84.3992C96.8 84.3992 96.8298 84.3917 96.8564 84.3775L98.0407 83.6942C98.0901 83.6639 98.0956 83.6198 98.0407 83.595L96.9114 82.9365C96.8852 82.9222 96.8559 82.9148 96.8262 82.9148C96.7964 82.9148 96.7672 82.9222 96.741 82.9365L95.5567 83.6198C95.5073 83.6501 95.5018 83.6942 95.5567 83.7217L96.6833 84.3775ZM95.238 83.4352L96.4223 82.7519C96.4717 82.7215 96.4772 82.6775 96.4223 82.6527L95.2902 81.9969C95.2635 81.9827 95.2338 81.9752 95.2036 81.9752C95.1735 81.9752 95.1437 81.9827 95.1171 81.9969L93.9328 82.683C93.8833 82.7105 93.8778 82.7546 93.9328 82.7822L95.0649 83.4379C95.0905 83.4519 95.1189 83.4597 95.148 83.4606C95.1771 83.4616 95.206 83.4557 95.2325 83.4435L95.238 83.4352ZM85.2032 91.1198L86.3875 90.4338C86.437 90.4062 86.4424 90.3594 86.3875 90.3346L85.2554 89.6788C85.2289 89.6659 85.1997 89.6592 85.1702 89.6592C85.1407 89.6592 85.1116 89.6659 85.0851 89.6788L83.9035 90.3759C83.8541 90.4062 83.8486 90.4503 83.9035 90.4751L85.0356 91.1309C85.0613 91.1417 85.089 91.1471 85.1169 91.1466C85.1449 91.1462 85.1724 91.1399 85.1977 91.1281L85.2032 91.1198ZM92.8612 86.5928C92.8877 86.6057 92.9169 86.6124 92.9464 86.6124C92.9759 86.6124 93.005 86.6057 93.0315 86.5928L94.2158 85.9067C94.268 85.8792 94.2708 85.8323 94.2158 85.8075L93.0838 85.1518C93.0567 85.139 93.0271 85.1324 92.9972 85.1324C92.9673 85.1324 92.9377 85.139 92.9106 85.1518L91.7291 85.8378C91.6769 85.8654 91.6742 85.9122 91.7291 85.937L92.8612 86.5928ZM76.5533 96.1263L77.7376 95.4402C77.787 95.4127 77.7925 95.3686 77.7376 95.341L76.6055 94.6853C76.5787 94.6717 76.549 94.6646 76.519 94.6646C76.4889 94.6646 76.4592 94.6717 76.4324 94.6853L75.2509 95.3686C75.1987 95.3989 75.1959 95.443 75.2509 95.4678L76.3829 96.1235C76.4075 96.1386 76.4353 96.1474 76.464 96.1493C76.4927 96.1512 76.5215 96.1462 76.5478 96.1346L76.5533 96.1263ZM78.2844 95.1261L79.4687 94.44C79.5181 94.4097 79.5236 94.3656 79.4687 94.3408L78.3393 93.6823C78.3128 93.6694 78.2837 93.6627 78.2542 93.6627C78.2246 93.6627 78.1955 93.6694 78.169 93.6823L76.9847 94.3684C76.9352 94.3959 76.9297 94.4428 76.9847 94.4676L78.1168 95.1234C78.1415 95.1364 78.1687 95.1442 78.1967 95.1461C78.2246 95.148 78.2526 95.144 78.2789 95.1344L78.2844 95.1261ZM74.825 97.1293L76.0092 96.4432C76.0587 96.4129 76.0642 96.3688 76.0092 96.344L74.8772 95.6882C74.8508 95.6747 74.8216 95.6676 74.792 95.6676C74.7624 95.6676 74.7332 95.6747 74.7068 95.6882L73.5225 96.3743C73.4731 96.4018 73.4676 96.4459 73.5225 96.4735L74.6546 97.1293C74.6799 97.1423 74.7077 97.1497 74.7362 97.1512C74.7646 97.1526 74.793 97.1479 74.8195 97.1375L74.825 97.1293ZM81.7383 93.1312L82.9226 92.4452C82.972 92.4176 82.9775 92.3708 82.9226 92.346L81.7905 91.6902C81.764 91.6773 81.7348 91.6706 81.7053 91.6706C81.6758 91.6706 81.6467 91.6773 81.6201 91.6902L80.4359 92.3763C80.3864 92.4038 80.3809 92.4507 80.4359 92.4755L81.5679 93.1312C81.5946 93.1438 81.6237 93.1503 81.6531 93.1503C81.6826 93.1503 81.7116 93.1438 81.7383 93.1312ZM80.0072 94.1314L81.1915 93.4481C81.2437 93.4178 81.2465 93.3737 81.1915 93.3462L80.0594 92.6931C80.0328 92.6789 80.0031 92.6715 79.9729 92.6715C79.9427 92.6715 79.913 92.6789 79.8863 92.6931L78.7048 93.3765C78.6526 93.4068 78.6498 93.4509 78.7048 93.4757L79.8369 94.1314C79.863 94.1457 79.8923 94.1531 79.922 94.1531C79.9518 94.1531 79.9811 94.1457 80.0072 94.1314ZM83.4694 92.1283L84.6509 91.445C84.7031 91.4147 84.7059 91.3706 84.6509 91.3458L83.5326 90.69C83.5059 90.6758 83.4762 90.6683 83.446 90.6683C83.4158 90.6683 83.3861 90.6758 83.3595 90.69L82.1779 91.3733C82.1257 91.4036 82.123 91.4477 82.1779 91.4753L83.31 92.1311C83.3352 92.142 83.3625 92.1475 83.39 92.147C83.4175 92.1465 83.4446 92.1402 83.4694 92.1283ZM92.9079 78.1973C92.934 78.2115 92.9633 78.219 92.9931 78.219C93.0228 78.219 93.0521 78.2115 93.0783 78.1973L94.2625 77.5112C94.312 77.4836 94.3175 77.4396 94.2625 77.412L93.9603 77.2384C93.9341 77.2242 93.9049 77.2167 93.8751 77.2167C93.8454 77.2167 93.8161 77.2242 93.7899 77.2384L92.6056 77.9245C92.5562 77.9521 92.5507 77.9961 92.6056 78.0237L92.9079 78.1973ZM84.3102 83.6556C84.3363 83.6698 84.3656 83.6773 84.3954 83.6773C84.4251 83.6773 84.4544 83.6698 84.4806 83.6556L85.6648 82.9695C85.7143 82.942 85.7198 82.8979 85.6648 82.8703L84.5328 82.2146C84.5059 82.201 84.4763 82.1939 84.4462 82.1939C84.4161 82.1939 84.3865 82.201 84.3597 82.2146L83.1781 82.8979C83.1259 82.9282 83.1232 82.9723 83.1781 82.9971L84.3102 83.6556ZM87.7696 81.6525C87.7963 81.6667 87.826 81.6742 87.8562 81.6742C87.8863 81.6742 87.9161 81.6667 87.9427 81.6525L89.1242 80.9692C89.1765 80.9388 89.1792 80.8948 89.1242 80.8672L87.9922 80.2114C87.9653 80.1979 87.9357 80.1908 87.9056 80.1908C87.8756 80.1908 87.8459 80.1979 87.8191 80.2114L86.6375 80.8948C86.5853 80.9251 86.5826 80.9692 86.6375 80.994L87.7696 81.6525ZM82.1972 84.879C82.2243 84.8918 82.2538 84.8984 82.2837 84.8984C82.3136 84.8984 82.3432 84.8918 82.3703 84.879L83.5546 84.1929C83.604 84.1654 83.6068 84.1185 83.5546 84.0937L82.4335 83.4324C82.4069 83.4195 82.3778 83.4128 82.3483 83.4128C82.3188 83.4128 82.2897 83.4195 82.2631 83.4324L81.0788 84.1185C81.0294 84.1488 81.0239 84.1929 81.0788 84.2177L82.1972 84.879ZM86.044 82.6554C86.071 82.6684 86.1006 82.6751 86.1306 82.6751C86.1605 82.6751 86.1901 82.6684 86.2171 82.6554L87.4014 81.9693C87.4509 81.939 87.4564 81.895 87.4014 81.8702L86.2803 81.2089C86.2538 81.196 86.2247 81.1892 86.1951 81.1892C86.1656 81.1892 86.1365 81.196 86.11 81.2089L84.9065 81.9005C84.857 81.928 84.8515 81.9721 84.9065 81.9997L86.044 82.6554ZM78.7433 86.8821C78.7703 86.8949 78.7999 86.9015 78.8298 86.9015C78.8597 86.9015 78.8893 86.8949 78.9164 86.8821L80.0979 86.196C80.1501 86.1685 80.1528 86.1216 80.0979 86.0969L78.9658 85.4411C78.9393 85.4282 78.9102 85.4214 78.8806 85.4214C78.8511 85.4214 78.822 85.4282 78.7955 85.4411L77.6112 86.1272C77.559 86.1575 77.5562 86.2016 77.6112 86.2264L78.7433 86.8821ZM80.4743 85.8819C80.5007 85.8955 80.5299 85.9025 80.5595 85.9025C80.5891 85.9025 80.6183 85.8955 80.6447 85.8819L81.829 85.1986C81.8784 85.1683 81.8839 85.1242 81.829 85.0994L80.6969 84.4436C80.6703 84.4294 80.6405 84.422 80.6103 84.422C80.5802 84.422 80.5504 84.4294 80.5238 84.4436L79.3395 85.127C79.2901 85.1573 79.2846 85.2014 79.3395 85.2289L80.4743 85.8819ZM89.454 80.2004C89.4805 80.2133 89.5096 80.22 89.5391 80.22C89.5687 80.22 89.5978 80.2133 89.6243 80.2004L90.8086 79.5143C90.8581 79.4868 90.8636 79.4427 90.8086 79.4151L90.5064 79.2416C90.4802 79.2273 90.4509 79.2199 90.4212 79.2199C90.3914 79.2199 90.3622 79.2273 90.336 79.2416L89.1517 79.9276C89.1023 79.9552 89.0968 79.9993 89.1517 80.0268L89.454 80.2004ZM94.6417 77.1971C94.6687 77.2101 94.6983 77.2168 94.7283 77.2168C94.7582 77.2168 94.7878 77.2101 94.8148 77.1971L95.9991 76.511C96.0486 76.4807 96.0541 76.4366 95.9991 76.4118L95.6996 76.2355C95.6728 76.2219 95.6431 76.2148 95.613 76.2148C95.583 76.2148 95.5533 76.2219 95.5265 76.2355L94.3422 76.9188C94.2928 76.9491 94.2873 76.9932 94.3422 77.018L94.6417 77.1971ZM97.0213 78.5748C97.0479 78.589 97.0776 78.5964 97.1078 78.5964C97.138 78.5964 97.1677 78.589 97.1944 78.5748L98.3759 77.8914C98.4281 77.8611 98.4309 77.817 98.3759 77.7922L97.2438 77.1365C97.2172 77.1222 97.1875 77.1148 97.1573 77.1148C97.1271 77.1148 97.0974 77.1222 97.0707 77.1365L95.8892 77.8198C95.837 77.8501 95.8342 77.8942 95.8892 77.9217L97.0213 78.5748ZM100.319 82.3799L101.503 81.6966C101.552 81.6663 101.558 81.6222 101.503 81.5974L100.368 80.9416C100.342 80.9274 100.313 80.9199 100.283 80.9199C100.253 80.9199 100.224 80.9274 100.198 80.9416L99.0134 81.6277C98.9639 81.6552 98.9584 81.6993 99.0134 81.7269L100.148 82.3826C100.173 82.3953 100.201 82.4021 100.229 82.4026C100.257 82.4031 100.285 82.3972 100.31 82.3854L100.319 82.3799ZM91.1851 79.203C91.2119 79.2165 91.2415 79.2236 91.2716 79.2236C91.3017 79.2236 91.3313 79.2165 91.3582 79.203L92.5424 78.5197C92.5919 78.4893 92.5974 78.4453 92.5424 78.4205L92.2429 78.2441C92.2159 78.2312 92.1863 78.2244 92.1564 78.2244C92.1264 78.2244 92.0969 78.2312 92.0698 78.2441L90.8856 78.9302C90.8361 78.9605 90.8306 79.0046 90.8856 79.0294L91.1851 79.203ZM77.0094 87.8961C77.0356 87.9103 77.0649 87.9178 77.0946 87.9178C77.1244 87.9178 77.1536 87.9103 77.1798 87.8961L78.3641 87.2128C78.4135 87.1825 78.419 87.1384 78.3641 87.1108L77.232 86.4578C77.2053 86.4436 77.1756 86.4361 77.1454 86.4361C77.1153 86.4361 77.0855 86.4436 77.0589 86.4578L75.8746 87.1411C75.8251 87.1714 75.8196 87.2155 75.8746 87.2403L77.0094 87.8961Z" fill="#8C8C8C"/>
<path d="M81.9629 97.7535L82.2184 97.9023L89.0548 101.859L101.211 94.8218L101.464 94.6758L94.3717 90.5703L81.9629 97.7535Z" fill="#BDBDBD"/>
<path d="M101.054 94.9126L94.3717 91.0469L82.375 97.9959L89.0548 101.862L101.054 94.9126Z" fill="#727272"/>
<path d="M51.6314 66.7336C51.4773 66.6301 51.3496 66.4916 51.2589 66.3293C51.1682 66.167 51.1169 65.9855 51.1094 65.7996V62.7687C51.1196 62.5776 51.1748 62.3917 51.2703 62.226C51.3658 62.0604 51.4989 61.9196 51.6589 61.8154L86.7642 41.4699C86.9231 41.3703 87.1062 41.3159 87.2936 41.3127C87.481 41.3094 87.6658 41.3573 87.8282 41.4513C87.9905 41.5453 88.1243 41.6818 88.2152 41.8463C88.3061 42.0107 88.3507 42.1968 88.3441 42.3847V45.4155C88.3345 45.6068 88.2796 45.793 88.1841 45.9587C88.0885 46.1245 87.955 46.2651 87.7946 46.3689L52.6948 66.7144C52.5317 66.8015 52.3503 66.8487 52.1654 66.8521C51.9806 66.8554 51.7976 66.8149 51.6314 66.7336Z" fill="#E0E0E0"/>
<path opacity="0.15" d="M52.3065 62.8236C52.2066 62.9903 52.1517 63.1802 52.1471 63.3746V65.0278L51.1084 64.441V62.7877C51.1071 62.7657 51.1071 62.7436 51.1084 62.7216C51.1127 62.6753 51.12 62.6292 51.1304 62.5839C51.1592 62.4638 51.2055 62.3487 51.2678 62.2422L52.3065 62.8236Z" fill="#474747"/>
<path d="M88.3481 42.3963V44.0495L69.1825 55.1646L53.6577 64.1525L52.1465 65.0287V63.3755C52.1572 63.1845 52.2125 62.9987 52.308 62.8331C52.4034 62.6676 52.5363 62.5268 52.696 62.4221L87.8013 42.0794C88.1008 41.9031 88.3481 42.0464 88.3481 42.3963Z" fill="#F0F0F0"/>
<path d="M86.8455 43.4391C87.0406 43.3261 87.1999 43.417 87.1999 43.6457C87.1931 43.7689 87.1575 43.8887 87.0959 43.9954C87.0343 44.1022 86.9485 44.1929 86.8455 44.2602C86.6476 44.3759 86.4883 44.2822 86.4883 44.0563C86.4948 43.9324 86.5305 43.8118 86.5926 43.7045C86.6547 43.5972 86.7414 43.5062 86.8455 43.4391Z" fill="white"/>
<path d="M85.5654 44.1774C85.7632 44.0644 85.9226 44.1553 85.9226 44.384C85.9155 44.5078 85.8794 44.6281 85.8174 44.7353C85.7553 44.8425 85.669 44.9336 85.5654 45.0012C85.3703 45.1142 85.2109 45.0205 85.2109 44.7946C85.2178 44.6711 85.2534 44.5509 85.315 44.4437C85.3765 44.3365 85.4623 44.2453 85.5654 44.1774Z" fill="white"/>
<path d="M84.2881 44.9151C84.4859 44.8022 84.6453 44.8959 84.6453 45.1218C84.6386 45.2457 84.6027 45.3662 84.5406 45.4734C84.4785 45.5807 84.392 45.6717 84.2881 45.739C84.093 45.852 83.9336 45.7583 83.9336 45.5323C83.9408 45.4089 83.9767 45.2889 84.0382 45.1818C84.0997 45.0747 84.1853 44.9834 84.2881 44.9151Z" fill="white"/>
<path d="M52.6944 89.4572C52.5631 89.535 52.4152 89.5804 52.263 89.5894C52.0461 89.6165 51.8261 89.5782 51.631 89.4792C51.4782 89.375 51.352 89.2361 51.2628 89.0738C51.1735 88.9115 51.1236 88.7304 51.1172 88.5452V64.4414L52.1503 65.0393V89.1403C52.1503 89.3883 52.274 89.5343 52.4553 89.5343C52.5401 89.5284 52.6221 89.5019 52.6944 89.4572Z" fill="#E0E0E0"/>
<path d="M52.4492 89.4654C52.3008 89.4654 52.2129 89.3441 52.2129 89.1402V65.0778L69.216 55.2357L88.2798 44.1758V68.1611C88.2701 68.3402 88.2185 68.5146 88.1292 68.6701C88.04 68.8257 87.9156 68.958 87.766 69.0565L52.6608 89.3993C52.5972 89.4395 52.5243 89.4623 52.4492 89.4654Z" fill="#FAFAFA"/>
<path d="M88.2029 44.2928V68.1596C88.1916 68.3252 88.1424 68.486 88.059 68.6294C87.9756 68.7728 87.8602 68.8949 87.722 68.9862L52.625 89.3399C52.572 89.3728 52.5115 89.3918 52.4492 89.395C52.298 89.395 52.2816 89.2159 52.2816 89.1388V65.1149L53.7269 64.2883L69.2434 55.2921L88.2029 44.2928ZM88.3402 44.0586L69.1747 55.1737L53.6499 64.1616L52.1387 65.0378V89.1388C52.1387 89.3868 52.2623 89.5328 52.4409 89.5328C52.5279 89.5296 52.6124 89.503 52.6855 89.4556L87.7907 69.1129C87.9507 69.0086 88.0838 68.8679 88.1793 68.7023C88.2748 68.5366 88.33 68.3507 88.3402 68.1596V44.0586Z" fill="#E0E0E0"/>
<path d="M86.8756 57.1712L53.6113 76.4283V69.1321L86.8756 49.875V57.1712Z" fill="#F0F0F0"/>
<path d="M86.5105 68.13L78.8388 72.5716C78.6437 72.6846 78.4844 72.5716 78.4844 72.2961V64.03C78.4864 63.8971 78.5195 63.7665 78.5811 63.6488C78.6426 63.531 78.7309 63.4295 78.8388 63.3522L86.5105 58.9106C86.7056 58.7976 86.865 58.9106 86.865 59.1861V67.4522C86.863 67.5851 86.8299 67.7157 86.7683 67.8334C86.7067 67.9512 86.6184 68.0527 86.5105 68.13Z" fill="#E0E0E0"/>
<path opacity="0.05" d="M86.5105 68.13L78.8388 72.5716C78.6437 72.6846 78.4844 72.5716 78.4844 72.2961V64.03C78.4864 63.8971 78.5195 63.7665 78.5811 63.6488C78.6426 63.531 78.7309 63.4295 78.8388 63.3522L86.5105 58.9106C86.7056 58.7976 86.865 58.9106 86.865 59.1861V67.4522C86.863 67.5851 86.8299 67.7157 86.7683 67.8334C86.7067 67.9512 86.6184 68.0527 86.5105 68.13Z" fill="#474747"/>
<path d="M79.0781 71.5176V68.9689L81.2269 64.5108L83.6971 66.6654L83.1146 65.4917L84.4252 63.1992L86.2717 64.7367V67.3515L79.0781 71.5176Z" fill="#FAFAFA"/>
<path d="M83.4408 62.6642C83.5733 62.2245 83.4905 61.8104 83.256 61.7394C83.0214 61.6683 82.7239 61.9672 82.5914 62.4069C82.4589 62.8467 82.5417 63.2607 82.7763 63.3318C83.0108 63.4028 83.3083 63.104 83.4408 62.6642Z" fill="#FAFAFA"/>
<path d="M74.0953 75.3175L66.4209 79.7591C66.2258 79.8721 66.0664 79.7591 66.0664 79.4836V71.2175C66.0684 71.0846 66.1015 70.954 66.1631 70.8363C66.2247 70.7185 66.313 70.617 66.4209 70.5397L74.0953 66.0981C74.2904 65.9851 74.447 66.0981 74.447 66.3736V74.6397C74.4451 74.7723 74.4123 74.9027 74.3513 75.0204C74.2902 75.138 74.2026 75.2398 74.0953 75.3175Z" fill="#E0E0E0"/>
<path d="M66.6641 78.7023V76.1564L68.8101 71.6983L71.283 73.8529L70.6978 72.6792L72.0112 70.3867L73.8549 71.9242V74.539L66.6641 78.7023Z" fill="#FAFAFA"/>
<path d="M71.09 70.0167C71.0942 70.2149 71.0524 70.4114 70.968 70.5907C70.8836 70.77 70.7589 70.9272 70.6037 71.0499C70.3289 71.207 70.1173 70.9948 70.1173 70.5815C70.1147 70.3822 70.1586 70.1849 70.2454 70.0056C70.3322 69.8262 70.4596 69.6696 70.6174 69.5483C70.8729 69.3912 71.09 69.6006 71.09 70.0167Z" fill="#FAFAFA"/>
<path d="M61.6785 82.5045L54.0068 86.9489C53.8117 87.0619 53.6523 86.9489 53.6523 86.6734V78.4073C53.6544 78.2744 53.6875 78.1438 53.749 78.0261C53.8106 77.9083 53.8989 77.8068 54.0068 77.7295L61.6785 73.2934C61.8736 73.1804 62.033 73.2934 62.033 73.5689V81.835C62.0297 81.9665 61.996 82.0954 61.9344 82.2116C61.8729 82.3278 61.7853 82.4281 61.6785 82.5045Z" fill="#F0F0F0"/>
<path d="M54.2461 85.8938V83.3478L56.3948 78.8897L58.8651 81.0443L58.2825 79.8706L59.5932 77.5781L61.4397 79.1128V81.7304L54.2461 85.8938Z" fill="#FAFAFA"/>
<path d="M58.6768 77.2016C58.6804 77.4 58.6381 77.5965 58.5533 77.7758C58.4684 77.9551 58.3433 78.1122 58.1877 78.2348C57.9129 78.3919 57.7013 78.1797 57.7013 77.7636C57.6984 77.5656 57.7407 77.3696 57.825 77.1905C57.9093 77.0114 58.0333 76.854 58.1877 76.7304C58.4569 76.5761 58.6768 76.7855 58.6768 77.2016Z" fill="#FAFAFA"/>
<path d="M86.8766 48.2323L82.7852 50.5992V49.07L86.8766 46.7031V48.2323Z" fill="#E0E0E0"/>
<path d="M82.5953 50.7089L78.5039 53.0785V51.5493L82.5953 49.1797V50.7089Z" fill="#E0E0E0"/>
<path d="M78.3141 53.1882L74.2227 55.5551V54.0258L78.3141 51.6562V53.1882Z" fill="#E0E0E0"/>
<path d="M57.7027 65.1191L53.6113 67.4887V65.9594L57.7027 63.5898V65.1191Z" fill="#E0E0E0"/>
<path d="M42.1738 103.432V65.7339C42.1738 64.7502 42.2645 64.4196 41.7204 64.0118C41.4603 63.8416 41.1582 63.7471 40.8477 63.7389C40.5373 63.7306 40.2306 63.8089 39.9618 63.9649L24.2365 73.0576C23.9154 73.2703 23.6487 73.5556 23.4578 73.8906C23.2669 74.2256 23.1571 74.6009 23.1374 74.9863V113.189C23.1207 113.454 23.1839 113.719 23.3186 113.948C23.4533 114.176 23.6534 114.36 23.893 114.473C24.1067 114.622 24.3608 114.702 24.6212 114.702C24.8815 114.702 25.1356 114.622 25.3493 114.473L41.0747 105.38C41.4227 105.193 41.7106 104.911 41.9051 104.566C42.0996 104.221 42.1928 103.828 42.1738 103.432Z" fill="#727272"/>
<path d="M41.1725 103.792L25.0048 113.155V74.8006L23.4468 73.9023C23.2454 74.2356 23.1328 74.6151 23.1198 75.0045V113.188C23.1032 113.453 23.1663 113.717 23.301 113.946C23.4357 114.175 23.6358 114.358 23.8754 114.472C24.0891 114.621 24.3432 114.701 24.6036 114.701C24.8639 114.701 25.118 114.621 25.3317 114.472L41.0571 105.379C41.4939 105.144 41.835 104.763 42.0216 104.302L41.9584 104.263L41.1725 103.792Z" fill="#BDBDBD"/>
<path d="M41.0329 64.9126L25.2608 74.0438C25.0341 74.1929 24.8454 74.3932 24.7099 74.6286C24.5744 74.864 24.4958 75.128 24.4805 75.3995V113.277C24.4805 114.04 25.03 114.352 25.6812 113.969L41.0329 105.083C41.2895 104.914 41.503 104.687 41.6562 104.421C41.8094 104.154 41.898 103.855 41.9149 103.548V65.4251C41.9149 64.863 41.5193 64.6316 41.0329 64.9126Z" fill="#8C8C8C"/>
<path d="M41.1457 67.2277V102.634C41.1302 102.926 41.0463 103.211 40.9007 103.465C40.7551 103.718 40.5519 103.934 40.3076 104.094L26.088 112.333C25.6264 112.608 25.2637 112.385 25.2637 111.848V76.1798C25.285 75.6998 25.4873 75.2458 25.8297 74.9096L25.9094 74.838C25.9631 74.795 26.0201 74.7563 26.0798 74.7222L30.0805 72.405C30.0805 72.405 30.1959 72.3361 30.3552 72.2562C30.5146 72.1763 30.63 72.2369 30.63 72.405C30.63 72.5731 30.7537 72.6364 30.9048 72.5455L35.576 69.848C35.6548 69.798 35.7208 69.73 35.7686 69.6495C35.8163 69.5691 35.8445 69.4785 35.8507 69.3851C35.8557 69.2995 35.8792 69.216 35.9195 69.1403C35.9598 69.0647 36.0161 68.9987 36.0843 68.947L36.109 68.9305L39.9998 66.6766L40.0823 66.627C40.6675 66.2799 41.1457 66.5554 41.1457 67.2277Z" fill="#474747"/>
<path d="M39.0877 103.156C39.332 102.996 39.5352 102.78 39.6808 102.527C39.8264 102.273 39.9103 101.988 39.9257 101.696V66.7031L36.0789 68.9239L36.0541 68.9405C35.9859 68.9922 35.9297 69.0581 35.8894 69.1338C35.849 69.2094 35.8256 69.2929 35.8206 69.3786C35.8143 69.472 35.7862 69.5625 35.7384 69.643C35.6907 69.7234 35.6247 69.7914 35.5458 69.8415L30.8746 72.5389C30.7208 72.6299 30.5999 72.5665 30.5999 72.3984C30.5999 72.2303 30.4817 72.1642 30.3251 72.2496C30.1685 72.335 30.0503 72.3984 30.0503 72.3984L26.0881 74.7239C26.0284 74.758 25.9714 74.7967 25.9177 74.8397L25.838 74.9113C25.4875 75.2439 25.2771 75.6984 25.25 76.1815V111.174L39.0877 103.156Z" fill="white"/>
<path d="M31.6 71.1225L33.7349 69.8854C33.8613 69.811 33.9658 69.8633 33.9658 70.0038C33.9597 70.0813 33.9357 70.1563 33.8956 70.2227C33.8555 70.2892 33.8005 70.3454 33.7349 70.3868L31.6 71.6378C31.4708 71.7121 31.3691 71.6598 31.3691 71.5193C31.3724 71.4393 31.3951 71.3613 31.4354 71.2921C31.4756 71.223 31.5321 71.1647 31.6 71.1225Z" fill="#BDBDBD"/>
<path d="M34.8275 69.1606C34.9704 69.0779 35.1023 69.1441 35.1023 69.3094C35.0959 69.4012 35.0675 69.4902 35.0197 69.5688C34.9719 69.6475 34.906 69.7134 34.8275 69.7612C34.6846 69.8467 34.5527 69.7778 34.5527 69.6125C34.5592 69.5206 34.5875 69.4316 34.6353 69.353C34.6831 69.2744 34.749 69.2084 34.8275 69.1606Z" fill="#BDBDBD"/>
<path d="M24.1177 79.3113C24.1124 79.1631 24.0724 79.0182 24.0008 78.8885C23.9291 78.7587 23.828 78.6477 23.7055 78.5646C23.6657 78.537 23.6194 78.5204 23.5711 78.5165C23.5229 78.5126 23.4744 78.5216 23.4308 78.5425L23.1203 78.7189C23.076 78.7526 23.0411 78.7972 23.019 78.8483C22.9969 78.8995 22.9882 78.9555 22.9939 79.0109V82.1217C22.9991 82.2699 23.0392 82.4148 23.1108 82.5445C23.1824 82.6743 23.2836 82.7853 23.406 82.8684C23.4453 82.8969 23.4915 82.9145 23.5397 82.9193C23.588 82.9242 23.6367 82.9161 23.6808 82.896C23.7358 82.8684 23.9556 82.7472 23.9968 82.7141C24.042 82.6811 24.0777 82.6367 24.1004 82.5854C24.1231 82.5342 24.1319 82.4778 24.126 82.4221L24.1177 79.3113Z" fill="#8C8C8C"/>
<path d="M23.8099 79.4878V82.5986C23.8099 82.8741 23.6258 83.0009 23.4004 82.8741C23.278 82.791 23.1768 82.68 23.1052 82.5503C23.0336 82.4205 22.9935 82.2757 22.9883 82.1275V79.0112C22.9883 78.7356 23.1724 78.6116 23.4004 78.7356C23.5228 78.82 23.6236 78.932 23.6948 79.0627C23.7659 79.1934 23.8053 79.339 23.8099 79.4878Z" fill="#727272"/>
<path d="M24.1178 84.7555C24.1128 84.6076 24.0728 84.463 24.0012 84.3337C23.9295 84.2044 23.8282 84.0939 23.7057 84.0115C23.6661 83.9835 23.6199 83.9664 23.5716 83.962C23.5234 83.9577 23.4748 83.9662 23.4309 83.9867C23.3787 84.0198 23.1754 84.1328 23.1204 84.1631C23.0759 84.1972 23.0409 84.2423 23.0188 84.2939C22.9966 84.3455 22.9881 84.402 22.994 84.4579V87.5687C22.999 87.7166 23.039 87.8611 23.1107 87.9905C23.1823 88.1198 23.2836 88.2302 23.4062 88.3126C23.4452 88.3416 23.4912 88.3596 23.5395 88.3649C23.5877 88.3703 23.6366 88.3627 23.6809 88.3429L23.9887 88.1693C24.0341 88.1359 24.0699 88.091 24.0926 88.0393C24.1153 87.9875 24.124 87.9307 24.1178 87.8745V84.7555Z" fill="#8C8C8C"/>
<path d="M23.8099 84.9316V88.0451C23.8099 88.3206 23.6258 88.4446 23.4004 88.3206C23.2779 88.2382 23.1766 88.1278 23.105 87.9985C23.0333 87.8691 22.9933 87.7246 22.9883 87.5767V84.4577C22.9883 84.1821 23.1724 84.0554 23.4004 84.1821C23.5224 84.2662 23.623 84.3778 23.6942 84.508C23.7653 84.6381 23.8049 84.7832 23.8099 84.9316Z" fill="#727272"/>
<path d="M42.0595 67.3431C41.9374 67.2867 41.8026 67.264 41.6689 67.277C41.5351 67.2901 41.4072 67.3386 41.2983 67.4175L41.2131 67.4671L37.2426 69.765L37.2152 69.7843C37.146 69.8366 37.0891 69.9034 37.0482 69.98C37.0074 70.0566 36.9838 70.1412 36.9789 70.2279C36.972 70.3219 36.9436 70.413 36.8959 70.4942C36.8483 70.5755 36.7826 70.6446 36.7041 70.6963L31.9725 73.4351C31.9748 73.4037 31.9689 73.3722 31.9555 73.3437C31.942 73.3151 31.9213 73.2907 31.8955 73.2726L31.6208 73.1155C31.5908 73.1013 31.5576 73.0956 31.5247 73.099C31.4917 73.1024 31.4603 73.1148 31.4339 73.1348L31.1591 73.2864L27.0925 75.6422C27.0348 75.6827 26.9797 75.7269 26.9276 75.7744L26.8479 75.8461C26.4901 76.1825 26.2755 76.6444 26.2489 77.1356V108.345C26.2387 108.451 26.2562 108.557 26.2996 108.654C26.343 108.75 26.4107 108.834 26.4962 108.896L26.771 109.056C26.8679 109.1 26.9747 109.117 27.0804 109.106C27.1862 109.095 27.2871 109.056 27.3727 108.993L41.8039 100.639C42.0521 100.476 42.2586 100.257 42.4066 99.9996C42.5546 99.7421 42.64 99.4531 42.6557 99.1563V68.2C42.6692 68.0664 42.6474 67.9317 42.5924 67.8093C42.5374 67.6869 42.4512 67.5812 42.3425 67.5029L42.0595 67.3431Z" fill="#E0E0E0"/>
<path opacity="0.15" d="M27.4478 108.881V108.95L27.3681 108.997C27.2824 109.06 27.1815 109.099 27.0758 109.11C26.97 109.121 26.8632 109.104 26.7663 109.06L26.4915 108.9C26.4047 108.839 26.3358 108.756 26.2918 108.659C26.2479 108.562 26.2305 108.455 26.2415 108.349V77.1257C26.2539 76.7995 26.3556 76.483 26.5355 76.2109L26.8597 76.4011C26.6904 76.6647 26.5955 76.9694 26.585 77.2828V108.506C26.5775 108.653 26.6191 108.797 26.7031 108.917C26.7379 108.961 26.7827 108.997 26.8338 109.021C26.8848 109.045 26.9408 109.056 26.9971 109.055C27.1218 109.049 27.2429 109.011 27.3488 108.944L27.4478 108.881Z" fill="#474747"/>
<path opacity="0.15" d="M37.4112 70.1088C37.3517 70.1888 37.3173 70.2847 37.3123 70.3843C37.3084 70.4986 37.2722 70.6095 37.2078 70.7039L36.8809 70.5138C36.938 70.4326 36.9722 70.3374 36.9798 70.2383C36.9844 70.1271 37.0217 70.0197 37.0869 69.9297L37.4112 70.1088Z" fill="#474747"/>
<path d="M26.9866 109.053C26.9303 109.054 26.8743 109.043 26.8233 109.019C26.7722 108.995 26.7274 108.959 26.6926 108.915C26.6096 108.795 26.569 108.65 26.5772 108.504V77.2808C26.6039 76.8078 26.8104 76.3631 27.1542 76.0381L27.1817 76.0133C27.1978 75.9963 27.2153 75.9806 27.2339 75.9665C27.2851 75.9236 27.3403 75.8857 27.3988 75.8535L31.4572 73.5032L31.732 73.3489C31.7598 73.333 31.7908 73.3235 31.8227 73.3213C31.8996 73.3213 31.9078 73.4123 31.9078 73.4509C31.904 73.481 31.9065 73.5116 31.9151 73.5407C31.9238 73.5698 31.9384 73.5968 31.9581 73.6199C31.9778 73.643 32.002 73.6617 32.0293 73.6748C32.0567 73.6879 32.0864 73.6952 32.1167 73.6961C32.175 73.6943 32.2319 73.6772 32.2815 73.6465L37.0104 70.9077C37.1003 70.8516 37.1755 70.7748 37.23 70.6838C37.2845 70.5928 37.3166 70.4901 37.3237 70.3842C37.3295 70.3073 37.3513 70.2325 37.3878 70.1646C37.4242 70.0968 37.4744 70.0373 37.5352 69.9901L37.56 69.9764L41.5305 67.6784L41.6156 67.6288C41.7503 67.5439 41.9046 67.4955 42.0635 67.4883C42.396 67.4883 42.6131 67.7638 42.6131 68.1992V99.1582C42.5976 99.4448 42.5148 99.7237 42.3716 99.9721C42.2283 100.221 42.0287 100.432 41.7887 100.588L27.3383 108.942C27.2326 109.009 27.1114 109.047 26.9866 109.053Z" fill="#FAFAFA"/>
<path d="M42.0412 67.5537C42.3407 67.5537 42.5193 67.7962 42.5193 68.2012V99.1602C42.5025 99.4356 42.4223 99.7032 42.285 99.9423C42.1477 100.181 41.957 100.385 41.728 100.538L27.305 108.892C27.2094 108.953 27.0996 108.988 26.9863 108.994C26.7665 108.994 26.6373 108.812 26.6373 108.506V77.2828C26.6618 76.8277 26.8583 76.3991 27.1869 76.0842L27.2143 76.0594L27.2611 76.0181C27.3108 75.9767 27.3642 75.9399 27.4204 75.9079L31.4871 73.5714L31.7619 73.4171C31.7793 73.4061 31.7991 73.3995 31.8196 73.3978C31.8416 73.3978 31.8443 73.4584 31.8443 73.4666C31.84 73.5053 31.844 73.5444 31.8559 73.5814C31.8677 73.6184 31.8873 73.6525 31.9133 73.6814C31.9392 73.7103 31.971 73.7333 32.0064 73.749C32.0419 73.7647 32.0803 73.7727 32.1191 73.7725C32.1881 73.771 32.2554 73.751 32.3142 73.7146L37.0458 70.9758C37.1443 70.9138 37.2268 70.8294 37.2865 70.7293C37.3462 70.6292 37.3814 70.5163 37.3893 70.3999C37.3939 70.3328 37.4128 70.2673 37.4445 70.208C37.4762 70.1486 37.5201 70.0966 37.5734 70.0555H37.5926L41.5631 67.7576L41.6483 67.708C41.7739 67.6291 41.9178 67.5845 42.0659 67.5785M42.0659 67.4545C41.8961 67.4602 41.731 67.5116 41.5878 67.6033L41.5026 67.6529L37.5321 69.9508L37.5047 69.9674C37.435 70.0194 37.3775 70.086 37.3362 70.1627C37.2949 70.2393 37.2708 70.324 37.2656 70.411C37.2593 70.5055 37.2312 70.5972 37.1835 70.679C37.1359 70.7608 37.0699 70.8303 36.9908 70.8821L32.262 73.6182C32.2221 73.6452 32.1754 73.6604 32.1273 73.6623C32.0394 73.6623 31.9789 73.5934 31.9789 73.4777C31.9789 73.3619 31.9185 73.2876 31.8333 73.2876C31.7906 73.2889 31.749 73.3013 31.7124 73.3234L31.4376 73.4777L27.3682 75.8032C27.3072 75.8376 27.2493 75.8772 27.1951 75.9217L27.1127 75.9961C26.755 76.3315 26.5404 76.7925 26.5137 77.2828V108.506C26.5137 108.892 26.706 109.115 26.9863 109.115C27.1216 109.111 27.2533 109.071 27.3682 109L41.7994 100.643C42.0476 100.48 42.2541 100.261 42.4021 100.004C42.5501 99.746 42.6355 99.4571 42.6512 99.1602V68.2012C42.6512 67.7135 42.4066 67.4297 42.0522 67.4297L42.0659 67.4545Z" fill="#E0E0E0"/>
<path d="M42.0417 67.4883C41.8828 67.4955 41.7285 67.5439 41.5938 67.6288L41.5087 67.6784L37.5492 69.9874L37.5244 70.0012C37.4636 70.0483 37.4134 70.1078 37.377 70.1757C37.3405 70.2435 37.3187 70.3183 37.3128 70.3952C37.3058 70.5011 37.2737 70.6038 37.2192 70.6948C37.1647 70.7858 37.0895 70.8626 36.9996 70.9187L32.2707 73.6575C32.2211 73.6883 32.1642 73.7054 32.1059 73.7071C32.0756 73.7062 32.0458 73.6989 32.0185 73.6858C31.9912 73.6727 31.9669 73.654 31.9473 73.6309C31.9276 73.6078 31.913 73.5808 31.9043 73.5517C31.8957 73.5226 31.8932 73.492 31.897 73.4619C31.897 73.4233 31.897 73.3324 31.8119 73.3324C31.7799 73.3346 31.7489 73.344 31.7212 73.3599L31.4464 73.5142L27.388 75.8645C27.3295 75.8968 27.2743 75.9346 27.2231 75.9775C27.2045 75.9916 27.187 76.0073 27.1709 76.0243L27.1434 76.0491C26.7996 76.3741 26.5931 76.8188 26.5664 77.2918V82.4774L42.5913 73.1918V68.1992C42.5913 67.7611 42.3852 67.4883 42.0417 67.4883Z" fill="#F0F0F0"/>
<path d="M33.6376 103.481L28.3207 106.559C28.1861 106.636 28.0762 106.559 28.0762 106.375V100.646C28.0778 100.554 28.1007 100.464 28.1432 100.383C28.1856 100.302 28.2464 100.231 28.3207 100.178L33.6376 97.1C33.7723 97.0229 33.8822 97.1 33.8822 97.2846V103.013C33.8806 103.105 33.8576 103.195 33.8152 103.276C33.7727 103.358 33.7119 103.428 33.6376 103.481Z" fill="#E0E0E0"/>
<path opacity="0.05" d="M33.6376 103.481L28.3207 106.559C28.1861 106.636 28.0762 106.559 28.0762 106.375V100.646C28.0778 100.554 28.1007 100.464 28.1432 100.383C28.1856 100.302 28.2464 100.231 28.3207 100.178L33.6376 97.1C33.7723 97.0229 33.8822 97.1 33.8822 97.2846V103.013C33.8806 103.105 33.8576 103.195 33.8152 103.276C33.7727 103.358 33.7119 103.428 33.6376 103.481Z" fill="#474747"/>
<path d="M28.4883 105.824V104.061L29.9748 100.972L31.6867 102.465L31.2827 101.652L32.1922 100.062L33.4699 101.126V102.939L28.4883 105.824Z" fill="#FAFAFA"/>
<path d="M31.555 99.8072C31.5575 99.9446 31.5283 100.081 31.4697 100.205C31.411 100.329 31.3246 100.438 31.2171 100.524C31.0302 100.631 30.8791 100.485 30.8791 100.198C30.8764 100.061 30.9055 99.9248 30.9642 99.8005C31.0228 99.6762 31.1094 99.5672 31.2171 99.4821C31.4039 99.3719 31.555 99.5179 31.555 99.8072Z" fill="#FAFAFA"/>
<path d="M33.6376 96.3591L28.3207 99.4368C28.1861 99.514 28.0762 99.4368 28.0762 99.2495V93.5239C28.0778 93.4317 28.1007 93.3412 28.1431 93.2594C28.1856 93.1776 28.2464 93.1069 28.3207 93.0527L33.6376 89.975C33.7723 89.8978 33.8822 89.975 33.8822 90.1623V95.8907C33.8801 95.9824 33.857 96.0724 33.8146 96.1536C33.7722 96.2349 33.7116 96.3052 33.6376 96.3591Z" fill="#E0E0E0"/>
<path d="M28.4883 98.7028V96.9367L29.9748 93.8479L31.6867 95.3413L31.2827 94.5285L32.1922 92.9414L33.4699 94.005V95.818L28.4883 98.7028Z" fill="#FAFAFA"/>
<path d="M31.555 92.6808C31.5577 92.8182 31.5286 92.9545 31.4699 93.0788C31.4113 93.2031 31.3247 93.312 31.217 93.3972C31.0302 93.5046 30.8791 93.3586 30.8791 93.072C30.8766 92.9346 30.9058 92.7984 30.9644 92.6742C31.023 92.5499 31.1095 92.4409 31.217 92.3556C31.4039 92.2482 31.555 92.3942 31.555 92.6808Z" fill="#FAFAFA"/>
<path d="M33.6376 89.0723L28.3207 92.1501C28.1861 92.23 28.0762 92.1501 28.0762 91.9655V86.2426C28.0778 86.1504 28.1007 86.0599 28.1431 85.9781C28.1856 85.8964 28.2464 85.8256 28.3207 85.7714L33.6376 82.6937C33.7723 82.6166 33.8822 82.6937 33.8822 82.8811V88.6067C33.8801 88.698 33.857 88.7876 33.8146 88.8684C33.7721 88.9492 33.7116 89.019 33.6376 89.0723Z" fill="#F0F0F0"/>
<path d="M28.4883 91.4177V89.6543L29.9748 86.5655L31.6867 88.0589L31.2827 87.2461L32.1922 85.6562L33.4699 86.7226V88.5328L28.4883 91.4177Z" fill="#FAFAFA"/>
<path d="M31.555 85.3998C31.5575 85.5373 31.5283 85.6734 31.4697 85.7977C31.411 85.922 31.3246 86.031 31.2171 86.1162C31.0302 86.2237 30.8791 86.0776 30.8791 85.7911C30.8764 85.6536 30.9055 85.5174 30.9642 85.3931C31.0228 85.2688 31.1094 85.1598 31.2171 85.0747C31.4039 84.9673 31.555 85.1105 31.555 85.3998Z" fill="#FAFAFA"/>
<path d="M40.6396 77.1031L37.0703 79.1696V77.836L40.6396 75.7695V77.1031Z" fill="#E0E0E0"/>
<path d="M36.3674 79.5758L32.8008 81.6395V80.3059L36.3674 78.2422V79.5758Z" fill="#E0E0E0"/>
<path d="M32.0967 82.0496L28.5273 84.1161V82.7825L32.0967 80.7188V82.0496Z" fill="#E0E0E0"/>
<path d="M31.7033 77.2035L28.1367 79.2673V77.9337L31.7033 75.8672V77.2035Z" fill="#E0E0E0"/>
<path d="M39.9519 81.1877L35.0966 83.9981C34.9895 84.0615 34.9043 83.9981 34.9043 83.8548V83.8163C34.9054 83.7439 34.9233 83.6729 34.9567 83.6087C34.9901 83.5446 35.038 83.4893 35.0966 83.4471L39.9519 80.6366C40.0591 80.576 40.1443 80.6366 40.1443 80.7826V80.8212C40.1432 80.8932 40.1252 80.9638 40.0918 81.0275C40.0584 81.0912 40.0105 81.1461 39.9519 81.1877Z" fill="#E0E0E0"/>
<path d="M35.0046 84.9805C34.9871 84.9814 34.9698 84.9772 34.9547 84.9684C34.9396 84.9596 34.9273 84.9466 34.9194 84.9309C34.9064 84.9083 34.9029 84.8814 34.9096 84.8561C34.9162 84.8308 34.9326 84.8092 34.9551 84.7959L41.231 81.1616C41.2536 81.1486 41.2804 81.145 41.3057 81.1518C41.3309 81.1585 41.3524 81.1749 41.3656 81.1975C41.3788 81.2206 41.3824 81.2479 41.3757 81.2736C41.369 81.2994 41.3526 81.3215 41.3299 81.3352L35.0541 84.9668C35.0394 84.9763 35.0221 84.9812 35.0046 84.9805Z" fill="#E0E0E0"/>
<path d="M35.0046 85.7617C34.9871 85.7625 34.9698 85.7583 34.9547 85.7495C34.9396 85.7407 34.9273 85.7277 34.9194 85.7121C34.9064 85.6894 34.9029 85.6625 34.9096 85.6372C34.9162 85.6119 34.9326 85.5903 34.9551 85.5771L41.231 81.9428C41.2534 81.9324 41.2788 81.9307 41.3023 81.9382C41.3258 81.9456 41.3457 81.9616 41.3581 81.983C41.3705 82.0044 41.3745 82.0296 41.3692 82.0538C41.364 82.0779 41.35 82.0993 41.3299 82.1136L35.0541 85.7479C35.0394 85.7575 35.0221 85.7623 35.0046 85.7617Z" fill="#E0E0E0"/>
<path d="M35.0046 86.5404C34.9873 86.5406 34.9702 86.5361 34.9552 86.5274C34.9402 86.5186 34.9278 86.506 34.9194 86.4908C34.9064 86.4681 34.9029 86.4412 34.9096 86.4159C34.9162 86.3906 34.9326 86.369 34.9551 86.3558L41.231 82.7215C41.2422 82.7135 41.255 82.7079 41.2684 82.7052C41.2819 82.7024 41.2958 82.7025 41.3093 82.7054C41.3227 82.7083 41.3354 82.714 41.3465 82.7221C41.3577 82.7302 41.367 82.7406 41.3739 82.7525C41.3808 82.7644 41.3851 82.7777 41.3867 82.7914C41.3882 82.8051 41.3868 82.819 41.3827 82.8321C41.3785 82.8453 41.3717 82.8575 41.3626 82.8678C41.3535 82.8782 41.3424 82.8865 41.3299 82.8923L35.0541 86.5184C35.0396 86.5296 35.0226 86.5372 35.0046 86.5404Z" fill="#E0E0E0"/>
<path d="M35.0048 87.3203C34.9875 87.3205 34.9704 87.316 34.9554 87.3073C34.9404 87.2985 34.928 87.2859 34.9196 87.2707C34.9065 87.2476 34.9028 87.2203 34.9095 87.1945C34.9162 87.1688 34.9326 87.1467 34.9553 87.1329L41.2312 83.5014C41.2536 83.491 41.279 83.4893 41.3025 83.4968C41.326 83.5042 41.3459 83.5202 41.3583 83.5416C41.3707 83.563 41.3747 83.5882 41.3694 83.6124C41.3642 83.6365 41.3502 83.6579 41.3301 83.6722L35.0542 87.3065C35.039 87.3149 35.0221 87.3196 35.0048 87.3203Z" fill="#E0E0E0"/>
<path d="M39.9519 88.4042L35.0966 91.2063C34.9895 91.2697 34.9043 91.2063 34.9043 91.0603V91.0245C34.9049 90.9521 34.9227 90.8808 34.9561 90.8166C34.9896 90.7525 35.0377 90.6971 35.0966 90.6553L39.9519 87.8448C40.0591 87.7814 40.1443 87.8448 40.1443 87.9908V88.0267C40.1449 88.1005 40.1278 88.1734 40.0943 88.2391C40.0608 88.3048 40.012 88.3615 39.9519 88.4042Z" fill="#E0E0E0"/>
<path d="M35.0046 92.1953C34.9871 92.1961 34.9698 92.1919 34.9547 92.1831C34.9396 92.1743 34.9273 92.1613 34.9194 92.1457C34.9064 92.123 34.9029 92.0961 34.9096 92.0708C34.9162 92.0455 34.9326 92.0239 34.9551 92.0107L41.231 88.3764C41.2534 88.366 41.2788 88.3643 41.3023 88.3718C41.3258 88.3792 41.3457 88.3952 41.3581 88.4166C41.3705 88.438 41.3745 88.4632 41.3692 88.4874C41.364 88.5115 41.35 88.5329 41.3299 88.5472L35.0541 92.1815C35.0394 92.1911 35.0221 92.1959 35.0046 92.1953Z" fill="#E0E0E0"/>
<path d="M35.0046 92.9765C34.9873 92.9767 34.9702 92.9722 34.9552 92.9635C34.9402 92.9548 34.9278 92.9421 34.9194 92.9269C34.9064 92.9043 34.9029 92.8773 34.9096 92.8521C34.9162 92.8268 34.9326 92.8052 34.9551 92.7919L41.231 89.1576C41.2534 89.1472 41.2788 89.1456 41.3023 89.153C41.3258 89.1605 41.3457 89.1764 41.3581 89.1978C41.3705 89.2192 41.3745 89.2445 41.3692 89.2686C41.364 89.2928 41.35 89.3141 41.3299 89.3285L35.0541 92.9628C35.0388 92.9711 35.0219 92.9758 35.0046 92.9765Z" fill="#E0E0E0"/>
<path d="M35.0048 93.7578C34.9875 93.758 34.9704 93.7535 34.9554 93.7448C34.9404 93.736 34.928 93.7234 34.9196 93.7082C34.9065 93.6851 34.9028 93.6578 34.9095 93.632C34.9162 93.6063 34.9326 93.5842 34.9553 93.5704L41.2312 89.9389C41.2536 89.9285 41.279 89.9268 41.3025 89.9343C41.326 89.9417 41.3459 89.9577 41.3583 89.9791C41.3707 90.0005 41.3747 90.0257 41.3694 90.0499C41.3642 90.074 41.3502 90.0954 41.3301 90.1097L35.0542 93.744C35.039 93.7524 35.0221 93.7571 35.0048 93.7578Z" fill="#E0E0E0"/>
<path d="M35.0046 94.5352C34.9871 94.536 34.9698 94.5318 34.9547 94.523C34.9396 94.5142 34.9273 94.5012 34.9194 94.4856C34.9064 94.4629 34.9029 94.436 34.9096 94.4107C34.9162 94.3854 34.9326 94.3638 34.9551 94.3506L41.231 90.7163C41.2424 90.7098 41.2549 90.7056 41.2679 90.7039C41.2809 90.7023 41.294 90.7032 41.3067 90.7066C41.3193 90.7101 41.3311 90.716 41.3415 90.7241C41.3518 90.7321 41.3605 90.7421 41.367 90.7535C41.3735 90.7649 41.3777 90.7775 41.3793 90.7905C41.381 90.8035 41.3801 90.8167 41.3766 90.8294C41.3732 90.8421 41.3673 90.8539 41.3593 90.8643C41.3513 90.8747 41.3413 90.8834 41.3299 90.8899L35.0541 94.5132C35.0397 94.5246 35.0227 94.5322 35.0046 94.5352Z" fill="#E0E0E0"/>
<path d="M39.9519 95.6147L35.0966 98.4251C34.9895 98.4858 34.9043 98.4251 34.9043 98.2791V98.2405C34.9054 98.1686 34.9233 98.0979 34.9567 98.0342C34.9902 97.9705 35.0381 97.9157 35.0966 97.8741L39.9519 95.0636C40.0591 95.0002 40.1443 95.0636 40.1443 95.2069V95.2455C40.1432 95.3178 40.1252 95.3889 40.0918 95.453C40.0584 95.5171 40.0105 95.5725 39.9519 95.6147Z" fill="#E0E0E0"/>
<path d="M35.0046 99.4101C34.9873 99.4103 34.9702 99.4058 34.9552 99.3971C34.9402 99.3884 34.9278 99.3757 34.9194 99.3605C34.9064 99.3379 34.9029 99.3109 34.9096 99.2857C34.9162 99.2604 34.9326 99.2387 34.9551 99.2255L41.231 95.5912C41.2534 95.5808 41.2788 95.5792 41.3023 95.5866C41.3258 95.5941 41.3457 95.61 41.3581 95.6314C41.3705 95.6528 41.3745 95.678 41.3692 95.7022C41.364 95.7264 41.35 95.7477 41.3299 95.7621L35.0541 99.3964C35.0388 99.4047 35.0219 99.4094 35.0046 99.4101Z" fill="#E0E0E0"/>
<path d="M35.0048 100.187C34.9875 100.188 34.9704 100.183 34.9554 100.174C34.9404 100.166 34.928 100.153 34.9196 100.138C34.9065 100.115 34.9028 100.087 34.9095 100.062C34.9162 100.036 34.9326 100.014 34.9553 100L41.2312 96.3686C41.2536 96.3582 41.279 96.3565 41.3025 96.364C41.326 96.3714 41.3459 96.3874 41.3583 96.4088C41.3707 96.4301 41.3747 96.4554 41.3694 96.4796C41.3642 96.5037 41.3502 96.5251 41.3301 96.5394L35.0542 100.174C35.039 100.182 35.0221 100.187 35.0048 100.187Z" fill="#E0E0E0"/>
<path d="M35.0046 100.965C34.9871 100.966 34.9698 100.962 34.9547 100.953C34.9396 100.944 34.9273 100.931 34.9194 100.915C34.9064 100.893 34.9029 100.866 34.9096 100.84C34.9162 100.815 34.9326 100.794 34.9551 100.78L41.231 97.146C41.2539 97.1328 41.2812 97.1294 41.3067 97.1363C41.3322 97.1433 41.3539 97.1602 41.367 97.1832C41.3801 97.2062 41.3836 97.2335 41.3766 97.2591C41.3697 97.2847 41.3529 97.3064 41.3299 97.3196L35.0541 100.954C35.0387 100.961 35.0217 100.965 35.0046 100.965Z" fill="#E0E0E0"/>
<path d="M35.0046 101.746C34.9871 101.747 34.9698 101.743 34.9547 101.734C34.9396 101.725 34.9273 101.712 34.9194 101.697C34.9064 101.674 34.9029 101.647 34.9096 101.622C34.9162 101.596 34.9326 101.575 34.9551 101.562L41.231 97.9273C41.2536 97.9142 41.2804 97.9107 41.3057 97.9174C41.3309 97.9241 41.3524 97.9405 41.3656 97.9631C41.3788 97.9862 41.3824 98.0135 41.3757 98.0393C41.369 98.065 41.3526 98.0871 41.3299 98.1008L35.0541 101.732C35.0394 101.742 35.0221 101.747 35.0046 101.746Z" fill="#E0E0E0"/>
</g>
<defs>
<clipPath id="clip0_2311_73896">
<rect width="122" height="116" fill="white"/>
</clipPath>
</defs>
</svg>
