<svg width="12" height="12" viewBox="0 0 12 12" fill="none" xmlns="http://www.w3.org/2000/svg">
<path d="M5.99447 0.167969C2.77447 0.167969 0.161133 2.7813 0.161133 6.0013C0.161133 9.2213 2.77447 11.8346 5.99447 11.8346C9.21447 11.8346 11.8278 9.2213 11.8278 6.0013C11.8278 2.7813 9.21447 0.167969 5.99447 0.167969V0.167969ZM8.1003 3.8663C8.72447 3.8663 9.22613 4.36797 9.22613 4.99214C9.22613 5.6163 8.72447 6.11797 8.1003 6.11797C7.47613 6.11797 6.97447 5.6163 6.97447 4.99214C6.96863 4.36797 7.47613 3.8663 8.1003 3.8663V3.8663ZM4.6003 2.94464C5.35863 2.94464 5.97697 3.56297 5.97697 4.3213C5.97697 5.07964 5.35863 5.69797 4.6003 5.69797C3.84197 5.69797 3.22363 5.07964 3.22363 4.3213C3.22363 3.55714 3.83613 2.94464 4.6003 2.94464ZM4.6003 8.27047V10.458C3.2003 10.0205 2.09197 8.9413 1.60197 7.56464C2.21447 6.9113 3.7428 6.5788 4.6003 6.5788C4.90947 6.5788 5.3003 6.62547 5.70863 6.70714C4.75197 7.21464 4.6003 7.88547 4.6003 8.27047ZM5.99447 10.668C5.83697 10.668 5.6853 10.6621 5.53363 10.6446V8.27047C5.53363 7.44214 7.24863 7.02797 8.1003 7.02797C8.72447 7.02797 9.80363 7.25547 10.3403 7.6988C9.6578 9.4313 7.97197 10.668 5.99447 10.668V10.668Z" fill="#8E8E8E"/>
<path d="M5.99447 0.167969C2.77447 0.167969 0.161133 2.7813 0.161133 6.0013C0.161133 9.2213 2.77447 11.8346 5.99447 11.8346C9.21447 11.8346 11.8278 9.2213 11.8278 6.0013C11.8278 2.7813 9.21447 0.167969 5.99447 0.167969V0.167969ZM8.1003 3.8663C8.72447 3.8663 9.22613 4.36797 9.22613 4.99214C9.22613 5.6163 8.72447 6.11797 8.1003 6.11797C7.47613 6.11797 6.97447 5.6163 6.97447 4.99214C6.96863 4.36797 7.47613 3.8663 8.1003 3.8663V3.8663ZM4.6003 2.94464C5.35863 2.94464 5.97697 3.56297 5.97697 4.3213C5.97697 5.07964 5.35863 5.69797 4.6003 5.69797C3.84197 5.69797 3.22363 5.07964 3.22363 4.3213C3.22363 3.55714 3.83613 2.94464 4.6003 2.94464ZM4.6003 8.27047V10.458C3.2003 10.0205 2.09197 8.9413 1.60197 7.56464C2.21447 6.9113 3.7428 6.5788 4.6003 6.5788C4.90947 6.5788 5.3003 6.62547 5.70863 6.70714C4.75197 7.21464 4.6003 7.88547 4.6003 8.27047ZM5.99447 10.668C5.83697 10.668 5.6853 10.6621 5.53363 10.6446V8.27047C5.53363 7.44214 7.24863 7.02797 8.1003 7.02797C8.72447 7.02797 9.80363 7.25547 10.3403 7.6988C9.6578 9.4313 7.97197 10.668 5.99447 10.668V10.668Z" fill="black" fill-opacity="0.2"/>
</svg>
