<svg width="12" height="10" viewBox="0 0 12 10" fill="none" xmlns="http://www.w3.org/2000/svg">
<path d="M1.33301 4.125C0.848841 4.125 0.458008 4.51583 0.458008 5C0.458008 5.48417 0.848841 5.875 1.33301 5.875C1.81717 5.875 2.20801 5.48417 2.20801 5C2.20801 4.51583 1.81717 4.125 1.33301 4.125ZM1.33301 0.625C0.848841 0.625 0.458008 1.01583 0.458008 1.5C0.458008 1.98417 0.848841 2.375 1.33301 2.375C1.81717 2.375 2.20801 1.98417 2.20801 1.5C2.20801 1.01583 1.81717 0.625 1.33301 0.625ZM1.33301 7.625C0.848841 7.625 0.458008 8.02167 0.458008 8.5C0.458008 8.97833 0.854675 9.375 1.33301 9.375C1.81134 9.375 2.20801 8.97833 2.20801 8.5C2.20801 8.02167 1.81717 7.625 1.33301 7.625ZM3.08301 9.08333H11.2497V7.91667H3.08301V9.08333ZM3.08301 5.58333H11.2497V4.41667H3.08301V5.58333ZM3.08301 0.916667V2.08333H11.2497V0.916667H3.08301Z" fill="#5C5C5C"/>
</svg>
